%TF.GenerationSoftware,KiCad,Pcbnew,(5.1.6)-1*%
%TF.CreationDate,2020-07-24T14:42:19-07:00*%
%TF.ProjectId,Ign-Inj LEDs,49676e2d-496e-46a2-904c-4544732e6b69,rev?*%
%TF.SameCoordinates,Original*%
%TF.FileFunction,Legend,Top*%
%TF.FilePolarity,Positive*%
%FSLAX46Y46*%
G04 Gerber Fmt 4.6, Leading zero omitted, Abs format (unit mm)*
G04 Created by KiCad (PCBNEW (5.1.6)-1) date 2020-07-24 14:42:19*
%MOMM*%
%LPD*%
G01*
G04 APERTURE LIST*
%ADD10C,0.150000*%
%ADD11C,0.300000*%
%ADD12C,0.120000*%
G04 APERTURE END LIST*
D10*
X116460000Y-1032058571D02*
X116602857Y-1032106190D01*
X116650476Y-1032153809D01*
X116698095Y-1032249047D01*
X116698095Y-1032391904D01*
X116650476Y-1032487142D01*
X116602857Y-1032534761D01*
X116507619Y-1032582380D01*
X116126666Y-1032582380D01*
X116126666Y-1031582380D01*
X116460000Y-1031582380D01*
X116555238Y-1031630000D01*
X116602857Y-1031677619D01*
X116650476Y-1031772857D01*
X116650476Y-1031868095D01*
X116602857Y-1031963333D01*
X116555238Y-1032010952D01*
X116460000Y-1032058571D01*
X116126666Y-1032058571D01*
X117126666Y-1032582380D02*
X117126666Y-1031582380D01*
X117507619Y-1031582380D01*
X117602857Y-1031630000D01*
X117650476Y-1031677619D01*
X117698095Y-1031772857D01*
X117698095Y-1031915714D01*
X117650476Y-1032010952D01*
X117602857Y-1032058571D01*
X117507619Y-1032106190D01*
X117126666Y-1032106190D01*
X118126666Y-1032058571D02*
X118460000Y-1032058571D01*
X118602857Y-1032582380D02*
X118126666Y-1032582380D01*
X118126666Y-1031582380D01*
X118602857Y-1031582380D01*
X119031428Y-1032582380D02*
X119031428Y-1031582380D01*
X119364761Y-1032296666D01*
X119698095Y-1031582380D01*
X119698095Y-1032582380D01*
X120602857Y-1031915714D02*
X120602857Y-1032582380D01*
X120364761Y-1031534761D02*
X120126666Y-1032249047D01*
X120745714Y-1032249047D01*
X121269523Y-1032010952D02*
X121174285Y-1031963333D01*
X121126666Y-1031915714D01*
X121079047Y-1031820476D01*
X121079047Y-1031772857D01*
X121126666Y-1031677619D01*
X121174285Y-1031630000D01*
X121269523Y-1031582380D01*
X121460000Y-1031582380D01*
X121555238Y-1031630000D01*
X121602857Y-1031677619D01*
X121650476Y-1031772857D01*
X121650476Y-1031820476D01*
X121602857Y-1031915714D01*
X121555238Y-1031963333D01*
X121460000Y-1032010952D01*
X121269523Y-1032010952D01*
X121174285Y-1032058571D01*
X121126666Y-1032106190D01*
X121079047Y-1032201428D01*
X121079047Y-1032391904D01*
X121126666Y-1032487142D01*
X121174285Y-1032534761D01*
X121269523Y-1032582380D01*
X121460000Y-1032582380D01*
X121555238Y-1032534761D01*
X121602857Y-1032487142D01*
X121650476Y-1032391904D01*
X121650476Y-1032201428D01*
X121602857Y-1032106190D01*
X121555238Y-1032058571D01*
X121460000Y-1032010952D01*
X122221904Y-1032010952D02*
X122126666Y-1031963333D01*
X122079047Y-1031915714D01*
X122031428Y-1031820476D01*
X122031428Y-1031772857D01*
X122079047Y-1031677619D01*
X122126666Y-1031630000D01*
X122221904Y-1031582380D01*
X122412380Y-1031582380D01*
X122507619Y-1031630000D01*
X122555238Y-1031677619D01*
X122602857Y-1031772857D01*
X122602857Y-1031820476D01*
X122555238Y-1031915714D01*
X122507619Y-1031963333D01*
X122412380Y-1032010952D01*
X122221904Y-1032010952D01*
X122126666Y-1032058571D01*
X122079047Y-1032106190D01*
X122031428Y-1032201428D01*
X122031428Y-1032391904D01*
X122079047Y-1032487142D01*
X122126666Y-1032534761D01*
X122221904Y-1032582380D01*
X122412380Y-1032582380D01*
X122507619Y-1032534761D01*
X122555238Y-1032487142D01*
X122602857Y-1032391904D01*
X122602857Y-1032201428D01*
X122555238Y-1032106190D01*
X122507619Y-1032058571D01*
X122412380Y-1032010952D01*
X123793333Y-1032582380D02*
X123793333Y-1031582380D01*
X124698095Y-1031915714D02*
X124698095Y-1032725238D01*
X124650476Y-1032820476D01*
X124602857Y-1032868095D01*
X124507619Y-1032915714D01*
X124364761Y-1032915714D01*
X124269523Y-1032868095D01*
X124698095Y-1032534761D02*
X124602857Y-1032582380D01*
X124412380Y-1032582380D01*
X124317142Y-1032534761D01*
X124269523Y-1032487142D01*
X124221904Y-1032391904D01*
X124221904Y-1032106190D01*
X124269523Y-1032010952D01*
X124317142Y-1031963333D01*
X124412380Y-1031915714D01*
X124602857Y-1031915714D01*
X124698095Y-1031963333D01*
X125174285Y-1031915714D02*
X125174285Y-1032582380D01*
X125174285Y-1032010952D02*
X125221904Y-1031963333D01*
X125317142Y-1031915714D01*
X125460000Y-1031915714D01*
X125555238Y-1031963333D01*
X125602857Y-1032058571D01*
X125602857Y-1032582380D01*
X126793333Y-1031534761D02*
X125936190Y-1032820476D01*
X127126666Y-1032582380D02*
X127126666Y-1031582380D01*
X127602857Y-1031915714D02*
X127602857Y-1032582380D01*
X127602857Y-1032010952D02*
X127650476Y-1031963333D01*
X127745714Y-1031915714D01*
X127888571Y-1031915714D01*
X127983809Y-1031963333D01*
X128031428Y-1032058571D01*
X128031428Y-1032582380D01*
X128507619Y-1031915714D02*
X128507619Y-1032772857D01*
X128460000Y-1032868095D01*
X128364761Y-1032915714D01*
X128317142Y-1032915714D01*
X128507619Y-1031582380D02*
X128460000Y-1031630000D01*
X128507619Y-1031677619D01*
X128555238Y-1031630000D01*
X128507619Y-1031582380D01*
X128507619Y-1031677619D01*
X130221904Y-1032582380D02*
X129745714Y-1032582380D01*
X129745714Y-1031582380D01*
X130555238Y-1032058571D02*
X130888571Y-1032058571D01*
X131031428Y-1032582380D02*
X130555238Y-1032582380D01*
X130555238Y-1031582380D01*
X131031428Y-1031582380D01*
X131460000Y-1032582380D02*
X131460000Y-1031582380D01*
X131698095Y-1031582380D01*
X131840952Y-1031630000D01*
X131936190Y-1031725238D01*
X131983809Y-1031820476D01*
X132031428Y-1032010952D01*
X132031428Y-1032153809D01*
X131983809Y-1032344285D01*
X131936190Y-1032439523D01*
X131840952Y-1032534761D01*
X131698095Y-1032582380D01*
X131460000Y-1032582380D01*
X132412380Y-1032534761D02*
X132507619Y-1032582380D01*
X132698095Y-1032582380D01*
X132793333Y-1032534761D01*
X132840952Y-1032439523D01*
X132840952Y-1032391904D01*
X132793333Y-1032296666D01*
X132698095Y-1032249047D01*
X132555238Y-1032249047D01*
X132460000Y-1032201428D01*
X132412380Y-1032106190D01*
X132412380Y-1032058571D01*
X132460000Y-1031963333D01*
X132555238Y-1031915714D01*
X132698095Y-1031915714D01*
X132793333Y-1031963333D01*
X114269523Y-1034232380D02*
X114269523Y-1033232380D01*
X114507619Y-1033232380D01*
X114650476Y-1033280000D01*
X114745714Y-1033375238D01*
X114793333Y-1033470476D01*
X114840952Y-1033660952D01*
X114840952Y-1033803809D01*
X114793333Y-1033994285D01*
X114745714Y-1034089523D01*
X114650476Y-1034184761D01*
X114507619Y-1034232380D01*
X114269523Y-1034232380D01*
X115650476Y-1034184761D02*
X115555238Y-1034232380D01*
X115364761Y-1034232380D01*
X115269523Y-1034184761D01*
X115221904Y-1034089523D01*
X115221904Y-1033708571D01*
X115269523Y-1033613333D01*
X115364761Y-1033565714D01*
X115555238Y-1033565714D01*
X115650476Y-1033613333D01*
X115698095Y-1033708571D01*
X115698095Y-1033803809D01*
X115221904Y-1033899047D01*
X116079047Y-1034184761D02*
X116174285Y-1034232380D01*
X116364761Y-1034232380D01*
X116460000Y-1034184761D01*
X116507619Y-1034089523D01*
X116507619Y-1034041904D01*
X116460000Y-1033946666D01*
X116364761Y-1033899047D01*
X116221904Y-1033899047D01*
X116126666Y-1033851428D01*
X116079047Y-1033756190D01*
X116079047Y-1033708571D01*
X116126666Y-1033613333D01*
X116221904Y-1033565714D01*
X116364761Y-1033565714D01*
X116460000Y-1033613333D01*
X116936190Y-1034232380D02*
X116936190Y-1033565714D01*
X116936190Y-1033232380D02*
X116888571Y-1033280000D01*
X116936190Y-1033327619D01*
X116983809Y-1033280000D01*
X116936190Y-1033232380D01*
X116936190Y-1033327619D01*
X117840952Y-1033565714D02*
X117840952Y-1034375238D01*
X117793333Y-1034470476D01*
X117745714Y-1034518095D01*
X117650476Y-1034565714D01*
X117507619Y-1034565714D01*
X117412380Y-1034518095D01*
X117840952Y-1034184761D02*
X117745714Y-1034232380D01*
X117555238Y-1034232380D01*
X117460000Y-1034184761D01*
X117412380Y-1034137142D01*
X117364761Y-1034041904D01*
X117364761Y-1033756190D01*
X117412380Y-1033660952D01*
X117460000Y-1033613333D01*
X117555238Y-1033565714D01*
X117745714Y-1033565714D01*
X117840952Y-1033613333D01*
X118317142Y-1033565714D02*
X118317142Y-1034232380D01*
X118317142Y-1033660952D02*
X118364761Y-1033613333D01*
X118460000Y-1033565714D01*
X118602857Y-1033565714D01*
X118698095Y-1033613333D01*
X118745714Y-1033708571D01*
X118745714Y-1034232380D01*
X119602857Y-1034184761D02*
X119507619Y-1034232380D01*
X119317142Y-1034232380D01*
X119221904Y-1034184761D01*
X119174285Y-1034089523D01*
X119174285Y-1033708571D01*
X119221904Y-1033613333D01*
X119317142Y-1033565714D01*
X119507619Y-1033565714D01*
X119602857Y-1033613333D01*
X119650476Y-1033708571D01*
X119650476Y-1033803809D01*
X119174285Y-1033899047D01*
X120507619Y-1034232380D02*
X120507619Y-1033232380D01*
X120507619Y-1034184761D02*
X120412380Y-1034232380D01*
X120221904Y-1034232380D01*
X120126666Y-1034184761D01*
X120079047Y-1034137142D01*
X120031428Y-1034041904D01*
X120031428Y-1033756190D01*
X120079047Y-1033660952D01*
X120126666Y-1033613333D01*
X120221904Y-1033565714D01*
X120412380Y-1033565714D01*
X120507619Y-1033613333D01*
X121745714Y-1034232380D02*
X121745714Y-1033232380D01*
X121745714Y-1033613333D02*
X121840952Y-1033565714D01*
X122031428Y-1033565714D01*
X122126666Y-1033613333D01*
X122174285Y-1033660952D01*
X122221904Y-1033756190D01*
X122221904Y-1034041904D01*
X122174285Y-1034137142D01*
X122126666Y-1034184761D01*
X122031428Y-1034232380D01*
X121840952Y-1034232380D01*
X121745714Y-1034184761D01*
X122555238Y-1033565714D02*
X122793333Y-1034232380D01*
X123031428Y-1033565714D02*
X122793333Y-1034232380D01*
X122698095Y-1034470476D01*
X122650476Y-1034518095D01*
X122555238Y-1034565714D01*
X124745714Y-1034232380D02*
X124412380Y-1033756190D01*
X124174285Y-1034232380D02*
X124174285Y-1033232380D01*
X124555238Y-1033232380D01*
X124650476Y-1033280000D01*
X124698095Y-1033327619D01*
X124745714Y-1033422857D01*
X124745714Y-1033565714D01*
X124698095Y-1033660952D01*
X124650476Y-1033708571D01*
X124555238Y-1033756190D01*
X124174285Y-1033756190D01*
X125317142Y-1034232380D02*
X125221904Y-1034184761D01*
X125174285Y-1034137142D01*
X125126666Y-1034041904D01*
X125126666Y-1033756190D01*
X125174285Y-1033660952D01*
X125221904Y-1033613333D01*
X125317142Y-1033565714D01*
X125460000Y-1033565714D01*
X125555238Y-1033613333D01*
X125602857Y-1033660952D01*
X125650476Y-1033756190D01*
X125650476Y-1034041904D01*
X125602857Y-1034137142D01*
X125555238Y-1034184761D01*
X125460000Y-1034232380D01*
X125317142Y-1034232380D01*
X126079047Y-1034232380D02*
X126079047Y-1033232380D01*
X126079047Y-1033613333D02*
X126174285Y-1033565714D01*
X126364761Y-1033565714D01*
X126460000Y-1033613333D01*
X126507619Y-1033660952D01*
X126555238Y-1033756190D01*
X126555238Y-1034041904D01*
X126507619Y-1034137142D01*
X126460000Y-1034184761D01*
X126364761Y-1034232380D01*
X126174285Y-1034232380D01*
X126079047Y-1034184761D01*
X127364761Y-1034184761D02*
X127269523Y-1034232380D01*
X127079047Y-1034232380D01*
X126983809Y-1034184761D01*
X126936190Y-1034089523D01*
X126936190Y-1033708571D01*
X126983809Y-1033613333D01*
X127079047Y-1033565714D01*
X127269523Y-1033565714D01*
X127364761Y-1033613333D01*
X127412380Y-1033708571D01*
X127412380Y-1033803809D01*
X126936190Y-1033899047D01*
X127840952Y-1034232380D02*
X127840952Y-1033565714D01*
X127840952Y-1033756190D02*
X127888571Y-1033660952D01*
X127936190Y-1033613333D01*
X128031428Y-1033565714D01*
X128126666Y-1033565714D01*
X128317142Y-1033565714D02*
X128698095Y-1033565714D01*
X128460000Y-1033232380D02*
X128460000Y-1034089523D01*
X128507619Y-1034184761D01*
X128602857Y-1034232380D01*
X128698095Y-1034232380D01*
X129793333Y-1034232380D02*
X129793333Y-1033232380D01*
X129793333Y-1033708571D02*
X130364761Y-1033708571D01*
X130364761Y-1034232380D02*
X130364761Y-1033232380D01*
X130840952Y-1034232380D02*
X130840952Y-1033565714D01*
X130840952Y-1033232380D02*
X130793333Y-1033280000D01*
X130840952Y-1033327619D01*
X130888571Y-1033280000D01*
X130840952Y-1033232380D01*
X130840952Y-1033327619D01*
X131698095Y-1034184761D02*
X131602857Y-1034232380D01*
X131412380Y-1034232380D01*
X131317142Y-1034184761D01*
X131269523Y-1034089523D01*
X131269523Y-1033708571D01*
X131317142Y-1033613333D01*
X131412380Y-1033565714D01*
X131602857Y-1033565714D01*
X131698095Y-1033613333D01*
X131745714Y-1033708571D01*
X131745714Y-1033803809D01*
X131269523Y-1033899047D01*
X132174285Y-1034232380D02*
X132174285Y-1033232380D01*
X132174285Y-1033613333D02*
X132269523Y-1033565714D01*
X132460000Y-1033565714D01*
X132555238Y-1033613333D01*
X132602857Y-1033660952D01*
X132650476Y-1033756190D01*
X132650476Y-1034041904D01*
X132602857Y-1034137142D01*
X132555238Y-1034184761D01*
X132460000Y-1034232380D01*
X132269523Y-1034232380D01*
X132174285Y-1034184761D01*
X133460000Y-1034184761D02*
X133364761Y-1034232380D01*
X133174285Y-1034232380D01*
X133079047Y-1034184761D01*
X133031428Y-1034089523D01*
X133031428Y-1033708571D01*
X133079047Y-1033613333D01*
X133174285Y-1033565714D01*
X133364761Y-1033565714D01*
X133460000Y-1033613333D01*
X133507619Y-1033708571D01*
X133507619Y-1033803809D01*
X133031428Y-1033899047D01*
X133936190Y-1034232380D02*
X133936190Y-1033565714D01*
X133936190Y-1033756190D02*
X133983809Y-1033660952D01*
X134031428Y-1033613333D01*
X134126666Y-1033565714D01*
X134221904Y-1033565714D01*
X134412380Y-1033565714D02*
X134793333Y-1033565714D01*
X134555238Y-1033232380D02*
X134555238Y-1034089523D01*
X134602857Y-1034184761D01*
X134698095Y-1034232380D01*
X134793333Y-1034232380D01*
X120221904Y-1034882380D02*
X120888571Y-1034882380D01*
X120460000Y-1035882380D01*
X121983809Y-1034834761D02*
X121126666Y-1036120476D01*
X122507619Y-1034882380D02*
X122602857Y-1034882380D01*
X122698095Y-1034930000D01*
X122745714Y-1034977619D01*
X122793333Y-1035072857D01*
X122840952Y-1035263333D01*
X122840952Y-1035501428D01*
X122793333Y-1035691904D01*
X122745714Y-1035787142D01*
X122698095Y-1035834761D01*
X122602857Y-1035882380D01*
X122507619Y-1035882380D01*
X122412380Y-1035834761D01*
X122364761Y-1035787142D01*
X122317142Y-1035691904D01*
X122269523Y-1035501428D01*
X122269523Y-1035263333D01*
X122317142Y-1035072857D01*
X122364761Y-1034977619D01*
X122412380Y-1034930000D01*
X122507619Y-1034882380D01*
X123412380Y-1035310952D02*
X123317142Y-1035263333D01*
X123269523Y-1035215714D01*
X123221904Y-1035120476D01*
X123221904Y-1035072857D01*
X123269523Y-1034977619D01*
X123317142Y-1034930000D01*
X123412380Y-1034882380D01*
X123602857Y-1034882380D01*
X123698095Y-1034930000D01*
X123745714Y-1034977619D01*
X123793333Y-1035072857D01*
X123793333Y-1035120476D01*
X123745714Y-1035215714D01*
X123698095Y-1035263333D01*
X123602857Y-1035310952D01*
X123412380Y-1035310952D01*
X123317142Y-1035358571D01*
X123269523Y-1035406190D01*
X123221904Y-1035501428D01*
X123221904Y-1035691904D01*
X123269523Y-1035787142D01*
X123317142Y-1035834761D01*
X123412380Y-1035882380D01*
X123602857Y-1035882380D01*
X123698095Y-1035834761D01*
X123745714Y-1035787142D01*
X123793333Y-1035691904D01*
X123793333Y-1035501428D01*
X123745714Y-1035406190D01*
X123698095Y-1035358571D01*
X123602857Y-1035310952D01*
X124936190Y-1034834761D02*
X124079047Y-1036120476D01*
X125221904Y-1034977619D02*
X125269523Y-1034930000D01*
X125364761Y-1034882380D01*
X125602857Y-1034882380D01*
X125698095Y-1034930000D01*
X125745714Y-1034977619D01*
X125793333Y-1035072857D01*
X125793333Y-1035168095D01*
X125745714Y-1035310952D01*
X125174285Y-1035882380D01*
X125793333Y-1035882380D01*
X126412380Y-1034882380D02*
X126507619Y-1034882380D01*
X126602857Y-1034930000D01*
X126650476Y-1034977619D01*
X126698095Y-1035072857D01*
X126745714Y-1035263333D01*
X126745714Y-1035501428D01*
X126698095Y-1035691904D01*
X126650476Y-1035787142D01*
X126602857Y-1035834761D01*
X126507619Y-1035882380D01*
X126412380Y-1035882380D01*
X126317142Y-1035834761D01*
X126269523Y-1035787142D01*
X126221904Y-1035691904D01*
X126174285Y-1035501428D01*
X126174285Y-1035263333D01*
X126221904Y-1035072857D01*
X126269523Y-1034977619D01*
X126317142Y-1034930000D01*
X126412380Y-1034882380D01*
X127126666Y-1034977619D02*
X127174285Y-1034930000D01*
X127269523Y-1034882380D01*
X127507619Y-1034882380D01*
X127602857Y-1034930000D01*
X127650476Y-1034977619D01*
X127698095Y-1035072857D01*
X127698095Y-1035168095D01*
X127650476Y-1035310952D01*
X127079047Y-1035882380D01*
X127698095Y-1035882380D01*
X128317142Y-1034882380D02*
X128412380Y-1034882380D01*
X128507619Y-1034930000D01*
X128555238Y-1034977619D01*
X128602857Y-1035072857D01*
X128650476Y-1035263333D01*
X128650476Y-1035501428D01*
X128602857Y-1035691904D01*
X128555238Y-1035787142D01*
X128507619Y-1035834761D01*
X128412380Y-1035882380D01*
X128317142Y-1035882380D01*
X128221904Y-1035834761D01*
X128174285Y-1035787142D01*
X128126666Y-1035691904D01*
X128079047Y-1035501428D01*
X128079047Y-1035263333D01*
X128126666Y-1035072857D01*
X128174285Y-1034977619D01*
X128221904Y-1034930000D01*
X128317142Y-1034882380D01*
D11*
X129238571Y-1020334761D02*
X129238571Y-1018334761D01*
X130190952Y-1019001428D02*
X130190952Y-1020334761D01*
X130190952Y-1019191904D02*
X130286190Y-1019096666D01*
X130476666Y-1019001428D01*
X130762380Y-1019001428D01*
X130952857Y-1019096666D01*
X131048095Y-1019287142D01*
X131048095Y-1020334761D01*
X132000476Y-1019001428D02*
X132000476Y-1020715714D01*
X131905238Y-1020906190D01*
X131714761Y-1021001428D01*
X131619523Y-1021001428D01*
X132000476Y-1018334761D02*
X131905238Y-1018430000D01*
X132000476Y-1018525238D01*
X132095714Y-1018430000D01*
X132000476Y-1018334761D01*
X132000476Y-1018525238D01*
X133905238Y-1018334761D02*
X132952857Y-1018334761D01*
X132857619Y-1019287142D01*
X132952857Y-1019191904D01*
X133143333Y-1019096666D01*
X133619523Y-1019096666D01*
X133810000Y-1019191904D01*
X133905238Y-1019287142D01*
X134000476Y-1019477619D01*
X134000476Y-1019953809D01*
X133905238Y-1020144285D01*
X133810000Y-1020239523D01*
X133619523Y-1020334761D01*
X133143333Y-1020334761D01*
X132952857Y-1020239523D01*
X132857619Y-1020144285D01*
X127381428Y-1024396666D02*
X127286190Y-1024301428D01*
X127095714Y-1024015714D01*
X127000476Y-1023825238D01*
X126905238Y-1023539523D01*
X126810000Y-1023063333D01*
X126810000Y-1022682380D01*
X126905238Y-1022206190D01*
X127000476Y-1021920476D01*
X127095714Y-1021730000D01*
X127286190Y-1021444285D01*
X127381428Y-1021349047D01*
X127952857Y-1021634761D02*
X129286190Y-1021634761D01*
X128429047Y-1023634761D01*
X131667142Y-1023634761D02*
X131571904Y-1023634761D01*
X131381428Y-1023539523D01*
X131095714Y-1023253809D01*
X130619523Y-1022682380D01*
X130429047Y-1022396666D01*
X130333809Y-1022110952D01*
X130333809Y-1021920476D01*
X130429047Y-1021730000D01*
X130619523Y-1021634761D01*
X130714761Y-1021634761D01*
X130905238Y-1021730000D01*
X131000476Y-1021920476D01*
X131000476Y-1022015714D01*
X130905238Y-1022206190D01*
X130810000Y-1022301428D01*
X130238571Y-1022682380D01*
X130143333Y-1022777619D01*
X130048095Y-1022968095D01*
X130048095Y-1023253809D01*
X130143333Y-1023444285D01*
X130238571Y-1023539523D01*
X130429047Y-1023634761D01*
X130714761Y-1023634761D01*
X130905238Y-1023539523D01*
X131000476Y-1023444285D01*
X131286190Y-1023063333D01*
X131381428Y-1022777619D01*
X131381428Y-1022587142D01*
X132429047Y-1021825238D02*
X132524285Y-1021730000D01*
X132714761Y-1021634761D01*
X133190952Y-1021634761D01*
X133381428Y-1021730000D01*
X133476666Y-1021825238D01*
X133571904Y-1022015714D01*
X133571904Y-1022206190D01*
X133476666Y-1022491904D01*
X132333809Y-1023634761D01*
X133571904Y-1023634761D01*
X134238571Y-1024396666D02*
X134333809Y-1024301428D01*
X134524285Y-1024015714D01*
X134619523Y-1023825238D01*
X134714761Y-1023539523D01*
X134810000Y-1023063333D01*
X134810000Y-1022682380D01*
X134714761Y-1022206190D01*
X134619523Y-1021920476D01*
X134524285Y-1021730000D01*
X134333809Y-1021444285D01*
X134238571Y-1021349047D01*
X130508571Y-1003824761D02*
X130508571Y-1001824761D01*
X131460952Y-1002491428D02*
X131460952Y-1003824761D01*
X131460952Y-1002681904D02*
X131556190Y-1002586666D01*
X131746666Y-1002491428D01*
X132032380Y-1002491428D01*
X132222857Y-1002586666D01*
X132318095Y-1002777142D01*
X132318095Y-1003824761D01*
X133270476Y-1002491428D02*
X133270476Y-1004205714D01*
X133175238Y-1004396190D01*
X132984761Y-1004491428D01*
X132889523Y-1004491428D01*
X133270476Y-1001824761D02*
X133175238Y-1001920000D01*
X133270476Y-1002015238D01*
X133365714Y-1001920000D01*
X133270476Y-1001824761D01*
X133270476Y-1002015238D01*
X135080000Y-1002491428D02*
X135080000Y-1003824761D01*
X134603809Y-1001729523D02*
X134127619Y-1003158095D01*
X135365714Y-1003158095D01*
X128651428Y-1007886666D02*
X128556190Y-1007791428D01*
X128365714Y-1007505714D01*
X128270476Y-1007315238D01*
X128175238Y-1007029523D01*
X128080000Y-1006553333D01*
X128080000Y-1006172380D01*
X128175238Y-1005696190D01*
X128270476Y-1005410476D01*
X128365714Y-1005220000D01*
X128556190Y-1004934285D01*
X128651428Y-1004839047D01*
X130365714Y-1005124761D02*
X129413333Y-1005124761D01*
X129318095Y-1006077142D01*
X129413333Y-1005981904D01*
X129603809Y-1005886666D01*
X130080000Y-1005886666D01*
X130270476Y-1005981904D01*
X130365714Y-1006077142D01*
X130460952Y-1006267619D01*
X130460952Y-1006743809D01*
X130365714Y-1006934285D01*
X130270476Y-1007029523D01*
X130080000Y-1007124761D01*
X129603809Y-1007124761D01*
X129413333Y-1007029523D01*
X129318095Y-1006934285D01*
X132937142Y-1007124761D02*
X132841904Y-1007124761D01*
X132651428Y-1007029523D01*
X132365714Y-1006743809D01*
X131889523Y-1006172380D01*
X131699047Y-1005886666D01*
X131603809Y-1005600952D01*
X131603809Y-1005410476D01*
X131699047Y-1005220000D01*
X131889523Y-1005124761D01*
X131984761Y-1005124761D01*
X132175238Y-1005220000D01*
X132270476Y-1005410476D01*
X132270476Y-1005505714D01*
X132175238Y-1005696190D01*
X132080000Y-1005791428D01*
X131508571Y-1006172380D01*
X131413333Y-1006267619D01*
X131318095Y-1006458095D01*
X131318095Y-1006743809D01*
X131413333Y-1006934285D01*
X131508571Y-1007029523D01*
X131699047Y-1007124761D01*
X131984761Y-1007124761D01*
X132175238Y-1007029523D01*
X132270476Y-1006934285D01*
X132556190Y-1006553333D01*
X132651428Y-1006267619D01*
X132651428Y-1006077142D01*
X134080000Y-1005981904D02*
X133889523Y-1005886666D01*
X133794285Y-1005791428D01*
X133699047Y-1005600952D01*
X133699047Y-1005505714D01*
X133794285Y-1005315238D01*
X133889523Y-1005220000D01*
X134080000Y-1005124761D01*
X134460952Y-1005124761D01*
X134651428Y-1005220000D01*
X134746666Y-1005315238D01*
X134841904Y-1005505714D01*
X134841904Y-1005600952D01*
X134746666Y-1005791428D01*
X134651428Y-1005886666D01*
X134460952Y-1005981904D01*
X134080000Y-1005981904D01*
X133889523Y-1006077142D01*
X133794285Y-1006172380D01*
X133699047Y-1006362857D01*
X133699047Y-1006743809D01*
X133794285Y-1006934285D01*
X133889523Y-1007029523D01*
X134080000Y-1007124761D01*
X134460952Y-1007124761D01*
X134651428Y-1007029523D01*
X134746666Y-1006934285D01*
X134841904Y-1006743809D01*
X134841904Y-1006362857D01*
X134746666Y-1006172380D01*
X134651428Y-1006077142D01*
X134460952Y-1005981904D01*
X135508571Y-1007886666D02*
X135603809Y-1007791428D01*
X135794285Y-1007505714D01*
X135889523Y-1007315238D01*
X135984761Y-1007029523D01*
X136080000Y-1006553333D01*
X136080000Y-1006172380D01*
X135984761Y-1005696190D01*
X135889523Y-1005410476D01*
X135794285Y-1005220000D01*
X135603809Y-1004934285D01*
X135508571Y-1004839047D01*
X130508571Y-988584761D02*
X130508571Y-986584761D01*
X131460952Y-987251428D02*
X131460952Y-988584761D01*
X131460952Y-987441904D02*
X131556190Y-987346666D01*
X131746666Y-987251428D01*
X132032380Y-987251428D01*
X132222857Y-987346666D01*
X132318095Y-987537142D01*
X132318095Y-988584761D01*
X133270476Y-987251428D02*
X133270476Y-988965714D01*
X133175238Y-989156190D01*
X132984761Y-989251428D01*
X132889523Y-989251428D01*
X133270476Y-986584761D02*
X133175238Y-986680000D01*
X133270476Y-986775238D01*
X133365714Y-986680000D01*
X133270476Y-986584761D01*
X133270476Y-986775238D01*
X134032380Y-986584761D02*
X135270476Y-986584761D01*
X134603809Y-987346666D01*
X134889523Y-987346666D01*
X135080000Y-987441904D01*
X135175238Y-987537142D01*
X135270476Y-987727619D01*
X135270476Y-988203809D01*
X135175238Y-988394285D01*
X135080000Y-988489523D01*
X134889523Y-988584761D01*
X134318095Y-988584761D01*
X134127619Y-988489523D01*
X134032380Y-988394285D01*
X128651428Y-992646666D02*
X128556190Y-992551428D01*
X128365714Y-992265714D01*
X128270476Y-992075238D01*
X128175238Y-991789523D01*
X128080000Y-991313333D01*
X128080000Y-990932380D01*
X128175238Y-990456190D01*
X128270476Y-990170476D01*
X128365714Y-989980000D01*
X128556190Y-989694285D01*
X128651428Y-989599047D01*
X129222857Y-989884761D02*
X130460952Y-989884761D01*
X129794285Y-990646666D01*
X130080000Y-990646666D01*
X130270476Y-990741904D01*
X130365714Y-990837142D01*
X130460952Y-991027619D01*
X130460952Y-991503809D01*
X130365714Y-991694285D01*
X130270476Y-991789523D01*
X130080000Y-991884761D01*
X129508571Y-991884761D01*
X129318095Y-991789523D01*
X129222857Y-991694285D01*
X132937142Y-991884761D02*
X132841904Y-991884761D01*
X132651428Y-991789523D01*
X132365714Y-991503809D01*
X131889523Y-990932380D01*
X131699047Y-990646666D01*
X131603809Y-990360952D01*
X131603809Y-990170476D01*
X131699047Y-989980000D01*
X131889523Y-989884761D01*
X131984761Y-989884761D01*
X132175238Y-989980000D01*
X132270476Y-990170476D01*
X132270476Y-990265714D01*
X132175238Y-990456190D01*
X132080000Y-990551428D01*
X131508571Y-990932380D01*
X131413333Y-991027619D01*
X131318095Y-991218095D01*
X131318095Y-991503809D01*
X131413333Y-991694285D01*
X131508571Y-991789523D01*
X131699047Y-991884761D01*
X131984761Y-991884761D01*
X132175238Y-991789523D01*
X132270476Y-991694285D01*
X132556190Y-991313333D01*
X132651428Y-991027619D01*
X132651428Y-990837142D01*
X134651428Y-989884761D02*
X134270476Y-989884761D01*
X134080000Y-989980000D01*
X133984761Y-990075238D01*
X133794285Y-990360952D01*
X133699047Y-990741904D01*
X133699047Y-991503809D01*
X133794285Y-991694285D01*
X133889523Y-991789523D01*
X134080000Y-991884761D01*
X134460952Y-991884761D01*
X134651428Y-991789523D01*
X134746666Y-991694285D01*
X134841904Y-991503809D01*
X134841904Y-991027619D01*
X134746666Y-990837142D01*
X134651428Y-990741904D01*
X134460952Y-990646666D01*
X134080000Y-990646666D01*
X133889523Y-990741904D01*
X133794285Y-990837142D01*
X133699047Y-991027619D01*
X135508571Y-992646666D02*
X135603809Y-992551428D01*
X135794285Y-992265714D01*
X135889523Y-992075238D01*
X135984761Y-991789523D01*
X136080000Y-991313333D01*
X136080000Y-990932380D01*
X135984761Y-990456190D01*
X135889523Y-990170476D01*
X135794285Y-989980000D01*
X135603809Y-989694285D01*
X135508571Y-989599047D01*
X130508571Y-973344761D02*
X130508571Y-971344761D01*
X131460952Y-972011428D02*
X131460952Y-973344761D01*
X131460952Y-972201904D02*
X131556190Y-972106666D01*
X131746666Y-972011428D01*
X132032380Y-972011428D01*
X132222857Y-972106666D01*
X132318095Y-972297142D01*
X132318095Y-973344761D01*
X133270476Y-972011428D02*
X133270476Y-973725714D01*
X133175238Y-973916190D01*
X132984761Y-974011428D01*
X132889523Y-974011428D01*
X133270476Y-971344761D02*
X133175238Y-971440000D01*
X133270476Y-971535238D01*
X133365714Y-971440000D01*
X133270476Y-971344761D01*
X133270476Y-971535238D01*
X134127619Y-971535238D02*
X134222857Y-971440000D01*
X134413333Y-971344761D01*
X134889523Y-971344761D01*
X135080000Y-971440000D01*
X135175238Y-971535238D01*
X135270476Y-971725714D01*
X135270476Y-971916190D01*
X135175238Y-972201904D01*
X134032380Y-973344761D01*
X135270476Y-973344761D01*
X128651428Y-977406666D02*
X128556190Y-977311428D01*
X128365714Y-977025714D01*
X128270476Y-976835238D01*
X128175238Y-976549523D01*
X128080000Y-976073333D01*
X128080000Y-975692380D01*
X128175238Y-975216190D01*
X128270476Y-974930476D01*
X128365714Y-974740000D01*
X128556190Y-974454285D01*
X128651428Y-974359047D01*
X129508571Y-976644761D02*
X129889523Y-976644761D01*
X130080000Y-976549523D01*
X130175238Y-976454285D01*
X130365714Y-976168571D01*
X130460952Y-975787619D01*
X130460952Y-975025714D01*
X130365714Y-974835238D01*
X130270476Y-974740000D01*
X130080000Y-974644761D01*
X129699047Y-974644761D01*
X129508571Y-974740000D01*
X129413333Y-974835238D01*
X129318095Y-975025714D01*
X129318095Y-975501904D01*
X129413333Y-975692380D01*
X129508571Y-975787619D01*
X129699047Y-975882857D01*
X130080000Y-975882857D01*
X130270476Y-975787619D01*
X130365714Y-975692380D01*
X130460952Y-975501904D01*
X132937142Y-976644761D02*
X132841904Y-976644761D01*
X132651428Y-976549523D01*
X132365714Y-976263809D01*
X131889523Y-975692380D01*
X131699047Y-975406666D01*
X131603809Y-975120952D01*
X131603809Y-974930476D01*
X131699047Y-974740000D01*
X131889523Y-974644761D01*
X131984761Y-974644761D01*
X132175238Y-974740000D01*
X132270476Y-974930476D01*
X132270476Y-975025714D01*
X132175238Y-975216190D01*
X132080000Y-975311428D01*
X131508571Y-975692380D01*
X131413333Y-975787619D01*
X131318095Y-975978095D01*
X131318095Y-976263809D01*
X131413333Y-976454285D01*
X131508571Y-976549523D01*
X131699047Y-976644761D01*
X131984761Y-976644761D01*
X132175238Y-976549523D01*
X132270476Y-976454285D01*
X132556190Y-976073333D01*
X132651428Y-975787619D01*
X132651428Y-975597142D01*
X134651428Y-975311428D02*
X134651428Y-976644761D01*
X134175238Y-974549523D02*
X133699047Y-975978095D01*
X134937142Y-975978095D01*
X135508571Y-977406666D02*
X135603809Y-977311428D01*
X135794285Y-977025714D01*
X135889523Y-976835238D01*
X135984761Y-976549523D01*
X136080000Y-976073333D01*
X136080000Y-975692380D01*
X135984761Y-975216190D01*
X135889523Y-974930476D01*
X135794285Y-974740000D01*
X135603809Y-974454285D01*
X135508571Y-974359047D01*
X129238571Y-958104761D02*
X129238571Y-956104761D01*
X130190952Y-956771428D02*
X130190952Y-958104761D01*
X130190952Y-956961904D02*
X130286190Y-956866666D01*
X130476666Y-956771428D01*
X130762380Y-956771428D01*
X130952857Y-956866666D01*
X131048095Y-957057142D01*
X131048095Y-958104761D01*
X132000476Y-956771428D02*
X132000476Y-958485714D01*
X131905238Y-958676190D01*
X131714761Y-958771428D01*
X131619523Y-958771428D01*
X132000476Y-956104761D02*
X131905238Y-956200000D01*
X132000476Y-956295238D01*
X132095714Y-956200000D01*
X132000476Y-956104761D01*
X132000476Y-956295238D01*
X134000476Y-958104761D02*
X132857619Y-958104761D01*
X133429047Y-958104761D02*
X133429047Y-956104761D01*
X133238571Y-956390476D01*
X133048095Y-956580952D01*
X132857619Y-956676190D01*
X126429047Y-962166666D02*
X126333809Y-962071428D01*
X126143333Y-961785714D01*
X126048095Y-961595238D01*
X125952857Y-961309523D01*
X125857619Y-960833333D01*
X125857619Y-960452380D01*
X125952857Y-959976190D01*
X126048095Y-959690476D01*
X126143333Y-959500000D01*
X126333809Y-959214285D01*
X126429047Y-959119047D01*
X128238571Y-961404761D02*
X127095714Y-961404761D01*
X127667142Y-961404761D02*
X127667142Y-959404761D01*
X127476666Y-959690476D01*
X127286190Y-959880952D01*
X127095714Y-959976190D01*
X130714761Y-961404761D02*
X130619523Y-961404761D01*
X130429047Y-961309523D01*
X130143333Y-961023809D01*
X129667142Y-960452380D01*
X129476666Y-960166666D01*
X129381428Y-959880952D01*
X129381428Y-959690476D01*
X129476666Y-959500000D01*
X129667142Y-959404761D01*
X129762380Y-959404761D01*
X129952857Y-959500000D01*
X130048095Y-959690476D01*
X130048095Y-959785714D01*
X129952857Y-959976190D01*
X129857619Y-960071428D01*
X129286190Y-960452380D01*
X129190952Y-960547619D01*
X129095714Y-960738095D01*
X129095714Y-961023809D01*
X129190952Y-961214285D01*
X129286190Y-961309523D01*
X129476666Y-961404761D01*
X129762380Y-961404761D01*
X129952857Y-961309523D01*
X130048095Y-961214285D01*
X130333809Y-960833333D01*
X130429047Y-960547619D01*
X130429047Y-960357142D01*
X132619523Y-961404761D02*
X131476666Y-961404761D01*
X132048095Y-961404761D02*
X132048095Y-959404761D01*
X131857619Y-959690476D01*
X131667142Y-959880952D01*
X131476666Y-959976190D01*
X133857619Y-959404761D02*
X134048095Y-959404761D01*
X134238571Y-959500000D01*
X134333809Y-959595238D01*
X134429047Y-959785714D01*
X134524285Y-960166666D01*
X134524285Y-960642857D01*
X134429047Y-961023809D01*
X134333809Y-961214285D01*
X134238571Y-961309523D01*
X134048095Y-961404761D01*
X133857619Y-961404761D01*
X133667142Y-961309523D01*
X133571904Y-961214285D01*
X133476666Y-961023809D01*
X133381428Y-960642857D01*
X133381428Y-960166666D01*
X133476666Y-959785714D01*
X133571904Y-959595238D01*
X133667142Y-959500000D01*
X133857619Y-959404761D01*
X135190952Y-962166666D02*
X135286190Y-962071428D01*
X135476666Y-961785714D01*
X135571904Y-961595238D01*
X135667142Y-961309523D01*
X135762380Y-960833333D01*
X135762380Y-960452380D01*
X135667142Y-959976190D01*
X135571904Y-959690476D01*
X135476666Y-959500000D01*
X135286190Y-959214285D01*
X135190952Y-959119047D01*
X117888095Y-973344761D02*
X117888095Y-971344761D01*
X119697619Y-972011428D02*
X119697619Y-973630476D01*
X119602380Y-973820952D01*
X119507142Y-973916190D01*
X119316666Y-974011428D01*
X119030952Y-974011428D01*
X118840476Y-973916190D01*
X119697619Y-973249523D02*
X119507142Y-973344761D01*
X119126190Y-973344761D01*
X118935714Y-973249523D01*
X118840476Y-973154285D01*
X118745238Y-972963809D01*
X118745238Y-972392380D01*
X118840476Y-972201904D01*
X118935714Y-972106666D01*
X119126190Y-972011428D01*
X119507142Y-972011428D01*
X119697619Y-972106666D01*
X120650000Y-972011428D02*
X120650000Y-973344761D01*
X120650000Y-972201904D02*
X120745238Y-972106666D01*
X120935714Y-972011428D01*
X121221428Y-972011428D01*
X121411904Y-972106666D01*
X121507142Y-972297142D01*
X121507142Y-973344761D01*
X122364285Y-971535238D02*
X122459523Y-971440000D01*
X122650000Y-971344761D01*
X123126190Y-971344761D01*
X123316666Y-971440000D01*
X123411904Y-971535238D01*
X123507142Y-971725714D01*
X123507142Y-971916190D01*
X123411904Y-972201904D01*
X122269047Y-973344761D01*
X123507142Y-973344761D01*
X116269047Y-977406666D02*
X116173809Y-977311428D01*
X115983333Y-977025714D01*
X115888095Y-976835238D01*
X115792857Y-976549523D01*
X115697619Y-976073333D01*
X115697619Y-975692380D01*
X115792857Y-975216190D01*
X115888095Y-974930476D01*
X115983333Y-974740000D01*
X116173809Y-974454285D01*
X116269047Y-974359047D01*
X118078571Y-976644761D02*
X116935714Y-976644761D01*
X117507142Y-976644761D02*
X117507142Y-974644761D01*
X117316666Y-974930476D01*
X117126190Y-975120952D01*
X116935714Y-975216190D01*
X119316666Y-974644761D02*
X119507142Y-974644761D01*
X119697619Y-974740000D01*
X119792857Y-974835238D01*
X119888095Y-975025714D01*
X119983333Y-975406666D01*
X119983333Y-975882857D01*
X119888095Y-976263809D01*
X119792857Y-976454285D01*
X119697619Y-976549523D01*
X119507142Y-976644761D01*
X119316666Y-976644761D01*
X119126190Y-976549523D01*
X119030952Y-976454285D01*
X118935714Y-976263809D01*
X118840476Y-975882857D01*
X118840476Y-975406666D01*
X118935714Y-975025714D01*
X119030952Y-974835238D01*
X119126190Y-974740000D01*
X119316666Y-974644761D01*
X122459523Y-976644761D02*
X122364285Y-976644761D01*
X122173809Y-976549523D01*
X121888095Y-976263809D01*
X121411904Y-975692380D01*
X121221428Y-975406666D01*
X121126190Y-975120952D01*
X121126190Y-974930476D01*
X121221428Y-974740000D01*
X121411904Y-974644761D01*
X121507142Y-974644761D01*
X121697619Y-974740000D01*
X121792857Y-974930476D01*
X121792857Y-975025714D01*
X121697619Y-975216190D01*
X121602380Y-975311428D01*
X121030952Y-975692380D01*
X120935714Y-975787619D01*
X120840476Y-975978095D01*
X120840476Y-976263809D01*
X120935714Y-976454285D01*
X121030952Y-976549523D01*
X121221428Y-976644761D01*
X121507142Y-976644761D01*
X121697619Y-976549523D01*
X121792857Y-976454285D01*
X122078571Y-976073333D01*
X122173809Y-975787619D01*
X122173809Y-975597142D01*
X124269047Y-974644761D02*
X123316666Y-974644761D01*
X123221428Y-975597142D01*
X123316666Y-975501904D01*
X123507142Y-975406666D01*
X123983333Y-975406666D01*
X124173809Y-975501904D01*
X124269047Y-975597142D01*
X124364285Y-975787619D01*
X124364285Y-976263809D01*
X124269047Y-976454285D01*
X124173809Y-976549523D01*
X123983333Y-976644761D01*
X123507142Y-976644761D01*
X123316666Y-976549523D01*
X123221428Y-976454285D01*
X125030952Y-977406666D02*
X125126190Y-977311428D01*
X125316666Y-977025714D01*
X125411904Y-976835238D01*
X125507142Y-976549523D01*
X125602380Y-976073333D01*
X125602380Y-975692380D01*
X125507142Y-975216190D01*
X125411904Y-974930476D01*
X125316666Y-974740000D01*
X125126190Y-974454285D01*
X125030952Y-974359047D01*
X116618095Y-1020334761D02*
X116618095Y-1018334761D01*
X118427619Y-1019001428D02*
X118427619Y-1020620476D01*
X118332380Y-1020810952D01*
X118237142Y-1020906190D01*
X118046666Y-1021001428D01*
X117760952Y-1021001428D01*
X117570476Y-1020906190D01*
X118427619Y-1020239523D02*
X118237142Y-1020334761D01*
X117856190Y-1020334761D01*
X117665714Y-1020239523D01*
X117570476Y-1020144285D01*
X117475238Y-1019953809D01*
X117475238Y-1019382380D01*
X117570476Y-1019191904D01*
X117665714Y-1019096666D01*
X117856190Y-1019001428D01*
X118237142Y-1019001428D01*
X118427619Y-1019096666D01*
X119380000Y-1019001428D02*
X119380000Y-1020334761D01*
X119380000Y-1019191904D02*
X119475238Y-1019096666D01*
X119665714Y-1019001428D01*
X119951428Y-1019001428D01*
X120141904Y-1019096666D01*
X120237142Y-1019287142D01*
X120237142Y-1020334761D01*
X122141904Y-1018334761D02*
X121189523Y-1018334761D01*
X121094285Y-1019287142D01*
X121189523Y-1019191904D01*
X121380000Y-1019096666D01*
X121856190Y-1019096666D01*
X122046666Y-1019191904D01*
X122141904Y-1019287142D01*
X122237142Y-1019477619D01*
X122237142Y-1019953809D01*
X122141904Y-1020144285D01*
X122046666Y-1020239523D01*
X121856190Y-1020334761D01*
X121380000Y-1020334761D01*
X121189523Y-1020239523D01*
X121094285Y-1020144285D01*
X115951428Y-1024396666D02*
X115856190Y-1024301428D01*
X115665714Y-1024015714D01*
X115570476Y-1023825238D01*
X115475238Y-1023539523D01*
X115380000Y-1023063333D01*
X115380000Y-1022682380D01*
X115475238Y-1022206190D01*
X115570476Y-1021920476D01*
X115665714Y-1021730000D01*
X115856190Y-1021444285D01*
X115951428Y-1021349047D01*
X116522857Y-1021634761D02*
X117760952Y-1021634761D01*
X117094285Y-1022396666D01*
X117380000Y-1022396666D01*
X117570476Y-1022491904D01*
X117665714Y-1022587142D01*
X117760952Y-1022777619D01*
X117760952Y-1023253809D01*
X117665714Y-1023444285D01*
X117570476Y-1023539523D01*
X117380000Y-1023634761D01*
X116808571Y-1023634761D01*
X116618095Y-1023539523D01*
X116522857Y-1023444285D01*
X120237142Y-1023634761D02*
X120141904Y-1023634761D01*
X119951428Y-1023539523D01*
X119665714Y-1023253809D01*
X119189523Y-1022682380D01*
X118999047Y-1022396666D01*
X118903809Y-1022110952D01*
X118903809Y-1021920476D01*
X118999047Y-1021730000D01*
X119189523Y-1021634761D01*
X119284761Y-1021634761D01*
X119475238Y-1021730000D01*
X119570476Y-1021920476D01*
X119570476Y-1022015714D01*
X119475238Y-1022206190D01*
X119380000Y-1022301428D01*
X118808571Y-1022682380D01*
X118713333Y-1022777619D01*
X118618095Y-1022968095D01*
X118618095Y-1023253809D01*
X118713333Y-1023444285D01*
X118808571Y-1023539523D01*
X118999047Y-1023634761D01*
X119284761Y-1023634761D01*
X119475238Y-1023539523D01*
X119570476Y-1023444285D01*
X119856190Y-1023063333D01*
X119951428Y-1022777619D01*
X119951428Y-1022587142D01*
X120999047Y-1021825238D02*
X121094285Y-1021730000D01*
X121284761Y-1021634761D01*
X121760952Y-1021634761D01*
X121951428Y-1021730000D01*
X122046666Y-1021825238D01*
X122141904Y-1022015714D01*
X122141904Y-1022206190D01*
X122046666Y-1022491904D01*
X120903809Y-1023634761D01*
X122141904Y-1023634761D01*
X122808571Y-1024396666D02*
X122903809Y-1024301428D01*
X123094285Y-1024015714D01*
X123189523Y-1023825238D01*
X123284761Y-1023539523D01*
X123380000Y-1023063333D01*
X123380000Y-1022682380D01*
X123284761Y-1022206190D01*
X123189523Y-1021920476D01*
X123094285Y-1021730000D01*
X122903809Y-1021444285D01*
X122808571Y-1021349047D01*
X116618095Y-1003824761D02*
X116618095Y-1001824761D01*
X118427619Y-1002491428D02*
X118427619Y-1004110476D01*
X118332380Y-1004300952D01*
X118237142Y-1004396190D01*
X118046666Y-1004491428D01*
X117760952Y-1004491428D01*
X117570476Y-1004396190D01*
X118427619Y-1003729523D02*
X118237142Y-1003824761D01*
X117856190Y-1003824761D01*
X117665714Y-1003729523D01*
X117570476Y-1003634285D01*
X117475238Y-1003443809D01*
X117475238Y-1002872380D01*
X117570476Y-1002681904D01*
X117665714Y-1002586666D01*
X117856190Y-1002491428D01*
X118237142Y-1002491428D01*
X118427619Y-1002586666D01*
X119380000Y-1002491428D02*
X119380000Y-1003824761D01*
X119380000Y-1002681904D02*
X119475238Y-1002586666D01*
X119665714Y-1002491428D01*
X119951428Y-1002491428D01*
X120141904Y-1002586666D01*
X120237142Y-1002777142D01*
X120237142Y-1003824761D01*
X122046666Y-1002491428D02*
X122046666Y-1003824761D01*
X121570476Y-1001729523D02*
X121094285Y-1003158095D01*
X122332380Y-1003158095D01*
X115951428Y-1007886666D02*
X115856190Y-1007791428D01*
X115665714Y-1007505714D01*
X115570476Y-1007315238D01*
X115475238Y-1007029523D01*
X115380000Y-1006553333D01*
X115380000Y-1006172380D01*
X115475238Y-1005696190D01*
X115570476Y-1005410476D01*
X115665714Y-1005220000D01*
X115856190Y-1004934285D01*
X115951428Y-1004839047D01*
X117570476Y-1005791428D02*
X117570476Y-1007124761D01*
X117094285Y-1005029523D02*
X116618095Y-1006458095D01*
X117856190Y-1006458095D01*
X120237142Y-1007124761D02*
X120141904Y-1007124761D01*
X119951428Y-1007029523D01*
X119665714Y-1006743809D01*
X119189523Y-1006172380D01*
X118999047Y-1005886666D01*
X118903809Y-1005600952D01*
X118903809Y-1005410476D01*
X118999047Y-1005220000D01*
X119189523Y-1005124761D01*
X119284761Y-1005124761D01*
X119475238Y-1005220000D01*
X119570476Y-1005410476D01*
X119570476Y-1005505714D01*
X119475238Y-1005696190D01*
X119380000Y-1005791428D01*
X118808571Y-1006172380D01*
X118713333Y-1006267619D01*
X118618095Y-1006458095D01*
X118618095Y-1006743809D01*
X118713333Y-1006934285D01*
X118808571Y-1007029523D01*
X118999047Y-1007124761D01*
X119284761Y-1007124761D01*
X119475238Y-1007029523D01*
X119570476Y-1006934285D01*
X119856190Y-1006553333D01*
X119951428Y-1006267619D01*
X119951428Y-1006077142D01*
X120903809Y-1005124761D02*
X122237142Y-1005124761D01*
X121380000Y-1007124761D01*
X122808571Y-1007886666D02*
X122903809Y-1007791428D01*
X123094285Y-1007505714D01*
X123189523Y-1007315238D01*
X123284761Y-1007029523D01*
X123380000Y-1006553333D01*
X123380000Y-1006172380D01*
X123284761Y-1005696190D01*
X123189523Y-1005410476D01*
X123094285Y-1005220000D01*
X122903809Y-1004934285D01*
X122808571Y-1004839047D01*
X116618095Y-988584761D02*
X116618095Y-986584761D01*
X118427619Y-987251428D02*
X118427619Y-988870476D01*
X118332380Y-989060952D01*
X118237142Y-989156190D01*
X118046666Y-989251428D01*
X117760952Y-989251428D01*
X117570476Y-989156190D01*
X118427619Y-988489523D02*
X118237142Y-988584761D01*
X117856190Y-988584761D01*
X117665714Y-988489523D01*
X117570476Y-988394285D01*
X117475238Y-988203809D01*
X117475238Y-987632380D01*
X117570476Y-987441904D01*
X117665714Y-987346666D01*
X117856190Y-987251428D01*
X118237142Y-987251428D01*
X118427619Y-987346666D01*
X119380000Y-987251428D02*
X119380000Y-988584761D01*
X119380000Y-987441904D02*
X119475238Y-987346666D01*
X119665714Y-987251428D01*
X119951428Y-987251428D01*
X120141904Y-987346666D01*
X120237142Y-987537142D01*
X120237142Y-988584761D01*
X120999047Y-986584761D02*
X122237142Y-986584761D01*
X121570476Y-987346666D01*
X121856190Y-987346666D01*
X122046666Y-987441904D01*
X122141904Y-987537142D01*
X122237142Y-987727619D01*
X122237142Y-988203809D01*
X122141904Y-988394285D01*
X122046666Y-988489523D01*
X121856190Y-988584761D01*
X121284761Y-988584761D01*
X121094285Y-988489523D01*
X120999047Y-988394285D01*
X115951428Y-992646666D02*
X115856190Y-992551428D01*
X115665714Y-992265714D01*
X115570476Y-992075238D01*
X115475238Y-991789523D01*
X115380000Y-991313333D01*
X115380000Y-990932380D01*
X115475238Y-990456190D01*
X115570476Y-990170476D01*
X115665714Y-989980000D01*
X115856190Y-989694285D01*
X115951428Y-989599047D01*
X116808571Y-991884761D02*
X117189523Y-991884761D01*
X117380000Y-991789523D01*
X117475238Y-991694285D01*
X117665714Y-991408571D01*
X117760952Y-991027619D01*
X117760952Y-990265714D01*
X117665714Y-990075238D01*
X117570476Y-989980000D01*
X117380000Y-989884761D01*
X116999047Y-989884761D01*
X116808571Y-989980000D01*
X116713333Y-990075238D01*
X116618095Y-990265714D01*
X116618095Y-990741904D01*
X116713333Y-990932380D01*
X116808571Y-991027619D01*
X116999047Y-991122857D01*
X117380000Y-991122857D01*
X117570476Y-991027619D01*
X117665714Y-990932380D01*
X117760952Y-990741904D01*
X120237142Y-991884761D02*
X120141904Y-991884761D01*
X119951428Y-991789523D01*
X119665714Y-991503809D01*
X119189523Y-990932380D01*
X118999047Y-990646666D01*
X118903809Y-990360952D01*
X118903809Y-990170476D01*
X118999047Y-989980000D01*
X119189523Y-989884761D01*
X119284761Y-989884761D01*
X119475238Y-989980000D01*
X119570476Y-990170476D01*
X119570476Y-990265714D01*
X119475238Y-990456190D01*
X119380000Y-990551428D01*
X118808571Y-990932380D01*
X118713333Y-991027619D01*
X118618095Y-991218095D01*
X118618095Y-991503809D01*
X118713333Y-991694285D01*
X118808571Y-991789523D01*
X118999047Y-991884761D01*
X119284761Y-991884761D01*
X119475238Y-991789523D01*
X119570476Y-991694285D01*
X119856190Y-991313333D01*
X119951428Y-991027619D01*
X119951428Y-990837142D01*
X121380000Y-990741904D02*
X121189523Y-990646666D01*
X121094285Y-990551428D01*
X120999047Y-990360952D01*
X120999047Y-990265714D01*
X121094285Y-990075238D01*
X121189523Y-989980000D01*
X121380000Y-989884761D01*
X121760952Y-989884761D01*
X121951428Y-989980000D01*
X122046666Y-990075238D01*
X122141904Y-990265714D01*
X122141904Y-990360952D01*
X122046666Y-990551428D01*
X121951428Y-990646666D01*
X121760952Y-990741904D01*
X121380000Y-990741904D01*
X121189523Y-990837142D01*
X121094285Y-990932380D01*
X120999047Y-991122857D01*
X120999047Y-991503809D01*
X121094285Y-991694285D01*
X121189523Y-991789523D01*
X121380000Y-991884761D01*
X121760952Y-991884761D01*
X121951428Y-991789523D01*
X122046666Y-991694285D01*
X122141904Y-991503809D01*
X122141904Y-991122857D01*
X122046666Y-990932380D01*
X121951428Y-990837142D01*
X121760952Y-990741904D01*
X122808571Y-992646666D02*
X122903809Y-992551428D01*
X123094285Y-992265714D01*
X123189523Y-992075238D01*
X123284761Y-991789523D01*
X123380000Y-991313333D01*
X123380000Y-990932380D01*
X123284761Y-990456190D01*
X123189523Y-990170476D01*
X123094285Y-989980000D01*
X122903809Y-989694285D01*
X122808571Y-989599047D01*
X116618095Y-958104761D02*
X116618095Y-956104761D01*
X118427619Y-956771428D02*
X118427619Y-958390476D01*
X118332380Y-958580952D01*
X118237142Y-958676190D01*
X118046666Y-958771428D01*
X117760952Y-958771428D01*
X117570476Y-958676190D01*
X118427619Y-958009523D02*
X118237142Y-958104761D01*
X117856190Y-958104761D01*
X117665714Y-958009523D01*
X117570476Y-957914285D01*
X117475238Y-957723809D01*
X117475238Y-957152380D01*
X117570476Y-956961904D01*
X117665714Y-956866666D01*
X117856190Y-956771428D01*
X118237142Y-956771428D01*
X118427619Y-956866666D01*
X119380000Y-956771428D02*
X119380000Y-958104761D01*
X119380000Y-956961904D02*
X119475238Y-956866666D01*
X119665714Y-956771428D01*
X119951428Y-956771428D01*
X120141904Y-956866666D01*
X120237142Y-957057142D01*
X120237142Y-958104761D01*
X122237142Y-958104761D02*
X121094285Y-958104761D01*
X121665714Y-958104761D02*
X121665714Y-956104761D01*
X121475238Y-956390476D01*
X121284761Y-956580952D01*
X121094285Y-956676190D01*
X115951428Y-962166666D02*
X115856190Y-962071428D01*
X115665714Y-961785714D01*
X115570476Y-961595238D01*
X115475238Y-961309523D01*
X115380000Y-960833333D01*
X115380000Y-960452380D01*
X115475238Y-959976190D01*
X115570476Y-959690476D01*
X115665714Y-959500000D01*
X115856190Y-959214285D01*
X115951428Y-959119047D01*
X117760952Y-961404761D02*
X116618095Y-961404761D01*
X117189523Y-961404761D02*
X117189523Y-959404761D01*
X116999047Y-959690476D01*
X116808571Y-959880952D01*
X116618095Y-959976190D01*
X120237142Y-961404761D02*
X120141904Y-961404761D01*
X119951428Y-961309523D01*
X119665714Y-961023809D01*
X119189523Y-960452380D01*
X118999047Y-960166666D01*
X118903809Y-959880952D01*
X118903809Y-959690476D01*
X118999047Y-959500000D01*
X119189523Y-959404761D01*
X119284761Y-959404761D01*
X119475238Y-959500000D01*
X119570476Y-959690476D01*
X119570476Y-959785714D01*
X119475238Y-959976190D01*
X119380000Y-960071428D01*
X118808571Y-960452380D01*
X118713333Y-960547619D01*
X118618095Y-960738095D01*
X118618095Y-961023809D01*
X118713333Y-961214285D01*
X118808571Y-961309523D01*
X118999047Y-961404761D01*
X119284761Y-961404761D01*
X119475238Y-961309523D01*
X119570476Y-961214285D01*
X119856190Y-960833333D01*
X119951428Y-960547619D01*
X119951428Y-960357142D01*
X121951428Y-959404761D02*
X121570476Y-959404761D01*
X121380000Y-959500000D01*
X121284761Y-959595238D01*
X121094285Y-959880952D01*
X120999047Y-960261904D01*
X120999047Y-961023809D01*
X121094285Y-961214285D01*
X121189523Y-961309523D01*
X121380000Y-961404761D01*
X121760952Y-961404761D01*
X121951428Y-961309523D01*
X122046666Y-961214285D01*
X122141904Y-961023809D01*
X122141904Y-960547619D01*
X122046666Y-960357142D01*
X121951428Y-960261904D01*
X121760952Y-960166666D01*
X121380000Y-960166666D01*
X121189523Y-960261904D01*
X121094285Y-960357142D01*
X120999047Y-960547619D01*
X122808571Y-962166666D02*
X122903809Y-962071428D01*
X123094285Y-961785714D01*
X123189523Y-961595238D01*
X123284761Y-961309523D01*
X123380000Y-960833333D01*
X123380000Y-960452380D01*
X123284761Y-959976190D01*
X123189523Y-959690476D01*
X123094285Y-959500000D01*
X122903809Y-959214285D01*
X122808571Y-959119047D01*
D12*
%TO.C,D1*%
X110524000Y-960410000D02*
X110680000Y-960410000D01*
X112840000Y-960410000D02*
X112996000Y-960410000D01*
X112839837Y-957808870D02*
G75*
G02*
X112840000Y-959890961I-1079837J-1041130D01*
G01*
X110680163Y-957808870D02*
G75*
G03*
X110680000Y-959890961I1079837J-1041130D01*
G01*
X112838608Y-957177665D02*
G75*
G02*
X112995516Y-960410000I-1078608J-1672335D01*
G01*
X110681392Y-957177665D02*
G75*
G03*
X110524484Y-960410000I1078608J-1672335D01*
G01*
%TO.C,D2*%
X110524000Y-975650000D02*
X110680000Y-975650000D01*
X112840000Y-975650000D02*
X112996000Y-975650000D01*
X112839837Y-973048870D02*
G75*
G02*
X112840000Y-975130961I-1079837J-1041130D01*
G01*
X110680163Y-973048870D02*
G75*
G03*
X110680000Y-975130961I1079837J-1041130D01*
G01*
X112838608Y-972417665D02*
G75*
G02*
X112995516Y-975650000I-1078608J-1672335D01*
G01*
X110681392Y-972417665D02*
G75*
G03*
X110524484Y-975650000I1078608J-1672335D01*
G01*
%TO.C,D3*%
X112840000Y-990890000D02*
X112996000Y-990890000D01*
X110524000Y-990890000D02*
X110680000Y-990890000D01*
X110681392Y-987657665D02*
G75*
G03*
X110524484Y-990890000I1078608J-1672335D01*
G01*
X112838608Y-987657665D02*
G75*
G02*
X112995516Y-990890000I-1078608J-1672335D01*
G01*
X110680163Y-988288870D02*
G75*
G03*
X110680000Y-990370961I1079837J-1041130D01*
G01*
X112839837Y-988288870D02*
G75*
G02*
X112840000Y-990370961I-1079837J-1041130D01*
G01*
%TO.C,D4*%
X110524000Y-1006130000D02*
X110680000Y-1006130000D01*
X112840000Y-1006130000D02*
X112996000Y-1006130000D01*
X112839837Y-1003528870D02*
G75*
G02*
X112840000Y-1005610961I-1079837J-1041130D01*
G01*
X110680163Y-1003528870D02*
G75*
G03*
X110680000Y-1005610961I1079837J-1041130D01*
G01*
X112838608Y-1002897665D02*
G75*
G02*
X112995516Y-1006130000I-1078608J-1672335D01*
G01*
X110681392Y-1002897665D02*
G75*
G03*
X110524484Y-1006130000I1078608J-1672335D01*
G01*
%TO.C,D5*%
X112840000Y-1022640000D02*
X112996000Y-1022640000D01*
X110524000Y-1022640000D02*
X110680000Y-1022640000D01*
X110681392Y-1019407665D02*
G75*
G03*
X110524484Y-1022640000I1078608J-1672335D01*
G01*
X112838608Y-1019407665D02*
G75*
G02*
X112995516Y-1022640000I-1078608J-1672335D01*
G01*
X110680163Y-1020038870D02*
G75*
G03*
X110680000Y-1022120961I1079837J-1041130D01*
G01*
X112839837Y-1020038870D02*
G75*
G02*
X112840000Y-1022120961I-1079837J-1041130D01*
G01*
%TO.C,D6*%
X140780000Y-960410000D02*
X140936000Y-960410000D01*
X138464000Y-960410000D02*
X138620000Y-960410000D01*
X138621392Y-957177665D02*
G75*
G03*
X138464484Y-960410000I1078608J-1672335D01*
G01*
X140778608Y-957177665D02*
G75*
G02*
X140935516Y-960410000I-1078608J-1672335D01*
G01*
X138620163Y-957808870D02*
G75*
G03*
X138620000Y-959890961I1079837J-1041130D01*
G01*
X140779837Y-957808870D02*
G75*
G02*
X140780000Y-959890961I-1079837J-1041130D01*
G01*
%TO.C,D7*%
X138464000Y-975650000D02*
X138620000Y-975650000D01*
X140780000Y-975650000D02*
X140936000Y-975650000D01*
X140779837Y-973048870D02*
G75*
G02*
X140780000Y-975130961I-1079837J-1041130D01*
G01*
X138620163Y-973048870D02*
G75*
G03*
X138620000Y-975130961I1079837J-1041130D01*
G01*
X140778608Y-972417665D02*
G75*
G02*
X140935516Y-975650000I-1078608J-1672335D01*
G01*
X138621392Y-972417665D02*
G75*
G03*
X138464484Y-975650000I1078608J-1672335D01*
G01*
%TO.C,D8*%
X140780000Y-990890000D02*
X140936000Y-990890000D01*
X138464000Y-990890000D02*
X138620000Y-990890000D01*
X138621392Y-987657665D02*
G75*
G03*
X138464484Y-990890000I1078608J-1672335D01*
G01*
X140778608Y-987657665D02*
G75*
G02*
X140935516Y-990890000I-1078608J-1672335D01*
G01*
X138620163Y-988288870D02*
G75*
G03*
X138620000Y-990370961I1079837J-1041130D01*
G01*
X140779837Y-988288870D02*
G75*
G02*
X140780000Y-990370961I-1079837J-1041130D01*
G01*
%TO.C,D9*%
X138464000Y-1006130000D02*
X138620000Y-1006130000D01*
X140780000Y-1006130000D02*
X140936000Y-1006130000D01*
X140779837Y-1003528870D02*
G75*
G02*
X140780000Y-1005610961I-1079837J-1041130D01*
G01*
X138620163Y-1003528870D02*
G75*
G03*
X138620000Y-1005610961I1079837J-1041130D01*
G01*
X140778608Y-1002897665D02*
G75*
G02*
X140935516Y-1006130000I-1078608J-1672335D01*
G01*
X138621392Y-1002897665D02*
G75*
G03*
X138464484Y-1006130000I1078608J-1672335D01*
G01*
%TO.C,D10*%
X140780000Y-1022640000D02*
X140936000Y-1022640000D01*
X138464000Y-1022640000D02*
X138620000Y-1022640000D01*
X138621392Y-1019407665D02*
G75*
G03*
X138464484Y-1022640000I1078608J-1672335D01*
G01*
X140778608Y-1019407665D02*
G75*
G02*
X140935516Y-1022640000I-1078608J-1672335D01*
G01*
X138620163Y-1020038870D02*
G75*
G03*
X138620000Y-1022120961I1079837J-1041130D01*
G01*
X140779837Y-1020038870D02*
G75*
G02*
X140780000Y-1022120961I-1079837J-1041130D01*
G01*
%TO.C,J1*%
X95250000Y-1017270000D02*
X95250000Y-1013460000D01*
X87630000Y-1017270000D02*
X95250000Y-1017270000D01*
X87630000Y-1013460000D02*
X87630000Y-1017270000D01*
X95250000Y-996950000D02*
X95250000Y-1000760000D01*
X87630000Y-996950000D02*
X95250000Y-996950000D01*
X87630000Y-1000760000D02*
X87630000Y-996950000D01*
X95250000Y-1000760000D02*
X95250000Y-1013460000D01*
X87630000Y-1013460000D02*
X87630000Y-1000760000D01*
%TO.C,J2*%
X87630000Y-968400400D02*
X95250000Y-968400400D01*
X87630000Y-976020400D02*
X87630000Y-968400400D01*
X95250000Y-976020400D02*
X87630000Y-976020400D01*
X95250000Y-968400400D02*
X95250000Y-976020400D01*
%TO.C,J3*%
X95250000Y-980440000D02*
X95250000Y-993140000D01*
X87630000Y-993140000D02*
X87630000Y-980440000D01*
X95250000Y-993140000D02*
X95250000Y-996950000D01*
X95250000Y-996950000D02*
X87630000Y-996950000D01*
X87630000Y-996950000D02*
X87630000Y-993140000D01*
X95250000Y-980440000D02*
X95250000Y-976630000D01*
X95250000Y-976630000D02*
X87630000Y-976630000D01*
X87630000Y-976630000D02*
X87630000Y-980440000D01*
%TO.C,R1*%
X105410000Y-958620000D02*
X105410000Y-959390000D01*
X105410000Y-966700000D02*
X105410000Y-965930000D01*
X104040000Y-959390000D02*
X104040000Y-965930000D01*
X106780000Y-959390000D02*
X104040000Y-959390000D01*
X106780000Y-965930000D02*
X106780000Y-959390000D01*
X104040000Y-965930000D02*
X106780000Y-965930000D01*
%TO.C,R2*%
X104040000Y-981170000D02*
X106780000Y-981170000D01*
X106780000Y-981170000D02*
X106780000Y-974630000D01*
X106780000Y-974630000D02*
X104040000Y-974630000D01*
X104040000Y-974630000D02*
X104040000Y-981170000D01*
X105410000Y-981940000D02*
X105410000Y-981170000D01*
X105410000Y-973860000D02*
X105410000Y-974630000D01*
%TO.C,R3*%
X105410000Y-989100000D02*
X105410000Y-989870000D01*
X105410000Y-997180000D02*
X105410000Y-996410000D01*
X104040000Y-989870000D02*
X104040000Y-996410000D01*
X106780000Y-989870000D02*
X104040000Y-989870000D01*
X106780000Y-996410000D02*
X106780000Y-989870000D01*
X104040000Y-996410000D02*
X106780000Y-996410000D01*
%TO.C,R4*%
X104040000Y-1011650000D02*
X106780000Y-1011650000D01*
X106780000Y-1011650000D02*
X106780000Y-1005110000D01*
X106780000Y-1005110000D02*
X104040000Y-1005110000D01*
X104040000Y-1005110000D02*
X104040000Y-1011650000D01*
X105410000Y-1012420000D02*
X105410000Y-1011650000D01*
X105410000Y-1004340000D02*
X105410000Y-1005110000D01*
%TO.C,R5*%
X105410000Y-1020850000D02*
X105410000Y-1021620000D01*
X105410000Y-1028930000D02*
X105410000Y-1028160000D01*
X104040000Y-1021620000D02*
X104040000Y-1028160000D01*
X106780000Y-1021620000D02*
X104040000Y-1021620000D01*
X106780000Y-1028160000D02*
X106780000Y-1021620000D01*
X104040000Y-1028160000D02*
X106780000Y-1028160000D01*
%TO.C,R6*%
X147420000Y-959390000D02*
X144680000Y-959390000D01*
X144680000Y-959390000D02*
X144680000Y-965930000D01*
X144680000Y-965930000D02*
X147420000Y-965930000D01*
X147420000Y-965930000D02*
X147420000Y-959390000D01*
X146050000Y-958620000D02*
X146050000Y-959390000D01*
X146050000Y-966700000D02*
X146050000Y-965930000D01*
%TO.C,R7*%
X146050000Y-981940000D02*
X146050000Y-981170000D01*
X146050000Y-973860000D02*
X146050000Y-974630000D01*
X147420000Y-981170000D02*
X147420000Y-974630000D01*
X144680000Y-981170000D02*
X147420000Y-981170000D01*
X144680000Y-974630000D02*
X144680000Y-981170000D01*
X147420000Y-974630000D02*
X144680000Y-974630000D01*
%TO.C,R8*%
X147420000Y-989870000D02*
X144680000Y-989870000D01*
X144680000Y-989870000D02*
X144680000Y-996410000D01*
X144680000Y-996410000D02*
X147420000Y-996410000D01*
X147420000Y-996410000D02*
X147420000Y-989870000D01*
X146050000Y-989100000D02*
X146050000Y-989870000D01*
X146050000Y-997180000D02*
X146050000Y-996410000D01*
%TO.C,R9*%
X146050000Y-1012420000D02*
X146050000Y-1011650000D01*
X146050000Y-1004340000D02*
X146050000Y-1005110000D01*
X147420000Y-1011650000D02*
X147420000Y-1005110000D01*
X144680000Y-1011650000D02*
X147420000Y-1011650000D01*
X144680000Y-1005110000D02*
X144680000Y-1011650000D01*
X147420000Y-1005110000D02*
X144680000Y-1005110000D01*
%TO.C,R10*%
X147420000Y-1021620000D02*
X144680000Y-1021620000D01*
X144680000Y-1021620000D02*
X144680000Y-1028160000D01*
X144680000Y-1028160000D02*
X147420000Y-1028160000D01*
X147420000Y-1028160000D02*
X147420000Y-1021620000D01*
X146050000Y-1020850000D02*
X146050000Y-1021620000D01*
X146050000Y-1028930000D02*
X146050000Y-1028160000D01*
%TO.C,D1*%
D10*
X111021904Y-955492380D02*
X111021904Y-954492380D01*
X111260000Y-954492380D01*
X111402857Y-954540000D01*
X111498095Y-954635238D01*
X111545714Y-954730476D01*
X111593333Y-954920952D01*
X111593333Y-955063809D01*
X111545714Y-955254285D01*
X111498095Y-955349523D01*
X111402857Y-955444761D01*
X111260000Y-955492380D01*
X111021904Y-955492380D01*
X112545714Y-955492380D02*
X111974285Y-955492380D01*
X112260000Y-955492380D02*
X112260000Y-954492380D01*
X112164761Y-954635238D01*
X112069523Y-954730476D01*
X111974285Y-954778095D01*
X110897142Y-962852380D02*
X110420952Y-962852380D01*
X110420952Y-961852380D01*
X111230476Y-962328571D02*
X111563809Y-962328571D01*
X111706666Y-962852380D02*
X111230476Y-962852380D01*
X111230476Y-961852380D01*
X111706666Y-961852380D01*
X112135238Y-962852380D02*
X112135238Y-961852380D01*
X112373333Y-961852380D01*
X112516190Y-961900000D01*
X112611428Y-961995238D01*
X112659047Y-962090476D01*
X112706666Y-962280952D01*
X112706666Y-962423809D01*
X112659047Y-962614285D01*
X112611428Y-962709523D01*
X112516190Y-962804761D01*
X112373333Y-962852380D01*
X112135238Y-962852380D01*
%TO.C,D2*%
X111021904Y-970732380D02*
X111021904Y-969732380D01*
X111260000Y-969732380D01*
X111402857Y-969780000D01*
X111498095Y-969875238D01*
X111545714Y-969970476D01*
X111593333Y-970160952D01*
X111593333Y-970303809D01*
X111545714Y-970494285D01*
X111498095Y-970589523D01*
X111402857Y-970684761D01*
X111260000Y-970732380D01*
X111021904Y-970732380D01*
X111974285Y-969827619D02*
X112021904Y-969780000D01*
X112117142Y-969732380D01*
X112355238Y-969732380D01*
X112450476Y-969780000D01*
X112498095Y-969827619D01*
X112545714Y-969922857D01*
X112545714Y-970018095D01*
X112498095Y-970160952D01*
X111926666Y-970732380D01*
X112545714Y-970732380D01*
X111007142Y-978132380D02*
X110530952Y-978132380D01*
X110530952Y-977132380D01*
X111340476Y-977608571D02*
X111673809Y-977608571D01*
X111816666Y-978132380D02*
X111340476Y-978132380D01*
X111340476Y-977132380D01*
X111816666Y-977132380D01*
X112245238Y-978132380D02*
X112245238Y-977132380D01*
X112483333Y-977132380D01*
X112626190Y-977180000D01*
X112721428Y-977275238D01*
X112769047Y-977370476D01*
X112816666Y-977560952D01*
X112816666Y-977703809D01*
X112769047Y-977894285D01*
X112721428Y-977989523D01*
X112626190Y-978084761D01*
X112483333Y-978132380D01*
X112245238Y-978132380D01*
%TO.C,D3*%
X111021904Y-985972380D02*
X111021904Y-984972380D01*
X111260000Y-984972380D01*
X111402857Y-985020000D01*
X111498095Y-985115238D01*
X111545714Y-985210476D01*
X111593333Y-985400952D01*
X111593333Y-985543809D01*
X111545714Y-985734285D01*
X111498095Y-985829523D01*
X111402857Y-985924761D01*
X111260000Y-985972380D01*
X111021904Y-985972380D01*
X111926666Y-984972380D02*
X112545714Y-984972380D01*
X112212380Y-985353333D01*
X112355238Y-985353333D01*
X112450476Y-985400952D01*
X112498095Y-985448571D01*
X112545714Y-985543809D01*
X112545714Y-985781904D01*
X112498095Y-985877142D01*
X112450476Y-985924761D01*
X112355238Y-985972380D01*
X112069523Y-985972380D01*
X111974285Y-985924761D01*
X111926666Y-985877142D01*
X110947142Y-993572380D02*
X110470952Y-993572380D01*
X110470952Y-992572380D01*
X111280476Y-993048571D02*
X111613809Y-993048571D01*
X111756666Y-993572380D02*
X111280476Y-993572380D01*
X111280476Y-992572380D01*
X111756666Y-992572380D01*
X112185238Y-993572380D02*
X112185238Y-992572380D01*
X112423333Y-992572380D01*
X112566190Y-992620000D01*
X112661428Y-992715238D01*
X112709047Y-992810476D01*
X112756666Y-993000952D01*
X112756666Y-993143809D01*
X112709047Y-993334285D01*
X112661428Y-993429523D01*
X112566190Y-993524761D01*
X112423333Y-993572380D01*
X112185238Y-993572380D01*
%TO.C,D4*%
X111021904Y-1001212380D02*
X111021904Y-1000212380D01*
X111260000Y-1000212380D01*
X111402857Y-1000260000D01*
X111498095Y-1000355238D01*
X111545714Y-1000450476D01*
X111593333Y-1000640952D01*
X111593333Y-1000783809D01*
X111545714Y-1000974285D01*
X111498095Y-1001069523D01*
X111402857Y-1001164761D01*
X111260000Y-1001212380D01*
X111021904Y-1001212380D01*
X112450476Y-1000545714D02*
X112450476Y-1001212380D01*
X112212380Y-1000164761D02*
X111974285Y-1000879047D01*
X112593333Y-1000879047D01*
X110897142Y-1008662380D02*
X110420952Y-1008662380D01*
X110420952Y-1007662380D01*
X111230476Y-1008138571D02*
X111563809Y-1008138571D01*
X111706666Y-1008662380D02*
X111230476Y-1008662380D01*
X111230476Y-1007662380D01*
X111706666Y-1007662380D01*
X112135238Y-1008662380D02*
X112135238Y-1007662380D01*
X112373333Y-1007662380D01*
X112516190Y-1007710000D01*
X112611428Y-1007805238D01*
X112659047Y-1007900476D01*
X112706666Y-1008090952D01*
X112706666Y-1008233809D01*
X112659047Y-1008424285D01*
X112611428Y-1008519523D01*
X112516190Y-1008614761D01*
X112373333Y-1008662380D01*
X112135238Y-1008662380D01*
%TO.C,D5*%
X111021904Y-1017722380D02*
X111021904Y-1016722380D01*
X111260000Y-1016722380D01*
X111402857Y-1016770000D01*
X111498095Y-1016865238D01*
X111545714Y-1016960476D01*
X111593333Y-1017150952D01*
X111593333Y-1017293809D01*
X111545714Y-1017484285D01*
X111498095Y-1017579523D01*
X111402857Y-1017674761D01*
X111260000Y-1017722380D01*
X111021904Y-1017722380D01*
X112498095Y-1016722380D02*
X112021904Y-1016722380D01*
X111974285Y-1017198571D01*
X112021904Y-1017150952D01*
X112117142Y-1017103333D01*
X112355238Y-1017103333D01*
X112450476Y-1017150952D01*
X112498095Y-1017198571D01*
X112545714Y-1017293809D01*
X112545714Y-1017531904D01*
X112498095Y-1017627142D01*
X112450476Y-1017674761D01*
X112355238Y-1017722380D01*
X112117142Y-1017722380D01*
X112021904Y-1017674761D01*
X111974285Y-1017627142D01*
X111057142Y-1025212380D02*
X110580952Y-1025212380D01*
X110580952Y-1024212380D01*
X111390476Y-1024688571D02*
X111723809Y-1024688571D01*
X111866666Y-1025212380D02*
X111390476Y-1025212380D01*
X111390476Y-1024212380D01*
X111866666Y-1024212380D01*
X112295238Y-1025212380D02*
X112295238Y-1024212380D01*
X112533333Y-1024212380D01*
X112676190Y-1024260000D01*
X112771428Y-1024355238D01*
X112819047Y-1024450476D01*
X112866666Y-1024640952D01*
X112866666Y-1024783809D01*
X112819047Y-1024974285D01*
X112771428Y-1025069523D01*
X112676190Y-1025164761D01*
X112533333Y-1025212380D01*
X112295238Y-1025212380D01*
%TO.C,D6*%
X138961904Y-955492380D02*
X138961904Y-954492380D01*
X139200000Y-954492380D01*
X139342857Y-954540000D01*
X139438095Y-954635238D01*
X139485714Y-954730476D01*
X139533333Y-954920952D01*
X139533333Y-955063809D01*
X139485714Y-955254285D01*
X139438095Y-955349523D01*
X139342857Y-955444761D01*
X139200000Y-955492380D01*
X138961904Y-955492380D01*
X140390476Y-954492380D02*
X140200000Y-954492380D01*
X140104761Y-954540000D01*
X140057142Y-954587619D01*
X139961904Y-954730476D01*
X139914285Y-954920952D01*
X139914285Y-955301904D01*
X139961904Y-955397142D01*
X140009523Y-955444761D01*
X140104761Y-955492380D01*
X140295238Y-955492380D01*
X140390476Y-955444761D01*
X140438095Y-955397142D01*
X140485714Y-955301904D01*
X140485714Y-955063809D01*
X140438095Y-954968571D01*
X140390476Y-954920952D01*
X140295238Y-954873333D01*
X140104761Y-954873333D01*
X140009523Y-954920952D01*
X139961904Y-954968571D01*
X139914285Y-955063809D01*
X138867142Y-962902380D02*
X138390952Y-962902380D01*
X138390952Y-961902380D01*
X139200476Y-962378571D02*
X139533809Y-962378571D01*
X139676666Y-962902380D02*
X139200476Y-962902380D01*
X139200476Y-961902380D01*
X139676666Y-961902380D01*
X140105238Y-962902380D02*
X140105238Y-961902380D01*
X140343333Y-961902380D01*
X140486190Y-961950000D01*
X140581428Y-962045238D01*
X140629047Y-962140476D01*
X140676666Y-962330952D01*
X140676666Y-962473809D01*
X140629047Y-962664285D01*
X140581428Y-962759523D01*
X140486190Y-962854761D01*
X140343333Y-962902380D01*
X140105238Y-962902380D01*
%TO.C,D7*%
X138961904Y-970732380D02*
X138961904Y-969732380D01*
X139200000Y-969732380D01*
X139342857Y-969780000D01*
X139438095Y-969875238D01*
X139485714Y-969970476D01*
X139533333Y-970160952D01*
X139533333Y-970303809D01*
X139485714Y-970494285D01*
X139438095Y-970589523D01*
X139342857Y-970684761D01*
X139200000Y-970732380D01*
X138961904Y-970732380D01*
X139866666Y-969732380D02*
X140533333Y-969732380D01*
X140104761Y-970732380D01*
X138917142Y-978132380D02*
X138440952Y-978132380D01*
X138440952Y-977132380D01*
X139250476Y-977608571D02*
X139583809Y-977608571D01*
X139726666Y-978132380D02*
X139250476Y-978132380D01*
X139250476Y-977132380D01*
X139726666Y-977132380D01*
X140155238Y-978132380D02*
X140155238Y-977132380D01*
X140393333Y-977132380D01*
X140536190Y-977180000D01*
X140631428Y-977275238D01*
X140679047Y-977370476D01*
X140726666Y-977560952D01*
X140726666Y-977703809D01*
X140679047Y-977894285D01*
X140631428Y-977989523D01*
X140536190Y-978084761D01*
X140393333Y-978132380D01*
X140155238Y-978132380D01*
%TO.C,D8*%
X138961904Y-985972380D02*
X138961904Y-984972380D01*
X139200000Y-984972380D01*
X139342857Y-985020000D01*
X139438095Y-985115238D01*
X139485714Y-985210476D01*
X139533333Y-985400952D01*
X139533333Y-985543809D01*
X139485714Y-985734285D01*
X139438095Y-985829523D01*
X139342857Y-985924761D01*
X139200000Y-985972380D01*
X138961904Y-985972380D01*
X140104761Y-985400952D02*
X140009523Y-985353333D01*
X139961904Y-985305714D01*
X139914285Y-985210476D01*
X139914285Y-985162857D01*
X139961904Y-985067619D01*
X140009523Y-985020000D01*
X140104761Y-984972380D01*
X140295238Y-984972380D01*
X140390476Y-985020000D01*
X140438095Y-985067619D01*
X140485714Y-985162857D01*
X140485714Y-985210476D01*
X140438095Y-985305714D01*
X140390476Y-985353333D01*
X140295238Y-985400952D01*
X140104761Y-985400952D01*
X140009523Y-985448571D01*
X139961904Y-985496190D01*
X139914285Y-985591428D01*
X139914285Y-985781904D01*
X139961904Y-985877142D01*
X140009523Y-985924761D01*
X140104761Y-985972380D01*
X140295238Y-985972380D01*
X140390476Y-985924761D01*
X140438095Y-985877142D01*
X140485714Y-985781904D01*
X140485714Y-985591428D01*
X140438095Y-985496190D01*
X140390476Y-985448571D01*
X140295238Y-985400952D01*
X139117142Y-993522380D02*
X138640952Y-993522380D01*
X138640952Y-992522380D01*
X139450476Y-992998571D02*
X139783809Y-992998571D01*
X139926666Y-993522380D02*
X139450476Y-993522380D01*
X139450476Y-992522380D01*
X139926666Y-992522380D01*
X140355238Y-993522380D02*
X140355238Y-992522380D01*
X140593333Y-992522380D01*
X140736190Y-992570000D01*
X140831428Y-992665238D01*
X140879047Y-992760476D01*
X140926666Y-992950952D01*
X140926666Y-993093809D01*
X140879047Y-993284285D01*
X140831428Y-993379523D01*
X140736190Y-993474761D01*
X140593333Y-993522380D01*
X140355238Y-993522380D01*
%TO.C,D9*%
X138961904Y-1001212380D02*
X138961904Y-1000212380D01*
X139200000Y-1000212380D01*
X139342857Y-1000260000D01*
X139438095Y-1000355238D01*
X139485714Y-1000450476D01*
X139533333Y-1000640952D01*
X139533333Y-1000783809D01*
X139485714Y-1000974285D01*
X139438095Y-1001069523D01*
X139342857Y-1001164761D01*
X139200000Y-1001212380D01*
X138961904Y-1001212380D01*
X140009523Y-1001212380D02*
X140200000Y-1001212380D01*
X140295238Y-1001164761D01*
X140342857Y-1001117142D01*
X140438095Y-1000974285D01*
X140485714Y-1000783809D01*
X140485714Y-1000402857D01*
X140438095Y-1000307619D01*
X140390476Y-1000260000D01*
X140295238Y-1000212380D01*
X140104761Y-1000212380D01*
X140009523Y-1000260000D01*
X139961904Y-1000307619D01*
X139914285Y-1000402857D01*
X139914285Y-1000640952D01*
X139961904Y-1000736190D01*
X140009523Y-1000783809D01*
X140104761Y-1000831428D01*
X140295238Y-1000831428D01*
X140390476Y-1000783809D01*
X140438095Y-1000736190D01*
X140485714Y-1000640952D01*
X138967142Y-1008712380D02*
X138490952Y-1008712380D01*
X138490952Y-1007712380D01*
X139300476Y-1008188571D02*
X139633809Y-1008188571D01*
X139776666Y-1008712380D02*
X139300476Y-1008712380D01*
X139300476Y-1007712380D01*
X139776666Y-1007712380D01*
X140205238Y-1008712380D02*
X140205238Y-1007712380D01*
X140443333Y-1007712380D01*
X140586190Y-1007760000D01*
X140681428Y-1007855238D01*
X140729047Y-1007950476D01*
X140776666Y-1008140952D01*
X140776666Y-1008283809D01*
X140729047Y-1008474285D01*
X140681428Y-1008569523D01*
X140586190Y-1008664761D01*
X140443333Y-1008712380D01*
X140205238Y-1008712380D01*
%TO.C,D10*%
X138485714Y-1017722380D02*
X138485714Y-1016722380D01*
X138723809Y-1016722380D01*
X138866666Y-1016770000D01*
X138961904Y-1016865238D01*
X139009523Y-1016960476D01*
X139057142Y-1017150952D01*
X139057142Y-1017293809D01*
X139009523Y-1017484285D01*
X138961904Y-1017579523D01*
X138866666Y-1017674761D01*
X138723809Y-1017722380D01*
X138485714Y-1017722380D01*
X140009523Y-1017722380D02*
X139438095Y-1017722380D01*
X139723809Y-1017722380D02*
X139723809Y-1016722380D01*
X139628571Y-1016865238D01*
X139533333Y-1016960476D01*
X139438095Y-1017008095D01*
X140628571Y-1016722380D02*
X140723809Y-1016722380D01*
X140819047Y-1016770000D01*
X140866666Y-1016817619D01*
X140914285Y-1016912857D01*
X140961904Y-1017103333D01*
X140961904Y-1017341428D01*
X140914285Y-1017531904D01*
X140866666Y-1017627142D01*
X140819047Y-1017674761D01*
X140723809Y-1017722380D01*
X140628571Y-1017722380D01*
X140533333Y-1017674761D01*
X140485714Y-1017627142D01*
X140438095Y-1017531904D01*
X140390476Y-1017341428D01*
X140390476Y-1017103333D01*
X140438095Y-1016912857D01*
X140485714Y-1016817619D01*
X140533333Y-1016770000D01*
X140628571Y-1016722380D01*
X139067142Y-1025312380D02*
X138590952Y-1025312380D01*
X138590952Y-1024312380D01*
X139400476Y-1024788571D02*
X139733809Y-1024788571D01*
X139876666Y-1025312380D02*
X139400476Y-1025312380D01*
X139400476Y-1024312380D01*
X139876666Y-1024312380D01*
X140305238Y-1025312380D02*
X140305238Y-1024312380D01*
X140543333Y-1024312380D01*
X140686190Y-1024360000D01*
X140781428Y-1024455238D01*
X140829047Y-1024550476D01*
X140876666Y-1024740952D01*
X140876666Y-1024883809D01*
X140829047Y-1025074285D01*
X140781428Y-1025169523D01*
X140686190Y-1025264761D01*
X140543333Y-1025312380D01*
X140305238Y-1025312380D01*
%TO.C,J1*%
X97602380Y-1008263333D02*
X98316666Y-1008263333D01*
X98459523Y-1008310952D01*
X98554761Y-1008406190D01*
X98602380Y-1008549047D01*
X98602380Y-1008644285D01*
X98602380Y-1007263333D02*
X98602380Y-1007834761D01*
X98602380Y-1007549047D02*
X97602380Y-1007549047D01*
X97745238Y-1007644285D01*
X97840476Y-1007739523D01*
X97888095Y-1007834761D01*
X96448571Y-1011514761D02*
X96448571Y-1011181428D01*
X96972380Y-1011038571D02*
X96972380Y-1011514761D01*
X95972380Y-1011514761D01*
X95972380Y-1011038571D01*
X96448571Y-1010276666D02*
X96496190Y-1010133809D01*
X96543809Y-1010086190D01*
X96639047Y-1010038571D01*
X96781904Y-1010038571D01*
X96877142Y-1010086190D01*
X96924761Y-1010133809D01*
X96972380Y-1010229047D01*
X96972380Y-1010610000D01*
X95972380Y-1010610000D01*
X95972380Y-1010276666D01*
X96020000Y-1010181428D01*
X96067619Y-1010133809D01*
X96162857Y-1010086190D01*
X96258095Y-1010086190D01*
X96353333Y-1010133809D01*
X96400952Y-1010181428D01*
X96448571Y-1010276666D01*
X96448571Y-1010610000D01*
X95972380Y-1009705238D02*
X96972380Y-1009467142D01*
X96258095Y-1009276666D01*
X96972380Y-1009086190D01*
X95972380Y-1008848095D01*
X96686666Y-1008514761D02*
X96686666Y-1008038571D01*
X96972380Y-1008610000D02*
X95972380Y-1008276666D01*
X96972380Y-1007943333D01*
X96591428Y-1007610000D02*
X96591428Y-1006848095D01*
X95972380Y-1006181428D02*
X95972380Y-1006086190D01*
X96020000Y-1005990952D01*
X96067619Y-1005943333D01*
X96162857Y-1005895714D01*
X96353333Y-1005848095D01*
X96591428Y-1005848095D01*
X96781904Y-1005895714D01*
X96877142Y-1005943333D01*
X96924761Y-1005990952D01*
X96972380Y-1006086190D01*
X96972380Y-1006181428D01*
X96924761Y-1006276666D01*
X96877142Y-1006324285D01*
X96781904Y-1006371904D01*
X96591428Y-1006419523D01*
X96353333Y-1006419523D01*
X96162857Y-1006371904D01*
X96067619Y-1006324285D01*
X96020000Y-1006276666D01*
X95972380Y-1006181428D01*
X95972380Y-1004943333D02*
X95972380Y-1005419523D01*
X96448571Y-1005467142D01*
X96400952Y-1005419523D01*
X96353333Y-1005324285D01*
X96353333Y-1005086190D01*
X96400952Y-1004990952D01*
X96448571Y-1004943333D01*
X96543809Y-1004895714D01*
X96781904Y-1004895714D01*
X96877142Y-1004943333D01*
X96924761Y-1004990952D01*
X96972380Y-1005086190D01*
X96972380Y-1005324285D01*
X96924761Y-1005419523D01*
X96877142Y-1005467142D01*
X96591428Y-1004467142D02*
X96591428Y-1003705238D01*
X96448571Y-1002895714D02*
X96496190Y-1002752857D01*
X96543809Y-1002705238D01*
X96639047Y-1002657619D01*
X96781904Y-1002657619D01*
X96877142Y-1002705238D01*
X96924761Y-1002752857D01*
X96972380Y-1002848095D01*
X96972380Y-1003229047D01*
X95972380Y-1003229047D01*
X95972380Y-1002895714D01*
X96020000Y-1002800476D01*
X96067619Y-1002752857D01*
X96162857Y-1002705238D01*
X96258095Y-1002705238D01*
X96353333Y-1002752857D01*
X96400952Y-1002800476D01*
X96448571Y-1002895714D01*
X96448571Y-1003229047D01*
%TO.C,J2*%
X97342380Y-973053333D02*
X98056666Y-973053333D01*
X98199523Y-973100952D01*
X98294761Y-973196190D01*
X98342380Y-973339047D01*
X98342380Y-973434285D01*
X97437619Y-972624761D02*
X97390000Y-972577142D01*
X97342380Y-972481904D01*
X97342380Y-972243809D01*
X97390000Y-972148571D01*
X97437619Y-972100952D01*
X97532857Y-972053333D01*
X97628095Y-972053333D01*
X97770952Y-972100952D01*
X98342380Y-972672380D01*
X98342380Y-972053333D01*
X96148571Y-976514761D02*
X96148571Y-976181428D01*
X96672380Y-976038571D02*
X96672380Y-976514761D01*
X95672380Y-976514761D01*
X95672380Y-976038571D01*
X96148571Y-975276666D02*
X96196190Y-975133809D01*
X96243809Y-975086190D01*
X96339047Y-975038571D01*
X96481904Y-975038571D01*
X96577142Y-975086190D01*
X96624761Y-975133809D01*
X96672380Y-975229047D01*
X96672380Y-975610000D01*
X95672380Y-975610000D01*
X95672380Y-975276666D01*
X95720000Y-975181428D01*
X95767619Y-975133809D01*
X95862857Y-975086190D01*
X95958095Y-975086190D01*
X96053333Y-975133809D01*
X96100952Y-975181428D01*
X96148571Y-975276666D01*
X96148571Y-975610000D01*
X95672380Y-974705238D02*
X96672380Y-974467142D01*
X95958095Y-974276666D01*
X96672380Y-974086190D01*
X95672380Y-973848095D01*
X96386666Y-973514761D02*
X96386666Y-973038571D01*
X96672380Y-973610000D02*
X95672380Y-973276666D01*
X96672380Y-972943333D01*
X96291428Y-972610000D02*
X96291428Y-971848095D01*
X95672380Y-971181428D02*
X95672380Y-971086190D01*
X95720000Y-970990952D01*
X95767619Y-970943333D01*
X95862857Y-970895714D01*
X96053333Y-970848095D01*
X96291428Y-970848095D01*
X96481904Y-970895714D01*
X96577142Y-970943333D01*
X96624761Y-970990952D01*
X96672380Y-971086190D01*
X96672380Y-971181428D01*
X96624761Y-971276666D01*
X96577142Y-971324285D01*
X96481904Y-971371904D01*
X96291428Y-971419523D01*
X96053333Y-971419523D01*
X95862857Y-971371904D01*
X95767619Y-971324285D01*
X95720000Y-971276666D01*
X95672380Y-971181428D01*
X95767619Y-970467142D02*
X95720000Y-970419523D01*
X95672380Y-970324285D01*
X95672380Y-970086190D01*
X95720000Y-969990952D01*
X95767619Y-969943333D01*
X95862857Y-969895714D01*
X95958095Y-969895714D01*
X96100952Y-969943333D01*
X96672380Y-970514761D01*
X96672380Y-969895714D01*
X96291428Y-969467142D02*
X96291428Y-968705238D01*
X96148571Y-967895714D02*
X96196190Y-967752857D01*
X96243809Y-967705238D01*
X96339047Y-967657619D01*
X96481904Y-967657619D01*
X96577142Y-967705238D01*
X96624761Y-967752857D01*
X96672380Y-967848095D01*
X96672380Y-968229047D01*
X95672380Y-968229047D01*
X95672380Y-967895714D01*
X95720000Y-967800476D01*
X95767619Y-967752857D01*
X95862857Y-967705238D01*
X95958095Y-967705238D01*
X96053333Y-967752857D01*
X96100952Y-967800476D01*
X96148571Y-967895714D01*
X96148571Y-968229047D01*
%TO.C,J3*%
X97552380Y-987973333D02*
X98266666Y-987973333D01*
X98409523Y-988020952D01*
X98504761Y-988116190D01*
X98552380Y-988259047D01*
X98552380Y-988354285D01*
X97552380Y-987592380D02*
X97552380Y-986973333D01*
X97933333Y-987306666D01*
X97933333Y-987163809D01*
X97980952Y-987068571D01*
X98028571Y-987020952D01*
X98123809Y-986973333D01*
X98361904Y-986973333D01*
X98457142Y-987020952D01*
X98504761Y-987068571D01*
X98552380Y-987163809D01*
X98552380Y-987449523D01*
X98504761Y-987544761D01*
X98457142Y-987592380D01*
X96298571Y-991184761D02*
X96298571Y-990851428D01*
X96822380Y-990708571D02*
X96822380Y-991184761D01*
X95822380Y-991184761D01*
X95822380Y-990708571D01*
X96298571Y-989946666D02*
X96346190Y-989803809D01*
X96393809Y-989756190D01*
X96489047Y-989708571D01*
X96631904Y-989708571D01*
X96727142Y-989756190D01*
X96774761Y-989803809D01*
X96822380Y-989899047D01*
X96822380Y-990280000D01*
X95822380Y-990280000D01*
X95822380Y-989946666D01*
X95870000Y-989851428D01*
X95917619Y-989803809D01*
X96012857Y-989756190D01*
X96108095Y-989756190D01*
X96203333Y-989803809D01*
X96250952Y-989851428D01*
X96298571Y-989946666D01*
X96298571Y-990280000D01*
X95822380Y-989375238D02*
X96822380Y-989137142D01*
X96108095Y-988946666D01*
X96822380Y-988756190D01*
X95822380Y-988518095D01*
X96536666Y-988184761D02*
X96536666Y-987708571D01*
X96822380Y-988280000D02*
X95822380Y-987946666D01*
X96822380Y-987613333D01*
X96441428Y-987280000D02*
X96441428Y-986518095D01*
X95822380Y-985851428D02*
X95822380Y-985756190D01*
X95870000Y-985660952D01*
X95917619Y-985613333D01*
X96012857Y-985565714D01*
X96203333Y-985518095D01*
X96441428Y-985518095D01*
X96631904Y-985565714D01*
X96727142Y-985613333D01*
X96774761Y-985660952D01*
X96822380Y-985756190D01*
X96822380Y-985851428D01*
X96774761Y-985946666D01*
X96727142Y-985994285D01*
X96631904Y-986041904D01*
X96441428Y-986089523D01*
X96203333Y-986089523D01*
X96012857Y-986041904D01*
X95917619Y-985994285D01*
X95870000Y-985946666D01*
X95822380Y-985851428D01*
X95822380Y-984613333D02*
X95822380Y-985089523D01*
X96298571Y-985137142D01*
X96250952Y-985089523D01*
X96203333Y-984994285D01*
X96203333Y-984756190D01*
X96250952Y-984660952D01*
X96298571Y-984613333D01*
X96393809Y-984565714D01*
X96631904Y-984565714D01*
X96727142Y-984613333D01*
X96774761Y-984660952D01*
X96822380Y-984756190D01*
X96822380Y-984994285D01*
X96774761Y-985089523D01*
X96727142Y-985137142D01*
X96441428Y-984137142D02*
X96441428Y-983375238D01*
X96298571Y-982565714D02*
X96346190Y-982422857D01*
X96393809Y-982375238D01*
X96489047Y-982327619D01*
X96631904Y-982327619D01*
X96727142Y-982375238D01*
X96774761Y-982422857D01*
X96822380Y-982518095D01*
X96822380Y-982899047D01*
X95822380Y-982899047D01*
X95822380Y-982565714D01*
X95870000Y-982470476D01*
X95917619Y-982422857D01*
X96012857Y-982375238D01*
X96108095Y-982375238D01*
X96203333Y-982422857D01*
X96250952Y-982470476D01*
X96298571Y-982565714D01*
X96298571Y-982899047D01*
%TO.C,R1*%
X102293333Y-963162380D02*
X101960000Y-962686190D01*
X101721904Y-963162380D02*
X101721904Y-962162380D01*
X102102857Y-962162380D01*
X102198095Y-962210000D01*
X102245714Y-962257619D01*
X102293333Y-962352857D01*
X102293333Y-962495714D01*
X102245714Y-962590952D01*
X102198095Y-962638571D01*
X102102857Y-962686190D01*
X101721904Y-962686190D01*
X103245714Y-963162380D02*
X102674285Y-963162380D01*
X102960000Y-963162380D02*
X102960000Y-962162380D01*
X102864761Y-962305238D01*
X102769523Y-962400476D01*
X102674285Y-962448095D01*
X104862380Y-963921904D02*
X104862380Y-964112380D01*
X104910000Y-964207619D01*
X104957619Y-964255238D01*
X105100476Y-964350476D01*
X105290952Y-964398095D01*
X105671904Y-964398095D01*
X105767142Y-964350476D01*
X105814761Y-964302857D01*
X105862380Y-964207619D01*
X105862380Y-964017142D01*
X105814761Y-963921904D01*
X105767142Y-963874285D01*
X105671904Y-963826666D01*
X105433809Y-963826666D01*
X105338571Y-963874285D01*
X105290952Y-963921904D01*
X105243333Y-964017142D01*
X105243333Y-964207619D01*
X105290952Y-964302857D01*
X105338571Y-964350476D01*
X105433809Y-964398095D01*
X104957619Y-963445714D02*
X104910000Y-963398095D01*
X104862380Y-963302857D01*
X104862380Y-963064761D01*
X104910000Y-962969523D01*
X104957619Y-962921904D01*
X105052857Y-962874285D01*
X105148095Y-962874285D01*
X105290952Y-962921904D01*
X105862380Y-963493333D01*
X105862380Y-962874285D01*
X104862380Y-962255238D02*
X104862380Y-962160000D01*
X104910000Y-962064761D01*
X104957619Y-962017142D01*
X105052857Y-961969523D01*
X105243333Y-961921904D01*
X105481428Y-961921904D01*
X105671904Y-961969523D01*
X105767142Y-962017142D01*
X105814761Y-962064761D01*
X105862380Y-962160000D01*
X105862380Y-962255238D01*
X105814761Y-962350476D01*
X105767142Y-962398095D01*
X105671904Y-962445714D01*
X105481428Y-962493333D01*
X105243333Y-962493333D01*
X105052857Y-962445714D01*
X104957619Y-962398095D01*
X104910000Y-962350476D01*
X104862380Y-962255238D01*
X105862380Y-960921904D02*
X105386190Y-961255238D01*
X105862380Y-961493333D02*
X104862380Y-961493333D01*
X104862380Y-961112380D01*
X104910000Y-961017142D01*
X104957619Y-960969523D01*
X105052857Y-960921904D01*
X105195714Y-960921904D01*
X105290952Y-960969523D01*
X105338571Y-961017142D01*
X105386190Y-961112380D01*
X105386190Y-961493333D01*
%TO.C,R2*%
X102043333Y-978342380D02*
X101710000Y-977866190D01*
X101471904Y-978342380D02*
X101471904Y-977342380D01*
X101852857Y-977342380D01*
X101948095Y-977390000D01*
X101995714Y-977437619D01*
X102043333Y-977532857D01*
X102043333Y-977675714D01*
X101995714Y-977770952D01*
X101948095Y-977818571D01*
X101852857Y-977866190D01*
X101471904Y-977866190D01*
X102424285Y-977437619D02*
X102471904Y-977390000D01*
X102567142Y-977342380D01*
X102805238Y-977342380D01*
X102900476Y-977390000D01*
X102948095Y-977437619D01*
X102995714Y-977532857D01*
X102995714Y-977628095D01*
X102948095Y-977770952D01*
X102376666Y-978342380D01*
X102995714Y-978342380D01*
X104862380Y-979161904D02*
X104862380Y-979352380D01*
X104910000Y-979447619D01*
X104957619Y-979495238D01*
X105100476Y-979590476D01*
X105290952Y-979638095D01*
X105671904Y-979638095D01*
X105767142Y-979590476D01*
X105814761Y-979542857D01*
X105862380Y-979447619D01*
X105862380Y-979257142D01*
X105814761Y-979161904D01*
X105767142Y-979114285D01*
X105671904Y-979066666D01*
X105433809Y-979066666D01*
X105338571Y-979114285D01*
X105290952Y-979161904D01*
X105243333Y-979257142D01*
X105243333Y-979447619D01*
X105290952Y-979542857D01*
X105338571Y-979590476D01*
X105433809Y-979638095D01*
X104957619Y-978685714D02*
X104910000Y-978638095D01*
X104862380Y-978542857D01*
X104862380Y-978304761D01*
X104910000Y-978209523D01*
X104957619Y-978161904D01*
X105052857Y-978114285D01*
X105148095Y-978114285D01*
X105290952Y-978161904D01*
X105862380Y-978733333D01*
X105862380Y-978114285D01*
X104862380Y-977495238D02*
X104862380Y-977400000D01*
X104910000Y-977304761D01*
X104957619Y-977257142D01*
X105052857Y-977209523D01*
X105243333Y-977161904D01*
X105481428Y-977161904D01*
X105671904Y-977209523D01*
X105767142Y-977257142D01*
X105814761Y-977304761D01*
X105862380Y-977400000D01*
X105862380Y-977495238D01*
X105814761Y-977590476D01*
X105767142Y-977638095D01*
X105671904Y-977685714D01*
X105481428Y-977733333D01*
X105243333Y-977733333D01*
X105052857Y-977685714D01*
X104957619Y-977638095D01*
X104910000Y-977590476D01*
X104862380Y-977495238D01*
X105862380Y-976161904D02*
X105386190Y-976495238D01*
X105862380Y-976733333D02*
X104862380Y-976733333D01*
X104862380Y-976352380D01*
X104910000Y-976257142D01*
X104957619Y-976209523D01*
X105052857Y-976161904D01*
X105195714Y-976161904D01*
X105290952Y-976209523D01*
X105338571Y-976257142D01*
X105386190Y-976352380D01*
X105386190Y-976733333D01*
%TO.C,R3*%
X102243333Y-993572380D02*
X101910000Y-993096190D01*
X101671904Y-993572380D02*
X101671904Y-992572380D01*
X102052857Y-992572380D01*
X102148095Y-992620000D01*
X102195714Y-992667619D01*
X102243333Y-992762857D01*
X102243333Y-992905714D01*
X102195714Y-993000952D01*
X102148095Y-993048571D01*
X102052857Y-993096190D01*
X101671904Y-993096190D01*
X102576666Y-992572380D02*
X103195714Y-992572380D01*
X102862380Y-992953333D01*
X103005238Y-992953333D01*
X103100476Y-993000952D01*
X103148095Y-993048571D01*
X103195714Y-993143809D01*
X103195714Y-993381904D01*
X103148095Y-993477142D01*
X103100476Y-993524761D01*
X103005238Y-993572380D01*
X102719523Y-993572380D01*
X102624285Y-993524761D01*
X102576666Y-993477142D01*
X104862380Y-994401904D02*
X104862380Y-994592380D01*
X104910000Y-994687619D01*
X104957619Y-994735238D01*
X105100476Y-994830476D01*
X105290952Y-994878095D01*
X105671904Y-994878095D01*
X105767142Y-994830476D01*
X105814761Y-994782857D01*
X105862380Y-994687619D01*
X105862380Y-994497142D01*
X105814761Y-994401904D01*
X105767142Y-994354285D01*
X105671904Y-994306666D01*
X105433809Y-994306666D01*
X105338571Y-994354285D01*
X105290952Y-994401904D01*
X105243333Y-994497142D01*
X105243333Y-994687619D01*
X105290952Y-994782857D01*
X105338571Y-994830476D01*
X105433809Y-994878095D01*
X104957619Y-993925714D02*
X104910000Y-993878095D01*
X104862380Y-993782857D01*
X104862380Y-993544761D01*
X104910000Y-993449523D01*
X104957619Y-993401904D01*
X105052857Y-993354285D01*
X105148095Y-993354285D01*
X105290952Y-993401904D01*
X105862380Y-993973333D01*
X105862380Y-993354285D01*
X104862380Y-992735238D02*
X104862380Y-992640000D01*
X104910000Y-992544761D01*
X104957619Y-992497142D01*
X105052857Y-992449523D01*
X105243333Y-992401904D01*
X105481428Y-992401904D01*
X105671904Y-992449523D01*
X105767142Y-992497142D01*
X105814761Y-992544761D01*
X105862380Y-992640000D01*
X105862380Y-992735238D01*
X105814761Y-992830476D01*
X105767142Y-992878095D01*
X105671904Y-992925714D01*
X105481428Y-992973333D01*
X105243333Y-992973333D01*
X105052857Y-992925714D01*
X104957619Y-992878095D01*
X104910000Y-992830476D01*
X104862380Y-992735238D01*
X105862380Y-991401904D02*
X105386190Y-991735238D01*
X105862380Y-991973333D02*
X104862380Y-991973333D01*
X104862380Y-991592380D01*
X104910000Y-991497142D01*
X104957619Y-991449523D01*
X105052857Y-991401904D01*
X105195714Y-991401904D01*
X105290952Y-991449523D01*
X105338571Y-991497142D01*
X105386190Y-991592380D01*
X105386190Y-991973333D01*
%TO.C,R4*%
X102343333Y-1008612380D02*
X102010000Y-1008136190D01*
X101771904Y-1008612380D02*
X101771904Y-1007612380D01*
X102152857Y-1007612380D01*
X102248095Y-1007660000D01*
X102295714Y-1007707619D01*
X102343333Y-1007802857D01*
X102343333Y-1007945714D01*
X102295714Y-1008040952D01*
X102248095Y-1008088571D01*
X102152857Y-1008136190D01*
X101771904Y-1008136190D01*
X103200476Y-1007945714D02*
X103200476Y-1008612380D01*
X102962380Y-1007564761D02*
X102724285Y-1008279047D01*
X103343333Y-1008279047D01*
X104862380Y-1009641904D02*
X104862380Y-1009832380D01*
X104910000Y-1009927619D01*
X104957619Y-1009975238D01*
X105100476Y-1010070476D01*
X105290952Y-1010118095D01*
X105671904Y-1010118095D01*
X105767142Y-1010070476D01*
X105814761Y-1010022857D01*
X105862380Y-1009927619D01*
X105862380Y-1009737142D01*
X105814761Y-1009641904D01*
X105767142Y-1009594285D01*
X105671904Y-1009546666D01*
X105433809Y-1009546666D01*
X105338571Y-1009594285D01*
X105290952Y-1009641904D01*
X105243333Y-1009737142D01*
X105243333Y-1009927619D01*
X105290952Y-1010022857D01*
X105338571Y-1010070476D01*
X105433809Y-1010118095D01*
X104957619Y-1009165714D02*
X104910000Y-1009118095D01*
X104862380Y-1009022857D01*
X104862380Y-1008784761D01*
X104910000Y-1008689523D01*
X104957619Y-1008641904D01*
X105052857Y-1008594285D01*
X105148095Y-1008594285D01*
X105290952Y-1008641904D01*
X105862380Y-1009213333D01*
X105862380Y-1008594285D01*
X104862380Y-1007975238D02*
X104862380Y-1007880000D01*
X104910000Y-1007784761D01*
X104957619Y-1007737142D01*
X105052857Y-1007689523D01*
X105243333Y-1007641904D01*
X105481428Y-1007641904D01*
X105671904Y-1007689523D01*
X105767142Y-1007737142D01*
X105814761Y-1007784761D01*
X105862380Y-1007880000D01*
X105862380Y-1007975238D01*
X105814761Y-1008070476D01*
X105767142Y-1008118095D01*
X105671904Y-1008165714D01*
X105481428Y-1008213333D01*
X105243333Y-1008213333D01*
X105052857Y-1008165714D01*
X104957619Y-1008118095D01*
X104910000Y-1008070476D01*
X104862380Y-1007975238D01*
X105862380Y-1006641904D02*
X105386190Y-1006975238D01*
X105862380Y-1007213333D02*
X104862380Y-1007213333D01*
X104862380Y-1006832380D01*
X104910000Y-1006737142D01*
X104957619Y-1006689523D01*
X105052857Y-1006641904D01*
X105195714Y-1006641904D01*
X105290952Y-1006689523D01*
X105338571Y-1006737142D01*
X105386190Y-1006832380D01*
X105386190Y-1007213333D01*
%TO.C,R5*%
X102043333Y-1025312380D02*
X101710000Y-1024836190D01*
X101471904Y-1025312380D02*
X101471904Y-1024312380D01*
X101852857Y-1024312380D01*
X101948095Y-1024360000D01*
X101995714Y-1024407619D01*
X102043333Y-1024502857D01*
X102043333Y-1024645714D01*
X101995714Y-1024740952D01*
X101948095Y-1024788571D01*
X101852857Y-1024836190D01*
X101471904Y-1024836190D01*
X102948095Y-1024312380D02*
X102471904Y-1024312380D01*
X102424285Y-1024788571D01*
X102471904Y-1024740952D01*
X102567142Y-1024693333D01*
X102805238Y-1024693333D01*
X102900476Y-1024740952D01*
X102948095Y-1024788571D01*
X102995714Y-1024883809D01*
X102995714Y-1025121904D01*
X102948095Y-1025217142D01*
X102900476Y-1025264761D01*
X102805238Y-1025312380D01*
X102567142Y-1025312380D01*
X102471904Y-1025264761D01*
X102424285Y-1025217142D01*
X104862380Y-1026151904D02*
X104862380Y-1026342380D01*
X104910000Y-1026437619D01*
X104957619Y-1026485238D01*
X105100476Y-1026580476D01*
X105290952Y-1026628095D01*
X105671904Y-1026628095D01*
X105767142Y-1026580476D01*
X105814761Y-1026532857D01*
X105862380Y-1026437619D01*
X105862380Y-1026247142D01*
X105814761Y-1026151904D01*
X105767142Y-1026104285D01*
X105671904Y-1026056666D01*
X105433809Y-1026056666D01*
X105338571Y-1026104285D01*
X105290952Y-1026151904D01*
X105243333Y-1026247142D01*
X105243333Y-1026437619D01*
X105290952Y-1026532857D01*
X105338571Y-1026580476D01*
X105433809Y-1026628095D01*
X104957619Y-1025675714D02*
X104910000Y-1025628095D01*
X104862380Y-1025532857D01*
X104862380Y-1025294761D01*
X104910000Y-1025199523D01*
X104957619Y-1025151904D01*
X105052857Y-1025104285D01*
X105148095Y-1025104285D01*
X105290952Y-1025151904D01*
X105862380Y-1025723333D01*
X105862380Y-1025104285D01*
X104862380Y-1024485238D02*
X104862380Y-1024390000D01*
X104910000Y-1024294761D01*
X104957619Y-1024247142D01*
X105052857Y-1024199523D01*
X105243333Y-1024151904D01*
X105481428Y-1024151904D01*
X105671904Y-1024199523D01*
X105767142Y-1024247142D01*
X105814761Y-1024294761D01*
X105862380Y-1024390000D01*
X105862380Y-1024485238D01*
X105814761Y-1024580476D01*
X105767142Y-1024628095D01*
X105671904Y-1024675714D01*
X105481428Y-1024723333D01*
X105243333Y-1024723333D01*
X105052857Y-1024675714D01*
X104957619Y-1024628095D01*
X104910000Y-1024580476D01*
X104862380Y-1024485238D01*
X105862380Y-1023151904D02*
X105386190Y-1023485238D01*
X105862380Y-1023723333D02*
X104862380Y-1023723333D01*
X104862380Y-1023342380D01*
X104910000Y-1023247142D01*
X104957619Y-1023199523D01*
X105052857Y-1023151904D01*
X105195714Y-1023151904D01*
X105290952Y-1023199523D01*
X105338571Y-1023247142D01*
X105386190Y-1023342380D01*
X105386190Y-1023723333D01*
%TO.C,R6*%
X148933333Y-963262380D02*
X148600000Y-962786190D01*
X148361904Y-963262380D02*
X148361904Y-962262380D01*
X148742857Y-962262380D01*
X148838095Y-962310000D01*
X148885714Y-962357619D01*
X148933333Y-962452857D01*
X148933333Y-962595714D01*
X148885714Y-962690952D01*
X148838095Y-962738571D01*
X148742857Y-962786190D01*
X148361904Y-962786190D01*
X149790476Y-962262380D02*
X149600000Y-962262380D01*
X149504761Y-962310000D01*
X149457142Y-962357619D01*
X149361904Y-962500476D01*
X149314285Y-962690952D01*
X149314285Y-963071904D01*
X149361904Y-963167142D01*
X149409523Y-963214761D01*
X149504761Y-963262380D01*
X149695238Y-963262380D01*
X149790476Y-963214761D01*
X149838095Y-963167142D01*
X149885714Y-963071904D01*
X149885714Y-962833809D01*
X149838095Y-962738571D01*
X149790476Y-962690952D01*
X149695238Y-962643333D01*
X149504761Y-962643333D01*
X149409523Y-962690952D01*
X149361904Y-962738571D01*
X149314285Y-962833809D01*
X145502380Y-963921904D02*
X145502380Y-964112380D01*
X145550000Y-964207619D01*
X145597619Y-964255238D01*
X145740476Y-964350476D01*
X145930952Y-964398095D01*
X146311904Y-964398095D01*
X146407142Y-964350476D01*
X146454761Y-964302857D01*
X146502380Y-964207619D01*
X146502380Y-964017142D01*
X146454761Y-963921904D01*
X146407142Y-963874285D01*
X146311904Y-963826666D01*
X146073809Y-963826666D01*
X145978571Y-963874285D01*
X145930952Y-963921904D01*
X145883333Y-964017142D01*
X145883333Y-964207619D01*
X145930952Y-964302857D01*
X145978571Y-964350476D01*
X146073809Y-964398095D01*
X145597619Y-963445714D02*
X145550000Y-963398095D01*
X145502380Y-963302857D01*
X145502380Y-963064761D01*
X145550000Y-962969523D01*
X145597619Y-962921904D01*
X145692857Y-962874285D01*
X145788095Y-962874285D01*
X145930952Y-962921904D01*
X146502380Y-963493333D01*
X146502380Y-962874285D01*
X145502380Y-962255238D02*
X145502380Y-962160000D01*
X145550000Y-962064761D01*
X145597619Y-962017142D01*
X145692857Y-961969523D01*
X145883333Y-961921904D01*
X146121428Y-961921904D01*
X146311904Y-961969523D01*
X146407142Y-962017142D01*
X146454761Y-962064761D01*
X146502380Y-962160000D01*
X146502380Y-962255238D01*
X146454761Y-962350476D01*
X146407142Y-962398095D01*
X146311904Y-962445714D01*
X146121428Y-962493333D01*
X145883333Y-962493333D01*
X145692857Y-962445714D01*
X145597619Y-962398095D01*
X145550000Y-962350476D01*
X145502380Y-962255238D01*
X146502380Y-960921904D02*
X146026190Y-961255238D01*
X146502380Y-961493333D02*
X145502380Y-961493333D01*
X145502380Y-961112380D01*
X145550000Y-961017142D01*
X145597619Y-960969523D01*
X145692857Y-960921904D01*
X145835714Y-960921904D01*
X145930952Y-960969523D01*
X145978571Y-961017142D01*
X146026190Y-961112380D01*
X146026190Y-961493333D01*
%TO.C,R7*%
X148983333Y-978342380D02*
X148650000Y-977866190D01*
X148411904Y-978342380D02*
X148411904Y-977342380D01*
X148792857Y-977342380D01*
X148888095Y-977390000D01*
X148935714Y-977437619D01*
X148983333Y-977532857D01*
X148983333Y-977675714D01*
X148935714Y-977770952D01*
X148888095Y-977818571D01*
X148792857Y-977866190D01*
X148411904Y-977866190D01*
X149316666Y-977342380D02*
X149983333Y-977342380D01*
X149554761Y-978342380D01*
X145502380Y-979161904D02*
X145502380Y-979352380D01*
X145550000Y-979447619D01*
X145597619Y-979495238D01*
X145740476Y-979590476D01*
X145930952Y-979638095D01*
X146311904Y-979638095D01*
X146407142Y-979590476D01*
X146454761Y-979542857D01*
X146502380Y-979447619D01*
X146502380Y-979257142D01*
X146454761Y-979161904D01*
X146407142Y-979114285D01*
X146311904Y-979066666D01*
X146073809Y-979066666D01*
X145978571Y-979114285D01*
X145930952Y-979161904D01*
X145883333Y-979257142D01*
X145883333Y-979447619D01*
X145930952Y-979542857D01*
X145978571Y-979590476D01*
X146073809Y-979638095D01*
X145597619Y-978685714D02*
X145550000Y-978638095D01*
X145502380Y-978542857D01*
X145502380Y-978304761D01*
X145550000Y-978209523D01*
X145597619Y-978161904D01*
X145692857Y-978114285D01*
X145788095Y-978114285D01*
X145930952Y-978161904D01*
X146502380Y-978733333D01*
X146502380Y-978114285D01*
X145502380Y-977495238D02*
X145502380Y-977400000D01*
X145550000Y-977304761D01*
X145597619Y-977257142D01*
X145692857Y-977209523D01*
X145883333Y-977161904D01*
X146121428Y-977161904D01*
X146311904Y-977209523D01*
X146407142Y-977257142D01*
X146454761Y-977304761D01*
X146502380Y-977400000D01*
X146502380Y-977495238D01*
X146454761Y-977590476D01*
X146407142Y-977638095D01*
X146311904Y-977685714D01*
X146121428Y-977733333D01*
X145883333Y-977733333D01*
X145692857Y-977685714D01*
X145597619Y-977638095D01*
X145550000Y-977590476D01*
X145502380Y-977495238D01*
X146502380Y-976161904D02*
X146026190Y-976495238D01*
X146502380Y-976733333D02*
X145502380Y-976733333D01*
X145502380Y-976352380D01*
X145550000Y-976257142D01*
X145597619Y-976209523D01*
X145692857Y-976161904D01*
X145835714Y-976161904D01*
X145930952Y-976209523D01*
X145978571Y-976257142D01*
X146026190Y-976352380D01*
X146026190Y-976733333D01*
%TO.C,R8*%
X149133333Y-993572380D02*
X148800000Y-993096190D01*
X148561904Y-993572380D02*
X148561904Y-992572380D01*
X148942857Y-992572380D01*
X149038095Y-992620000D01*
X149085714Y-992667619D01*
X149133333Y-992762857D01*
X149133333Y-992905714D01*
X149085714Y-993000952D01*
X149038095Y-993048571D01*
X148942857Y-993096190D01*
X148561904Y-993096190D01*
X149704761Y-993000952D02*
X149609523Y-992953333D01*
X149561904Y-992905714D01*
X149514285Y-992810476D01*
X149514285Y-992762857D01*
X149561904Y-992667619D01*
X149609523Y-992620000D01*
X149704761Y-992572380D01*
X149895238Y-992572380D01*
X149990476Y-992620000D01*
X150038095Y-992667619D01*
X150085714Y-992762857D01*
X150085714Y-992810476D01*
X150038095Y-992905714D01*
X149990476Y-992953333D01*
X149895238Y-993000952D01*
X149704761Y-993000952D01*
X149609523Y-993048571D01*
X149561904Y-993096190D01*
X149514285Y-993191428D01*
X149514285Y-993381904D01*
X149561904Y-993477142D01*
X149609523Y-993524761D01*
X149704761Y-993572380D01*
X149895238Y-993572380D01*
X149990476Y-993524761D01*
X150038095Y-993477142D01*
X150085714Y-993381904D01*
X150085714Y-993191428D01*
X150038095Y-993096190D01*
X149990476Y-993048571D01*
X149895238Y-993000952D01*
X145502380Y-994401904D02*
X145502380Y-994592380D01*
X145550000Y-994687619D01*
X145597619Y-994735238D01*
X145740476Y-994830476D01*
X145930952Y-994878095D01*
X146311904Y-994878095D01*
X146407142Y-994830476D01*
X146454761Y-994782857D01*
X146502380Y-994687619D01*
X146502380Y-994497142D01*
X146454761Y-994401904D01*
X146407142Y-994354285D01*
X146311904Y-994306666D01*
X146073809Y-994306666D01*
X145978571Y-994354285D01*
X145930952Y-994401904D01*
X145883333Y-994497142D01*
X145883333Y-994687619D01*
X145930952Y-994782857D01*
X145978571Y-994830476D01*
X146073809Y-994878095D01*
X145597619Y-993925714D02*
X145550000Y-993878095D01*
X145502380Y-993782857D01*
X145502380Y-993544761D01*
X145550000Y-993449523D01*
X145597619Y-993401904D01*
X145692857Y-993354285D01*
X145788095Y-993354285D01*
X145930952Y-993401904D01*
X146502380Y-993973333D01*
X146502380Y-993354285D01*
X145502380Y-992735238D02*
X145502380Y-992640000D01*
X145550000Y-992544761D01*
X145597619Y-992497142D01*
X145692857Y-992449523D01*
X145883333Y-992401904D01*
X146121428Y-992401904D01*
X146311904Y-992449523D01*
X146407142Y-992497142D01*
X146454761Y-992544761D01*
X146502380Y-992640000D01*
X146502380Y-992735238D01*
X146454761Y-992830476D01*
X146407142Y-992878095D01*
X146311904Y-992925714D01*
X146121428Y-992973333D01*
X145883333Y-992973333D01*
X145692857Y-992925714D01*
X145597619Y-992878095D01*
X145550000Y-992830476D01*
X145502380Y-992735238D01*
X146502380Y-991401904D02*
X146026190Y-991735238D01*
X146502380Y-991973333D02*
X145502380Y-991973333D01*
X145502380Y-991592380D01*
X145550000Y-991497142D01*
X145597619Y-991449523D01*
X145692857Y-991401904D01*
X145835714Y-991401904D01*
X145930952Y-991449523D01*
X145978571Y-991497142D01*
X146026190Y-991592380D01*
X146026190Y-991973333D01*
%TO.C,R9*%
X149033333Y-1008972380D02*
X148700000Y-1008496190D01*
X148461904Y-1008972380D02*
X148461904Y-1007972380D01*
X148842857Y-1007972380D01*
X148938095Y-1008020000D01*
X148985714Y-1008067619D01*
X149033333Y-1008162857D01*
X149033333Y-1008305714D01*
X148985714Y-1008400952D01*
X148938095Y-1008448571D01*
X148842857Y-1008496190D01*
X148461904Y-1008496190D01*
X149509523Y-1008972380D02*
X149700000Y-1008972380D01*
X149795238Y-1008924761D01*
X149842857Y-1008877142D01*
X149938095Y-1008734285D01*
X149985714Y-1008543809D01*
X149985714Y-1008162857D01*
X149938095Y-1008067619D01*
X149890476Y-1008020000D01*
X149795238Y-1007972380D01*
X149604761Y-1007972380D01*
X149509523Y-1008020000D01*
X149461904Y-1008067619D01*
X149414285Y-1008162857D01*
X149414285Y-1008400952D01*
X149461904Y-1008496190D01*
X149509523Y-1008543809D01*
X149604761Y-1008591428D01*
X149795238Y-1008591428D01*
X149890476Y-1008543809D01*
X149938095Y-1008496190D01*
X149985714Y-1008400952D01*
X145502380Y-1009641904D02*
X145502380Y-1009832380D01*
X145550000Y-1009927619D01*
X145597619Y-1009975238D01*
X145740476Y-1010070476D01*
X145930952Y-1010118095D01*
X146311904Y-1010118095D01*
X146407142Y-1010070476D01*
X146454761Y-1010022857D01*
X146502380Y-1009927619D01*
X146502380Y-1009737142D01*
X146454761Y-1009641904D01*
X146407142Y-1009594285D01*
X146311904Y-1009546666D01*
X146073809Y-1009546666D01*
X145978571Y-1009594285D01*
X145930952Y-1009641904D01*
X145883333Y-1009737142D01*
X145883333Y-1009927619D01*
X145930952Y-1010022857D01*
X145978571Y-1010070476D01*
X146073809Y-1010118095D01*
X145597619Y-1009165714D02*
X145550000Y-1009118095D01*
X145502380Y-1009022857D01*
X145502380Y-1008784761D01*
X145550000Y-1008689523D01*
X145597619Y-1008641904D01*
X145692857Y-1008594285D01*
X145788095Y-1008594285D01*
X145930952Y-1008641904D01*
X146502380Y-1009213333D01*
X146502380Y-1008594285D01*
X145502380Y-1007975238D02*
X145502380Y-1007880000D01*
X145550000Y-1007784761D01*
X145597619Y-1007737142D01*
X145692857Y-1007689523D01*
X145883333Y-1007641904D01*
X146121428Y-1007641904D01*
X146311904Y-1007689523D01*
X146407142Y-1007737142D01*
X146454761Y-1007784761D01*
X146502380Y-1007880000D01*
X146502380Y-1007975238D01*
X146454761Y-1008070476D01*
X146407142Y-1008118095D01*
X146311904Y-1008165714D01*
X146121428Y-1008213333D01*
X145883333Y-1008213333D01*
X145692857Y-1008165714D01*
X145597619Y-1008118095D01*
X145550000Y-1008070476D01*
X145502380Y-1007975238D01*
X146502380Y-1006641904D02*
X146026190Y-1006975238D01*
X146502380Y-1007213333D02*
X145502380Y-1007213333D01*
X145502380Y-1006832380D01*
X145550000Y-1006737142D01*
X145597619Y-1006689523D01*
X145692857Y-1006641904D01*
X145835714Y-1006641904D01*
X145930952Y-1006689523D01*
X145978571Y-1006737142D01*
X146026190Y-1006832380D01*
X146026190Y-1007213333D01*
%TO.C,R10*%
X149217142Y-1025342380D02*
X148883809Y-1024866190D01*
X148645714Y-1025342380D02*
X148645714Y-1024342380D01*
X149026666Y-1024342380D01*
X149121904Y-1024390000D01*
X149169523Y-1024437619D01*
X149217142Y-1024532857D01*
X149217142Y-1024675714D01*
X149169523Y-1024770952D01*
X149121904Y-1024818571D01*
X149026666Y-1024866190D01*
X148645714Y-1024866190D01*
X150169523Y-1025342380D02*
X149598095Y-1025342380D01*
X149883809Y-1025342380D02*
X149883809Y-1024342380D01*
X149788571Y-1024485238D01*
X149693333Y-1024580476D01*
X149598095Y-1024628095D01*
X150788571Y-1024342380D02*
X150883809Y-1024342380D01*
X150979047Y-1024390000D01*
X151026666Y-1024437619D01*
X151074285Y-1024532857D01*
X151121904Y-1024723333D01*
X151121904Y-1024961428D01*
X151074285Y-1025151904D01*
X151026666Y-1025247142D01*
X150979047Y-1025294761D01*
X150883809Y-1025342380D01*
X150788571Y-1025342380D01*
X150693333Y-1025294761D01*
X150645714Y-1025247142D01*
X150598095Y-1025151904D01*
X150550476Y-1024961428D01*
X150550476Y-1024723333D01*
X150598095Y-1024532857D01*
X150645714Y-1024437619D01*
X150693333Y-1024390000D01*
X150788571Y-1024342380D01*
X145502380Y-1026151904D02*
X145502380Y-1026342380D01*
X145550000Y-1026437619D01*
X145597619Y-1026485238D01*
X145740476Y-1026580476D01*
X145930952Y-1026628095D01*
X146311904Y-1026628095D01*
X146407142Y-1026580476D01*
X146454761Y-1026532857D01*
X146502380Y-1026437619D01*
X146502380Y-1026247142D01*
X146454761Y-1026151904D01*
X146407142Y-1026104285D01*
X146311904Y-1026056666D01*
X146073809Y-1026056666D01*
X145978571Y-1026104285D01*
X145930952Y-1026151904D01*
X145883333Y-1026247142D01*
X145883333Y-1026437619D01*
X145930952Y-1026532857D01*
X145978571Y-1026580476D01*
X146073809Y-1026628095D01*
X145597619Y-1025675714D02*
X145550000Y-1025628095D01*
X145502380Y-1025532857D01*
X145502380Y-1025294761D01*
X145550000Y-1025199523D01*
X145597619Y-1025151904D01*
X145692857Y-1025104285D01*
X145788095Y-1025104285D01*
X145930952Y-1025151904D01*
X146502380Y-1025723333D01*
X146502380Y-1025104285D01*
X145502380Y-1024485238D02*
X145502380Y-1024390000D01*
X145550000Y-1024294761D01*
X145597619Y-1024247142D01*
X145692857Y-1024199523D01*
X145883333Y-1024151904D01*
X146121428Y-1024151904D01*
X146311904Y-1024199523D01*
X146407142Y-1024247142D01*
X146454761Y-1024294761D01*
X146502380Y-1024390000D01*
X146502380Y-1024485238D01*
X146454761Y-1024580476D01*
X146407142Y-1024628095D01*
X146311904Y-1024675714D01*
X146121428Y-1024723333D01*
X145883333Y-1024723333D01*
X145692857Y-1024675714D01*
X145597619Y-1024628095D01*
X145550000Y-1024580476D01*
X145502380Y-1024485238D01*
X146502380Y-1023151904D02*
X146026190Y-1023485238D01*
X146502380Y-1023723333D02*
X145502380Y-1023723333D01*
X145502380Y-1023342380D01*
X145550000Y-1023247142D01*
X145597619Y-1023199523D01*
X145692857Y-1023151904D01*
X145835714Y-1023151904D01*
X145930952Y-1023199523D01*
X145978571Y-1023247142D01*
X146026190Y-1023342380D01*
X146026190Y-1023723333D01*
%TD*%
M02*
