M48
; DRILL file {KiCad (5.1.6)-1} date 07/24/20 14:42:26
; FORMAT={-:-/ absolute / inch / decimal}
; #@! TF.CreationDate,2020-07-24T14:42:26-07:00
; #@! TF.GenerationSoftware,Kicad,Pcbnew,(5.1.6)-1
; #@! TF.FileFunction,Plated,1,2,PTH
FMAT,2
INCH
T1C0.0157
T2C0.0315
T3C0.0354
T4C0.0512
%
G90
G05
T1
X3.9449Y-39.3917
X3.9591Y-39.9791
X4.015Y-38.2815
X4.3366Y-38.0228
X4.7563Y-39.222
X4.8961Y-40.1016
X4.9413Y-39.5
X4.9799Y-38.2571
X5.5114Y-39.7799
X5.5638Y-39.1752
X5.6126Y-37.9563
X5.6303Y-38.1835
X5.6547Y-40.035
T2
X4.15Y-38.3
X4.15Y-38.7
X5.75Y-37.7
X5.75Y-38.1
X5.75Y-40.15
X5.75Y-40.55
X5.75Y-38.3
X5.75Y-38.7
X4.15Y-37.7
X4.15Y-38.1
X4.15Y-39.5
X4.15Y-39.9
X4.15Y-38.9
X4.15Y-39.3
X5.75Y-38.9
X5.75Y-39.3
X5.75Y-39.5
X5.75Y-39.9
X4.15Y-40.15
X4.15Y-40.55
T3
X5.5Y-38.3
X5.5Y-38.4
X4.4Y-38.9
X4.4Y-39.0
X5.5Y-40.15
X5.5Y-40.25
X5.5Y-37.7
X5.5Y-37.8
X4.4Y-37.7
X4.4Y-37.8
X4.4Y-40.15
X4.4Y-40.25
X4.4Y-39.5
X4.4Y-39.6
X4.4Y-38.3
X4.4Y-38.4
X5.5Y-39.5
X5.5Y-39.6
X5.5Y-38.9
X5.5Y-39.0
T4
X3.6Y-38.2
X3.6Y-38.35
X3.6Y-38.55
X3.6Y-38.7
X3.6Y-38.85
X3.6Y-39.0
X3.6Y-39.15
X3.6Y-39.35
X3.6Y-39.5
X3.6Y-39.65
X3.6Y-39.8
X3.6Y-39.95
T0
M30
