%TF.GenerationSoftware,KiCad,Pcbnew,(5.1.6)-1*%
%TF.CreationDate,2020-07-24T14:42:19-07:00*%
%TF.ProjectId,Ign-Inj LEDs,49676e2d-496e-46a2-904c-4544732e6b69,rev?*%
%TF.SameCoordinates,Original*%
%TF.FileFunction,Copper,L1,Top*%
%TF.FilePolarity,Positive*%
%FSLAX46Y46*%
G04 Gerber Fmt 4.6, Leading zero omitted, Abs format (unit mm)*
G04 Created by KiCad (PCBNEW (5.1.6)-1) date 2020-07-24 14:42:19*
%MOMM*%
%LPD*%
G01*
G04 APERTURE LIST*
%TA.AperFunction,ComponentPad*%
%ADD10C,1.800000*%
%TD*%
%TA.AperFunction,ComponentPad*%
%ADD11R,1.800000X1.800000*%
%TD*%
%TA.AperFunction,ComponentPad*%
%ADD12C,2.600000*%
%TD*%
%TA.AperFunction,ComponentPad*%
%ADD13R,2.600000X2.600000*%
%TD*%
%TA.AperFunction,ComponentPad*%
%ADD14C,1.600000*%
%TD*%
%TA.AperFunction,ComponentPad*%
%ADD15O,1.600000X1.600000*%
%TD*%
%TA.AperFunction,ViaPad*%
%ADD16C,0.800000*%
%TD*%
%TA.AperFunction,Conductor*%
%ADD17C,1.000000*%
%TD*%
%TA.AperFunction,Conductor*%
%ADD18C,0.254000*%
%TD*%
G04 APERTURE END LIST*
D10*
%TO.P,D1,2*%
%TO.N,Net-(D1-Pad2)*%
X111760000Y-957580000D03*
D11*
%TO.P,D1,1*%
%TO.N,Net-(D1-Pad1)*%
X111760000Y-960120000D03*
%TD*%
D10*
%TO.P,D2,2*%
%TO.N,Net-(D2-Pad2)*%
X111760000Y-972820000D03*
D11*
%TO.P,D2,1*%
%TO.N,Net-(D2-Pad1)*%
X111760000Y-975360000D03*
%TD*%
%TO.P,D3,1*%
%TO.N,Net-(D3-Pad1)*%
X111760000Y-990600000D03*
D10*
%TO.P,D3,2*%
%TO.N,Net-(D3-Pad2)*%
X111760000Y-988060000D03*
%TD*%
%TO.P,D4,2*%
%TO.N,Net-(D4-Pad2)*%
X111760000Y-1003300000D03*
D11*
%TO.P,D4,1*%
%TO.N,Net-(D4-Pad1)*%
X111760000Y-1005840000D03*
%TD*%
%TO.P,D5,1*%
%TO.N,Net-(D5-Pad1)*%
X111760000Y-1022350000D03*
D10*
%TO.P,D5,2*%
%TO.N,Net-(D5-Pad2)*%
X111760000Y-1019810000D03*
%TD*%
D11*
%TO.P,D6,1*%
%TO.N,/Inj1*%
X139700000Y-960120000D03*
D10*
%TO.P,D6,2*%
%TO.N,Net-(D6-Pad2)*%
X139700000Y-957580000D03*
%TD*%
%TO.P,D7,2*%
%TO.N,Net-(D7-Pad2)*%
X139700000Y-972820000D03*
D11*
%TO.P,D7,1*%
%TO.N,/Inj2*%
X139700000Y-975360000D03*
%TD*%
%TO.P,D8,1*%
%TO.N,/Inj3*%
X139700000Y-990600000D03*
D10*
%TO.P,D8,2*%
%TO.N,Net-(D8-Pad2)*%
X139700000Y-988060000D03*
%TD*%
%TO.P,D9,2*%
%TO.N,Net-(D9-Pad2)*%
X139700000Y-1003300000D03*
D11*
%TO.P,D9,1*%
%TO.N,/Inj4*%
X139700000Y-1005840000D03*
%TD*%
%TO.P,D10,1*%
%TO.N,/Inj5*%
X139700000Y-1022350000D03*
D10*
%TO.P,D10,2*%
%TO.N,Net-(D10-Pad2)*%
X139700000Y-1019810000D03*
%TD*%
D12*
%TO.P,J1,3*%
%TO.N,/Inj4*%
X91440000Y-1007110000D03*
%TO.P,J1,2*%
%TO.N,Net-(D5-Pad1)*%
X91440000Y-1010920000D03*
%TO.P,J1,4*%
%TO.N,Net-(D4-Pad1)*%
X91440000Y-1003300000D03*
%TO.P,J1,5*%
%TO.N,/Inj3*%
X91440000Y-999490000D03*
D13*
%TO.P,J1,1*%
%TO.N,/Inj5*%
X91440000Y-1014730000D03*
%TD*%
D12*
%TO.P,J2,2*%
%TO.N,GND*%
X91440000Y-974090000D03*
D13*
%TO.P,J2,1*%
%TO.N,+12V*%
X91440000Y-970280000D03*
%TD*%
%TO.P,J3,1*%
%TO.N,Net-(D1-Pad1)*%
X91440000Y-979170000D03*
D12*
%TO.P,J3,5*%
%TO.N,Net-(D3-Pad1)*%
X91440000Y-994410000D03*
%TO.P,J3,4*%
%TO.N,/Inj2*%
X91440000Y-990600000D03*
%TO.P,J3,2*%
%TO.N,/Inj1*%
X91440000Y-982980000D03*
%TO.P,J3,3*%
%TO.N,Net-(D2-Pad1)*%
X91440000Y-986790000D03*
%TD*%
D14*
%TO.P,R1,1*%
%TO.N,+12V*%
X105410000Y-967740000D03*
D15*
%TO.P,R1,2*%
%TO.N,Net-(D1-Pad2)*%
X105410000Y-957580000D03*
%TD*%
%TO.P,R2,2*%
%TO.N,Net-(D2-Pad2)*%
X105410000Y-972820000D03*
D14*
%TO.P,R2,1*%
%TO.N,+12V*%
X105410000Y-982980000D03*
%TD*%
%TO.P,R3,1*%
%TO.N,+12V*%
X105410000Y-998220000D03*
D15*
%TO.P,R3,2*%
%TO.N,Net-(D3-Pad2)*%
X105410000Y-988060000D03*
%TD*%
%TO.P,R4,2*%
%TO.N,Net-(D4-Pad2)*%
X105410000Y-1003300000D03*
D14*
%TO.P,R4,1*%
%TO.N,+12V*%
X105410000Y-1013460000D03*
%TD*%
%TO.P,R5,1*%
%TO.N,+12V*%
X105410000Y-1029970000D03*
D15*
%TO.P,R5,2*%
%TO.N,Net-(D5-Pad2)*%
X105410000Y-1019810000D03*
%TD*%
%TO.P,R6,2*%
%TO.N,+12V*%
X146050000Y-967740000D03*
D14*
%TO.P,R6,1*%
%TO.N,Net-(D6-Pad2)*%
X146050000Y-957580000D03*
%TD*%
%TO.P,R7,1*%
%TO.N,Net-(D7-Pad2)*%
X146050000Y-972820000D03*
D15*
%TO.P,R7,2*%
%TO.N,+12V*%
X146050000Y-982980000D03*
%TD*%
%TO.P,R8,2*%
%TO.N,+12V*%
X146050000Y-998220000D03*
D14*
%TO.P,R8,1*%
%TO.N,Net-(D8-Pad2)*%
X146050000Y-988060000D03*
%TD*%
%TO.P,R9,1*%
%TO.N,Net-(D9-Pad2)*%
X146050000Y-1003300000D03*
D15*
%TO.P,R9,2*%
%TO.N,+12V*%
X146050000Y-1013460000D03*
%TD*%
%TO.P,R10,2*%
%TO.N,+12V*%
X146050000Y-1029970000D03*
D14*
%TO.P,R10,1*%
%TO.N,Net-(D10-Pad2)*%
X146050000Y-1019810000D03*
%TD*%
D16*
%TO.N,GND*%
X143630000Y-1016890000D03*
X124360000Y-1018580000D03*
X100560000Y-1015470000D03*
X141320000Y-995050000D03*
X125510000Y-1003300000D03*
X100200000Y-1000550000D03*
X142560000Y-964090000D03*
X110150000Y-965780000D03*
X126490000Y-971730000D03*
X101980000Y-972350000D03*
X143010000Y-969860000D03*
X120810000Y-996240000D03*
X139990000Y-1010410000D03*
%TD*%
D17*
%TO.N,Net-(D1-Pad2)*%
X105410000Y-957580000D02*
X111760000Y-957580000D01*
%TO.N,Net-(D1-Pad1)*%
X110490000Y-961390000D02*
X111760000Y-960120000D01*
X101600000Y-961390000D02*
X110490000Y-961390000D01*
X91440000Y-979170000D02*
X96520000Y-974090000D01*
X96520000Y-966470000D02*
X101600000Y-961390000D01*
X96520000Y-974090000D02*
X96520000Y-966470000D01*
%TO.N,Net-(D2-Pad2)*%
X105410000Y-972820000D02*
X111760000Y-972820000D01*
%TO.N,Net-(D2-Pad1)*%
X110490000Y-976630000D02*
X111760000Y-975360000D01*
X91440000Y-986790000D02*
X101600000Y-976630000D01*
X101600000Y-976630000D02*
X110490000Y-976630000D01*
%TO.N,Net-(D3-Pad1)*%
X97790000Y-991870000D02*
X110490000Y-991870000D01*
X110490000Y-991870000D02*
X111760000Y-990600000D01*
X91440000Y-994410000D02*
X95250000Y-994410000D01*
X95250000Y-994410000D02*
X97790000Y-991870000D01*
%TO.N,Net-(D3-Pad2)*%
X105410000Y-988060000D02*
X111760000Y-988060000D01*
%TO.N,Net-(D4-Pad2)*%
X105410000Y-1003300000D02*
X111760000Y-1003300000D01*
%TO.N,Net-(D4-Pad1)*%
X110490000Y-1007110000D02*
X111760000Y-1005840000D01*
X99060000Y-1007110000D02*
X110490000Y-1007110000D01*
X91440000Y-1003300000D02*
X95250000Y-1003300000D01*
X95250000Y-1003300000D02*
X99060000Y-1007110000D01*
%TO.N,Net-(D5-Pad1)*%
X110490000Y-1023620000D02*
X111760000Y-1022350000D01*
X92710000Y-1010920000D02*
X95250000Y-1013460000D01*
X91440000Y-1010920000D02*
X92710000Y-1010920000D01*
X95250000Y-1013460000D02*
X95250000Y-1014730000D01*
X95250000Y-1014730000D02*
X104140000Y-1023620000D01*
X104140000Y-1023620000D02*
X110490000Y-1023620000D01*
%TO.N,Net-(D5-Pad2)*%
X105410000Y-1019810000D02*
X111760000Y-1019810000D01*
%TO.N,Net-(D6-Pad2)*%
X139700000Y-957580000D02*
X146050000Y-957580000D01*
%TO.N,Net-(D7-Pad2)*%
X139700000Y-972820000D02*
X146050000Y-972820000D01*
%TO.N,Net-(D8-Pad2)*%
X139700000Y-988060000D02*
X146050000Y-988060000D01*
%TO.N,Net-(D9-Pad2)*%
X139700000Y-1003300000D02*
X146050000Y-1003300000D01*
%TO.N,Net-(D10-Pad2)*%
X139700000Y-1019810000D02*
X146050000Y-1019810000D01*
%TO.N,+12V*%
X146050000Y-967740000D02*
X147320000Y-967740000D01*
X147320000Y-967740000D02*
X148590000Y-969010000D01*
X148590000Y-980440000D02*
X146050000Y-982980000D01*
X148590000Y-969010000D02*
X148590000Y-980440000D01*
X146050000Y-982980000D02*
X148590000Y-985520000D01*
X148590000Y-985520000D02*
X148590000Y-995680000D01*
X148590000Y-995680000D02*
X146050000Y-998220000D01*
X146050000Y-998220000D02*
X148590000Y-1000760000D01*
X148590000Y-1010920000D02*
X146050000Y-1013460000D01*
X148590000Y-1000760000D02*
X148590000Y-1010920000D01*
X146050000Y-1013460000D02*
X148590000Y-1016000000D01*
X148590000Y-1016000000D02*
X148590000Y-1027430000D01*
X148590000Y-1027430000D02*
X146050000Y-1029970000D01*
X105410000Y-1029970000D02*
X146050000Y-1029970000D01*
X105410000Y-1013460000D02*
X146050000Y-1013460000D01*
X105410000Y-998220000D02*
X146050000Y-998220000D01*
X105410000Y-982980000D02*
X146050000Y-982980000D01*
X105410000Y-967740000D02*
X146050000Y-967740000D01*
X148590000Y-965200000D02*
X148590000Y-956310000D01*
X101600000Y-957580000D02*
X91440000Y-967740000D01*
X146050000Y-967740000D02*
X148590000Y-965200000D01*
X101600000Y-956310000D02*
X101600000Y-957580000D01*
X146050000Y-953770000D02*
X104140000Y-953770000D01*
X104140000Y-953770000D02*
X101600000Y-956310000D01*
X91440000Y-967740000D02*
X91440000Y-970280000D01*
X148590000Y-956310000D02*
X146050000Y-953770000D01*
%TO.N,/Inj1*%
X139700000Y-960120000D02*
X135890000Y-963930000D01*
X135890000Y-963930000D02*
X104140000Y-963930000D01*
X91440000Y-982980000D02*
X99060000Y-975360000D01*
X99060000Y-975360000D02*
X99060000Y-969010000D01*
X99060000Y-969010000D02*
X100330000Y-967740000D01*
X100330000Y-967740000D02*
X104140000Y-963930000D01*
%TO.N,/Inj2*%
X139700000Y-975360000D02*
X135890000Y-979170000D01*
X135890000Y-979170000D02*
X104140000Y-979170000D01*
X91440000Y-990600000D02*
X102839990Y-979200010D01*
X104109990Y-979200010D02*
X104140000Y-979170000D01*
X102839990Y-979200010D02*
X104109990Y-979200010D01*
%TO.N,/Inj3*%
X135890000Y-994410000D02*
X139700000Y-990600000D01*
X99060000Y-994410000D02*
X135890000Y-994410000D01*
X91440000Y-999490000D02*
X93980000Y-999490000D01*
X93980000Y-999490000D02*
X99060000Y-994410000D01*
%TO.N,/Inj4*%
X135890000Y-1009650000D02*
X139700000Y-1005840000D01*
X96520000Y-1009650000D02*
X135890000Y-1009650000D01*
X91440000Y-1007110000D02*
X93980000Y-1007110000D01*
X93980000Y-1007110000D02*
X96520000Y-1009650000D01*
%TO.N,/Inj5*%
X135890000Y-1026160000D02*
X139700000Y-1022350000D01*
X101600000Y-1026160000D02*
X135890000Y-1026160000D01*
X91440000Y-1014730000D02*
X91440000Y-1016000000D01*
X91440000Y-1016000000D02*
X101600000Y-1026160000D01*
%TD*%
D18*
%TO.N,GND*%
G36*
X157353000Y-1038733000D02*
G01*
X89027000Y-1038733000D01*
X89027000Y-1033456456D01*
X90695000Y-1033456456D01*
X90695000Y-1034103544D01*
X90821240Y-1034738199D01*
X91068871Y-1035336031D01*
X91428374Y-1035874066D01*
X91885934Y-1036331626D01*
X92423969Y-1036691129D01*
X93021801Y-1036938760D01*
X93656456Y-1037065000D01*
X94303544Y-1037065000D01*
X94938199Y-1036938760D01*
X95536031Y-1036691129D01*
X96074066Y-1036331626D01*
X96531626Y-1035874066D01*
X96891129Y-1035336031D01*
X97138760Y-1034738199D01*
X97265000Y-1034103544D01*
X97265000Y-1033456456D01*
X150385000Y-1033456456D01*
X150385000Y-1034103544D01*
X150511240Y-1034738199D01*
X150758871Y-1035336031D01*
X151118374Y-1035874066D01*
X151575934Y-1036331626D01*
X152113969Y-1036691129D01*
X152711801Y-1036938760D01*
X153346456Y-1037065000D01*
X153993544Y-1037065000D01*
X154628199Y-1036938760D01*
X155226031Y-1036691129D01*
X155764066Y-1036331626D01*
X156221626Y-1035874066D01*
X156581129Y-1035336031D01*
X156828760Y-1034738199D01*
X156955000Y-1034103544D01*
X156955000Y-1033456456D01*
X156828760Y-1032821801D01*
X156581129Y-1032223969D01*
X156221626Y-1031685934D01*
X155764066Y-1031228374D01*
X155226031Y-1030868871D01*
X154628199Y-1030621240D01*
X153993544Y-1030495000D01*
X153346456Y-1030495000D01*
X152711801Y-1030621240D01*
X152113969Y-1030868871D01*
X151575934Y-1031228374D01*
X151118374Y-1031685934D01*
X150758871Y-1032223969D01*
X150511240Y-1032821801D01*
X150385000Y-1033456456D01*
X97265000Y-1033456456D01*
X97138760Y-1032821801D01*
X96891129Y-1032223969D01*
X96531626Y-1031685934D01*
X96074066Y-1031228374D01*
X95536031Y-1030868871D01*
X94938199Y-1030621240D01*
X94303544Y-1030495000D01*
X93656456Y-1030495000D01*
X93021801Y-1030621240D01*
X92423969Y-1030868871D01*
X91885934Y-1031228374D01*
X91428374Y-1031685934D01*
X91068871Y-1032223969D01*
X90821240Y-1032821801D01*
X90695000Y-1033456456D01*
X89027000Y-1033456456D01*
X89027000Y-975439224D01*
X90270381Y-975439224D01*
X90402317Y-975734312D01*
X90743045Y-975905159D01*
X91110557Y-976006250D01*
X91490729Y-976033701D01*
X91868951Y-975986457D01*
X92230690Y-975866333D01*
X92477683Y-975734312D01*
X92609619Y-975439224D01*
X91440000Y-974269605D01*
X90270381Y-975439224D01*
X89027000Y-975439224D01*
X89027000Y-974140729D01*
X89496299Y-974140729D01*
X89543543Y-974518951D01*
X89663667Y-974880690D01*
X89795688Y-975127683D01*
X90090776Y-975259619D01*
X91260395Y-974090000D01*
X91619605Y-974090000D01*
X92789224Y-975259619D01*
X93084312Y-975127683D01*
X93255159Y-974786955D01*
X93356250Y-974419443D01*
X93383701Y-974039271D01*
X93336457Y-973661049D01*
X93216333Y-973299310D01*
X93084312Y-973052317D01*
X92789224Y-972920381D01*
X91619605Y-974090000D01*
X91260395Y-974090000D01*
X90090776Y-972920381D01*
X89795688Y-973052317D01*
X89624841Y-973393045D01*
X89523750Y-973760557D01*
X89496299Y-974140729D01*
X89027000Y-974140729D01*
X89027000Y-968980000D01*
X89501928Y-968980000D01*
X89501928Y-971580000D01*
X89514188Y-971704482D01*
X89550498Y-971824180D01*
X89609463Y-971934494D01*
X89688815Y-972031185D01*
X89785506Y-972110537D01*
X89895820Y-972169502D01*
X90015518Y-972205812D01*
X90140000Y-972218072D01*
X90937183Y-972218072D01*
X90649310Y-972313667D01*
X90402317Y-972445688D01*
X90270381Y-972740776D01*
X91440000Y-973910395D01*
X92609619Y-972740776D01*
X92477683Y-972445688D01*
X92136955Y-972274841D01*
X91930574Y-972218072D01*
X92740000Y-972218072D01*
X92864482Y-972205812D01*
X92984180Y-972169502D01*
X93094494Y-972110537D01*
X93191185Y-972031185D01*
X93270537Y-971934494D01*
X93329502Y-971824180D01*
X93365812Y-971704482D01*
X93378072Y-971580000D01*
X93378072Y-968980000D01*
X93365812Y-968855518D01*
X93329502Y-968735820D01*
X93270537Y-968625506D01*
X93191185Y-968528815D01*
X93094494Y-968449463D01*
X92984180Y-968390498D01*
X92864482Y-968354188D01*
X92740000Y-968341928D01*
X92575000Y-968341928D01*
X92575000Y-968210131D01*
X102363141Y-958421991D01*
X102406449Y-958386449D01*
X102548284Y-958213623D01*
X102653676Y-958016447D01*
X102718577Y-957802499D01*
X102735000Y-957635752D01*
X102740491Y-957580000D01*
X102735000Y-957524248D01*
X102735000Y-956780131D01*
X104610132Y-954905000D01*
X145579869Y-954905000D01*
X147455001Y-956780133D01*
X147455001Y-957287851D01*
X147429853Y-957161426D01*
X147321680Y-956900273D01*
X147164637Y-956665241D01*
X146964759Y-956465363D01*
X146729727Y-956308320D01*
X146468574Y-956200147D01*
X146191335Y-956145000D01*
X145908665Y-956145000D01*
X145631426Y-956200147D01*
X145370273Y-956308320D01*
X145165716Y-956445000D01*
X140735817Y-956445000D01*
X140678505Y-956387688D01*
X140427095Y-956219701D01*
X140147743Y-956103989D01*
X139851184Y-956045000D01*
X139548816Y-956045000D01*
X139252257Y-956103989D01*
X138972905Y-956219701D01*
X138721495Y-956387688D01*
X138507688Y-956601495D01*
X138339701Y-956852905D01*
X138223989Y-957132257D01*
X138165000Y-957428816D01*
X138165000Y-957731184D01*
X138223989Y-958027743D01*
X138339701Y-958307095D01*
X138507688Y-958558505D01*
X138574127Y-958624944D01*
X138555820Y-958630498D01*
X138445506Y-958689463D01*
X138348815Y-958768815D01*
X138269463Y-958865506D01*
X138210498Y-958975820D01*
X138174188Y-959095518D01*
X138161928Y-959220000D01*
X138161928Y-960052939D01*
X135419869Y-962795000D01*
X104195752Y-962795000D01*
X104140000Y-962789509D01*
X103917501Y-962811423D01*
X103703553Y-962876324D01*
X103506377Y-962981716D01*
X103376856Y-963088011D01*
X103376854Y-963088013D01*
X103333551Y-963123551D01*
X103298013Y-963166854D01*
X99566861Y-966898008D01*
X99566856Y-966898012D01*
X98296860Y-968168009D01*
X98253552Y-968203551D01*
X98111717Y-968376377D01*
X98088546Y-968419727D01*
X98006324Y-968573554D01*
X97941423Y-968787502D01*
X97919509Y-969010000D01*
X97925001Y-969065761D01*
X97925000Y-974889868D01*
X93378072Y-979436797D01*
X93378072Y-978837059D01*
X97283141Y-974931991D01*
X97326449Y-974896449D01*
X97468284Y-974723623D01*
X97573676Y-974526447D01*
X97638577Y-974312499D01*
X97655000Y-974145752D01*
X97655000Y-974145751D01*
X97660491Y-974090000D01*
X97655000Y-974034249D01*
X97655000Y-966940131D01*
X102070132Y-962525000D01*
X110434249Y-962525000D01*
X110490000Y-962530491D01*
X110545751Y-962525000D01*
X110545752Y-962525000D01*
X110712499Y-962508577D01*
X110926447Y-962443676D01*
X111123623Y-962338284D01*
X111296449Y-962196449D01*
X111331996Y-962153135D01*
X111827059Y-961658072D01*
X112660000Y-961658072D01*
X112784482Y-961645812D01*
X112904180Y-961609502D01*
X113014494Y-961550537D01*
X113111185Y-961471185D01*
X113190537Y-961374494D01*
X113249502Y-961264180D01*
X113285812Y-961144482D01*
X113298072Y-961020000D01*
X113298072Y-959220000D01*
X113285812Y-959095518D01*
X113249502Y-958975820D01*
X113190537Y-958865506D01*
X113111185Y-958768815D01*
X113014494Y-958689463D01*
X112904180Y-958630498D01*
X112885873Y-958624944D01*
X112952312Y-958558505D01*
X113120299Y-958307095D01*
X113236011Y-958027743D01*
X113295000Y-957731184D01*
X113295000Y-957428816D01*
X113236011Y-957132257D01*
X113120299Y-956852905D01*
X112952312Y-956601495D01*
X112738505Y-956387688D01*
X112487095Y-956219701D01*
X112207743Y-956103989D01*
X111911184Y-956045000D01*
X111608816Y-956045000D01*
X111312257Y-956103989D01*
X111032905Y-956219701D01*
X110781495Y-956387688D01*
X110724183Y-956445000D01*
X106294284Y-956445000D01*
X106089727Y-956308320D01*
X105828574Y-956200147D01*
X105551335Y-956145000D01*
X105268665Y-956145000D01*
X104991426Y-956200147D01*
X104730273Y-956308320D01*
X104495241Y-956465363D01*
X104295363Y-956665241D01*
X104138320Y-956900273D01*
X104030147Y-957161426D01*
X103975000Y-957438665D01*
X103975000Y-957721335D01*
X104030147Y-957998574D01*
X104138320Y-958259727D01*
X104295363Y-958494759D01*
X104495241Y-958694637D01*
X104730273Y-958851680D01*
X104991426Y-958959853D01*
X105268665Y-959015000D01*
X105551335Y-959015000D01*
X105828574Y-958959853D01*
X106089727Y-958851680D01*
X106294284Y-958715000D01*
X110474389Y-958715000D01*
X110408815Y-958768815D01*
X110329463Y-958865506D01*
X110270498Y-958975820D01*
X110234188Y-959095518D01*
X110221928Y-959220000D01*
X110221928Y-960052941D01*
X110019869Y-960255000D01*
X101655751Y-960255000D01*
X101600000Y-960249509D01*
X101544248Y-960255000D01*
X101377501Y-960271423D01*
X101163553Y-960336324D01*
X100966377Y-960441716D01*
X100793551Y-960583551D01*
X100758011Y-960626857D01*
X95756860Y-965628009D01*
X95713552Y-965663551D01*
X95571717Y-965836377D01*
X95515384Y-965941770D01*
X95466324Y-966033554D01*
X95401423Y-966247502D01*
X95379509Y-966470000D01*
X95385001Y-966525761D01*
X95385000Y-973619868D01*
X91772941Y-977231928D01*
X90140000Y-977231928D01*
X90015518Y-977244188D01*
X89895820Y-977280498D01*
X89785506Y-977339463D01*
X89688815Y-977418815D01*
X89609463Y-977515506D01*
X89550498Y-977625820D01*
X89514188Y-977745518D01*
X89501928Y-977870000D01*
X89501928Y-980470000D01*
X89514188Y-980594482D01*
X89550498Y-980714180D01*
X89609463Y-980824494D01*
X89688815Y-980921185D01*
X89785506Y-981000537D01*
X89895820Y-981059502D01*
X90015518Y-981095812D01*
X90140000Y-981108072D01*
X90932335Y-981108072D01*
X90875581Y-981119361D01*
X90523434Y-981265225D01*
X90206509Y-981476987D01*
X89936987Y-981746509D01*
X89725225Y-982063434D01*
X89579361Y-982415581D01*
X89505000Y-982789419D01*
X89505000Y-983170581D01*
X89579361Y-983544419D01*
X89725225Y-983896566D01*
X89936987Y-984213491D01*
X90206509Y-984483013D01*
X90523434Y-984694775D01*
X90875581Y-984840639D01*
X91098599Y-984885000D01*
X90875581Y-984929361D01*
X90523434Y-985075225D01*
X90206509Y-985286987D01*
X89936987Y-985556509D01*
X89725225Y-985873434D01*
X89579361Y-986225581D01*
X89505000Y-986599419D01*
X89505000Y-986980581D01*
X89579361Y-987354419D01*
X89725225Y-987706566D01*
X89936987Y-988023491D01*
X90206509Y-988293013D01*
X90523434Y-988504775D01*
X90875581Y-988650639D01*
X91098599Y-988695000D01*
X90875581Y-988739361D01*
X90523434Y-988885225D01*
X90206509Y-989096987D01*
X89936987Y-989366509D01*
X89725225Y-989683434D01*
X89579361Y-990035581D01*
X89505000Y-990409419D01*
X89505000Y-990790581D01*
X89579361Y-991164419D01*
X89725225Y-991516566D01*
X89936987Y-991833491D01*
X90206509Y-992103013D01*
X90523434Y-992314775D01*
X90875581Y-992460639D01*
X91098599Y-992505000D01*
X90875581Y-992549361D01*
X90523434Y-992695225D01*
X90206509Y-992906987D01*
X89936987Y-993176509D01*
X89725225Y-993493434D01*
X89579361Y-993845581D01*
X89505000Y-994219419D01*
X89505000Y-994600581D01*
X89579361Y-994974419D01*
X89725225Y-995326566D01*
X89936987Y-995643491D01*
X90206509Y-995913013D01*
X90523434Y-996124775D01*
X90875581Y-996270639D01*
X91249419Y-996345000D01*
X91630581Y-996345000D01*
X92004419Y-996270639D01*
X92356566Y-996124775D01*
X92673491Y-995913013D01*
X92943013Y-995643491D01*
X93008822Y-995545000D01*
X95194249Y-995545000D01*
X95250000Y-995550491D01*
X95305751Y-995545000D01*
X95305752Y-995545000D01*
X95472499Y-995528577D01*
X95686447Y-995463676D01*
X95883623Y-995358284D01*
X96056449Y-995216449D01*
X96091996Y-995173135D01*
X98260132Y-993005000D01*
X110434249Y-993005000D01*
X110490000Y-993010491D01*
X110545751Y-993005000D01*
X110545752Y-993005000D01*
X110712499Y-992988577D01*
X110926447Y-992923676D01*
X111123623Y-992818284D01*
X111296449Y-992676449D01*
X111331996Y-992633135D01*
X111827059Y-992138072D01*
X112660000Y-992138072D01*
X112784482Y-992125812D01*
X112904180Y-992089502D01*
X113014494Y-992030537D01*
X113111185Y-991951185D01*
X113190537Y-991854494D01*
X113249502Y-991744180D01*
X113285812Y-991624482D01*
X113298072Y-991500000D01*
X113298072Y-989700000D01*
X113285812Y-989575518D01*
X113249502Y-989455820D01*
X113190537Y-989345506D01*
X113111185Y-989248815D01*
X113014494Y-989169463D01*
X112904180Y-989110498D01*
X112885873Y-989104944D01*
X112952312Y-989038505D01*
X113120299Y-988787095D01*
X113236011Y-988507743D01*
X113295000Y-988211184D01*
X113295000Y-987908816D01*
X113236011Y-987612257D01*
X113120299Y-987332905D01*
X112952312Y-987081495D01*
X112738505Y-986867688D01*
X112487095Y-986699701D01*
X112207743Y-986583989D01*
X111911184Y-986525000D01*
X111608816Y-986525000D01*
X111312257Y-986583989D01*
X111032905Y-986699701D01*
X110781495Y-986867688D01*
X110724183Y-986925000D01*
X106294284Y-986925000D01*
X106089727Y-986788320D01*
X105828574Y-986680147D01*
X105551335Y-986625000D01*
X105268665Y-986625000D01*
X104991426Y-986680147D01*
X104730273Y-986788320D01*
X104495241Y-986945363D01*
X104295363Y-987145241D01*
X104138320Y-987380273D01*
X104030147Y-987641426D01*
X103975000Y-987918665D01*
X103975000Y-988201335D01*
X104030147Y-988478574D01*
X104138320Y-988739727D01*
X104295363Y-988974759D01*
X104495241Y-989174637D01*
X104730273Y-989331680D01*
X104991426Y-989439853D01*
X105268665Y-989495000D01*
X105551335Y-989495000D01*
X105828574Y-989439853D01*
X106089727Y-989331680D01*
X106294284Y-989195000D01*
X110474389Y-989195000D01*
X110408815Y-989248815D01*
X110329463Y-989345506D01*
X110270498Y-989455820D01*
X110234188Y-989575518D01*
X110221928Y-989700000D01*
X110221928Y-990532941D01*
X110019869Y-990735000D01*
X97845741Y-990735000D01*
X97789999Y-990729510D01*
X97734257Y-990735000D01*
X97734248Y-990735000D01*
X97567501Y-990751423D01*
X97353553Y-990816324D01*
X97156377Y-990921716D01*
X96983551Y-991063551D01*
X96948011Y-991106857D01*
X94779869Y-993275000D01*
X93008822Y-993275000D01*
X92943013Y-993176509D01*
X92673491Y-992906987D01*
X92356566Y-992695225D01*
X92004419Y-992549361D01*
X91781401Y-992505000D01*
X92004419Y-992460639D01*
X92356566Y-992314775D01*
X92673491Y-992103013D01*
X92943013Y-991833491D01*
X93154775Y-991516566D01*
X93300639Y-991164419D01*
X93375000Y-990790581D01*
X93375000Y-990409419D01*
X93351891Y-990293240D01*
X103310122Y-980335010D01*
X104054239Y-980335010D01*
X104109990Y-980340501D01*
X104165741Y-980335010D01*
X104165742Y-980335010D01*
X104332489Y-980318587D01*
X104377279Y-980305000D01*
X135834249Y-980305000D01*
X135890000Y-980310491D01*
X135945751Y-980305000D01*
X135945752Y-980305000D01*
X136112499Y-980288577D01*
X136326447Y-980223676D01*
X136523623Y-980118284D01*
X136696449Y-979976449D01*
X136731996Y-979933135D01*
X139767061Y-976898072D01*
X140600000Y-976898072D01*
X140724482Y-976885812D01*
X140844180Y-976849502D01*
X140954494Y-976790537D01*
X141051185Y-976711185D01*
X141130537Y-976614494D01*
X141189502Y-976504180D01*
X141225812Y-976384482D01*
X141238072Y-976260000D01*
X141238072Y-974460000D01*
X141225812Y-974335518D01*
X141189502Y-974215820D01*
X141130537Y-974105506D01*
X141051185Y-974008815D01*
X140985611Y-973955000D01*
X145165716Y-973955000D01*
X145370273Y-974091680D01*
X145631426Y-974199853D01*
X145908665Y-974255000D01*
X146191335Y-974255000D01*
X146468574Y-974199853D01*
X146729727Y-974091680D01*
X146964759Y-973934637D01*
X147164637Y-973734759D01*
X147321680Y-973499727D01*
X147429853Y-973238574D01*
X147455000Y-973112151D01*
X147455001Y-979969867D01*
X145872718Y-981552150D01*
X145631426Y-981600147D01*
X145370273Y-981708320D01*
X145165716Y-981845000D01*
X106294284Y-981845000D01*
X106089727Y-981708320D01*
X105828574Y-981600147D01*
X105551335Y-981545000D01*
X105268665Y-981545000D01*
X104991426Y-981600147D01*
X104730273Y-981708320D01*
X104495241Y-981865363D01*
X104295363Y-982065241D01*
X104138320Y-982300273D01*
X104030147Y-982561426D01*
X103975000Y-982838665D01*
X103975000Y-983121335D01*
X104030147Y-983398574D01*
X104138320Y-983659727D01*
X104295363Y-983894759D01*
X104495241Y-984094637D01*
X104730273Y-984251680D01*
X104991426Y-984359853D01*
X105268665Y-984415000D01*
X105551335Y-984415000D01*
X105828574Y-984359853D01*
X106089727Y-984251680D01*
X106294284Y-984115000D01*
X145165716Y-984115000D01*
X145370273Y-984251680D01*
X145631426Y-984359853D01*
X145872718Y-984407850D01*
X147455000Y-985990132D01*
X147455000Y-987767848D01*
X147429853Y-987641426D01*
X147321680Y-987380273D01*
X147164637Y-987145241D01*
X146964759Y-986945363D01*
X146729727Y-986788320D01*
X146468574Y-986680147D01*
X146191335Y-986625000D01*
X145908665Y-986625000D01*
X145631426Y-986680147D01*
X145370273Y-986788320D01*
X145165716Y-986925000D01*
X140735817Y-986925000D01*
X140678505Y-986867688D01*
X140427095Y-986699701D01*
X140147743Y-986583989D01*
X139851184Y-986525000D01*
X139548816Y-986525000D01*
X139252257Y-986583989D01*
X138972905Y-986699701D01*
X138721495Y-986867688D01*
X138507688Y-987081495D01*
X138339701Y-987332905D01*
X138223989Y-987612257D01*
X138165000Y-987908816D01*
X138165000Y-988211184D01*
X138223989Y-988507743D01*
X138339701Y-988787095D01*
X138507688Y-989038505D01*
X138574127Y-989104944D01*
X138555820Y-989110498D01*
X138445506Y-989169463D01*
X138348815Y-989248815D01*
X138269463Y-989345506D01*
X138210498Y-989455820D01*
X138174188Y-989575518D01*
X138161928Y-989700000D01*
X138161928Y-990532939D01*
X135419869Y-993275000D01*
X99115751Y-993275000D01*
X99060000Y-993269509D01*
X99004248Y-993275000D01*
X98837501Y-993291423D01*
X98623553Y-993356324D01*
X98426377Y-993461716D01*
X98253551Y-993603551D01*
X98218011Y-993646857D01*
X93509869Y-998355000D01*
X93008822Y-998355000D01*
X92943013Y-998256509D01*
X92673491Y-997986987D01*
X92356566Y-997775225D01*
X92004419Y-997629361D01*
X91630581Y-997555000D01*
X91249419Y-997555000D01*
X90875581Y-997629361D01*
X90523434Y-997775225D01*
X90206509Y-997986987D01*
X89936987Y-998256509D01*
X89725225Y-998573434D01*
X89579361Y-998925581D01*
X89505000Y-999299419D01*
X89505000Y-999680581D01*
X89579361Y-1000054419D01*
X89725225Y-1000406566D01*
X89936987Y-1000723491D01*
X90206509Y-1000993013D01*
X90523434Y-1001204775D01*
X90875581Y-1001350639D01*
X91098599Y-1001395000D01*
X90875581Y-1001439361D01*
X90523434Y-1001585225D01*
X90206509Y-1001796987D01*
X89936987Y-1002066509D01*
X89725225Y-1002383434D01*
X89579361Y-1002735581D01*
X89505000Y-1003109419D01*
X89505000Y-1003490581D01*
X89579361Y-1003864419D01*
X89725225Y-1004216566D01*
X89936987Y-1004533491D01*
X90206509Y-1004803013D01*
X90523434Y-1005014775D01*
X90875581Y-1005160639D01*
X91098599Y-1005205000D01*
X90875581Y-1005249361D01*
X90523434Y-1005395225D01*
X90206509Y-1005606987D01*
X89936987Y-1005876509D01*
X89725225Y-1006193434D01*
X89579361Y-1006545581D01*
X89505000Y-1006919419D01*
X89505000Y-1007300581D01*
X89579361Y-1007674419D01*
X89725225Y-1008026566D01*
X89936987Y-1008343491D01*
X90206509Y-1008613013D01*
X90523434Y-1008824775D01*
X90875581Y-1008970639D01*
X91098599Y-1009015000D01*
X90875581Y-1009059361D01*
X90523434Y-1009205225D01*
X90206509Y-1009416987D01*
X89936987Y-1009686509D01*
X89725225Y-1010003434D01*
X89579361Y-1010355581D01*
X89505000Y-1010729419D01*
X89505000Y-1011110581D01*
X89579361Y-1011484419D01*
X89725225Y-1011836566D01*
X89936987Y-1012153491D01*
X90206509Y-1012423013D01*
X90523434Y-1012634775D01*
X90875581Y-1012780639D01*
X90932335Y-1012791928D01*
X90140000Y-1012791928D01*
X90015518Y-1012804188D01*
X89895820Y-1012840498D01*
X89785506Y-1012899463D01*
X89688815Y-1012978815D01*
X89609463Y-1013075506D01*
X89550498Y-1013185820D01*
X89514188Y-1013305518D01*
X89501928Y-1013430000D01*
X89501928Y-1016030000D01*
X89514188Y-1016154482D01*
X89550498Y-1016274180D01*
X89609463Y-1016384494D01*
X89688815Y-1016481185D01*
X89785506Y-1016560537D01*
X89895820Y-1016619502D01*
X90015518Y-1016655812D01*
X90140000Y-1016668072D01*
X90519989Y-1016668072D01*
X90633552Y-1016806449D01*
X90676860Y-1016841991D01*
X100758009Y-1026923141D01*
X100793551Y-1026966449D01*
X100966376Y-1027108283D01*
X100966377Y-1027108284D01*
X101163553Y-1027213676D01*
X101377501Y-1027278577D01*
X101600000Y-1027300491D01*
X101655752Y-1027295000D01*
X135834249Y-1027295000D01*
X135890000Y-1027300491D01*
X135945751Y-1027295000D01*
X135945752Y-1027295000D01*
X136112499Y-1027278577D01*
X136326447Y-1027213676D01*
X136523623Y-1027108284D01*
X136696449Y-1026966449D01*
X136731996Y-1026923135D01*
X139767061Y-1023888072D01*
X140600000Y-1023888072D01*
X140724482Y-1023875812D01*
X140844180Y-1023839502D01*
X140954494Y-1023780537D01*
X141051185Y-1023701185D01*
X141130537Y-1023604494D01*
X141189502Y-1023494180D01*
X141225812Y-1023374482D01*
X141238072Y-1023250000D01*
X141238072Y-1021450000D01*
X141225812Y-1021325518D01*
X141189502Y-1021205820D01*
X141130537Y-1021095506D01*
X141051185Y-1020998815D01*
X140985611Y-1020945000D01*
X145165716Y-1020945000D01*
X145370273Y-1021081680D01*
X145631426Y-1021189853D01*
X145908665Y-1021245000D01*
X146191335Y-1021245000D01*
X146468574Y-1021189853D01*
X146729727Y-1021081680D01*
X146964759Y-1020924637D01*
X147164637Y-1020724759D01*
X147321680Y-1020489727D01*
X147429853Y-1020228574D01*
X147455000Y-1020102151D01*
X147455001Y-1026959867D01*
X145872718Y-1028542150D01*
X145631426Y-1028590147D01*
X145370273Y-1028698320D01*
X145165716Y-1028835000D01*
X106294284Y-1028835000D01*
X106089727Y-1028698320D01*
X105828574Y-1028590147D01*
X105551335Y-1028535000D01*
X105268665Y-1028535000D01*
X104991426Y-1028590147D01*
X104730273Y-1028698320D01*
X104495241Y-1028855363D01*
X104295363Y-1029055241D01*
X104138320Y-1029290273D01*
X104030147Y-1029551426D01*
X103975000Y-1029828665D01*
X103975000Y-1030111335D01*
X104030147Y-1030388574D01*
X104138320Y-1030649727D01*
X104295363Y-1030884759D01*
X104495241Y-1031084637D01*
X104730273Y-1031241680D01*
X104991426Y-1031349853D01*
X105268665Y-1031405000D01*
X105551335Y-1031405000D01*
X105828574Y-1031349853D01*
X106089727Y-1031241680D01*
X106294284Y-1031105000D01*
X145165716Y-1031105000D01*
X145370273Y-1031241680D01*
X145631426Y-1031349853D01*
X145908665Y-1031405000D01*
X146191335Y-1031405000D01*
X146468574Y-1031349853D01*
X146729727Y-1031241680D01*
X146964759Y-1031084637D01*
X147164637Y-1030884759D01*
X147321680Y-1030649727D01*
X147429853Y-1030388574D01*
X147477850Y-1030147282D01*
X149353141Y-1028271991D01*
X149396449Y-1028236449D01*
X149538284Y-1028063623D01*
X149643676Y-1027866447D01*
X149708577Y-1027652499D01*
X149725000Y-1027485752D01*
X149725000Y-1027485743D01*
X149730490Y-1027430001D01*
X149725000Y-1027374259D01*
X149725000Y-1016055741D01*
X149730490Y-1015999999D01*
X149725000Y-1015944257D01*
X149725000Y-1015944248D01*
X149708577Y-1015777501D01*
X149643676Y-1015563553D01*
X149538284Y-1015366377D01*
X149396449Y-1015193551D01*
X149353141Y-1015158009D01*
X147655131Y-1013460000D01*
X149353141Y-1011761991D01*
X149396449Y-1011726449D01*
X149538284Y-1011553623D01*
X149643676Y-1011356447D01*
X149708577Y-1011142499D01*
X149725000Y-1010975752D01*
X149725000Y-1010975743D01*
X149730490Y-1010920001D01*
X149725000Y-1010864259D01*
X149725000Y-1000815741D01*
X149730490Y-1000759999D01*
X149725000Y-1000704257D01*
X149725000Y-1000704248D01*
X149708577Y-1000537501D01*
X149643676Y-1000323553D01*
X149538284Y-1000126377D01*
X149396449Y-999953551D01*
X149353141Y-999918009D01*
X147655131Y-998220000D01*
X149353141Y-996521991D01*
X149396449Y-996486449D01*
X149538284Y-996313623D01*
X149643676Y-996116447D01*
X149708577Y-995902499D01*
X149725000Y-995735752D01*
X149725000Y-995735743D01*
X149730490Y-995680001D01*
X149725000Y-995624259D01*
X149725000Y-985575741D01*
X149730490Y-985519999D01*
X149725000Y-985464257D01*
X149725000Y-985464248D01*
X149708577Y-985297501D01*
X149643676Y-985083553D01*
X149538284Y-984886377D01*
X149396449Y-984713551D01*
X149353141Y-984678009D01*
X147655131Y-982980000D01*
X149353141Y-981281991D01*
X149396449Y-981246449D01*
X149538284Y-981073623D01*
X149643676Y-980876447D01*
X149708577Y-980662499D01*
X149725000Y-980495752D01*
X149725000Y-980495743D01*
X149730490Y-980440001D01*
X149725000Y-980384259D01*
X149725000Y-969065743D01*
X149730490Y-969009999D01*
X149725000Y-968954255D01*
X149725000Y-968954248D01*
X149708577Y-968787501D01*
X149643676Y-968573553D01*
X149538284Y-968376377D01*
X149396449Y-968203551D01*
X149353140Y-968168008D01*
X148290131Y-967105000D01*
X149353141Y-966041991D01*
X149396449Y-966006449D01*
X149538284Y-965833623D01*
X149643676Y-965636447D01*
X149708577Y-965422499D01*
X149725000Y-965255752D01*
X149725000Y-965255743D01*
X149730490Y-965200001D01*
X149725000Y-965144259D01*
X149725000Y-956365741D01*
X149730490Y-956309999D01*
X149725000Y-956254257D01*
X149725000Y-956254248D01*
X149708577Y-956087501D01*
X149643676Y-955873553D01*
X149538284Y-955676377D01*
X149396449Y-955503551D01*
X149353141Y-955468009D01*
X146891996Y-953006865D01*
X146856449Y-952963551D01*
X146683623Y-952821716D01*
X146486447Y-952716324D01*
X146272499Y-952651423D01*
X146105752Y-952635000D01*
X146105751Y-952635000D01*
X146050000Y-952629509D01*
X145994249Y-952635000D01*
X104195741Y-952635000D01*
X104139999Y-952629510D01*
X104084257Y-952635000D01*
X104084248Y-952635000D01*
X103917501Y-952651423D01*
X103703553Y-952716324D01*
X103506377Y-952821716D01*
X103333551Y-952963551D01*
X103298009Y-953006859D01*
X100836865Y-955468004D01*
X100793551Y-955503551D01*
X100651716Y-955676377D01*
X100593657Y-955785000D01*
X100546324Y-955873554D01*
X100481423Y-956087502D01*
X100459509Y-956310000D01*
X100465000Y-956365751D01*
X100465000Y-957109868D01*
X90676865Y-966898004D01*
X90633551Y-966933551D01*
X90491716Y-967106377D01*
X90400812Y-967276448D01*
X90386324Y-967303554D01*
X90321423Y-967517502D01*
X90299509Y-967740000D01*
X90305000Y-967795752D01*
X90305000Y-968341928D01*
X90140000Y-968341928D01*
X90015518Y-968354188D01*
X89895820Y-968390498D01*
X89785506Y-968449463D01*
X89688815Y-968528815D01*
X89609463Y-968625506D01*
X89550498Y-968735820D01*
X89514188Y-968855518D01*
X89501928Y-968980000D01*
X89027000Y-968980000D01*
X89027000Y-952176456D01*
X90695000Y-952176456D01*
X90695000Y-952823544D01*
X90821240Y-953458199D01*
X91068871Y-954056031D01*
X91428374Y-954594066D01*
X91885934Y-955051626D01*
X92423969Y-955411129D01*
X93021801Y-955658760D01*
X93656456Y-955785000D01*
X94303544Y-955785000D01*
X94938199Y-955658760D01*
X95536031Y-955411129D01*
X96074066Y-955051626D01*
X96531626Y-954594066D01*
X96891129Y-954056031D01*
X97138760Y-953458199D01*
X97265000Y-952823544D01*
X97265000Y-952176456D01*
X150385000Y-952176456D01*
X150385000Y-952823544D01*
X150511240Y-953458199D01*
X150758871Y-954056031D01*
X151118374Y-954594066D01*
X151575934Y-955051626D01*
X152113969Y-955411129D01*
X152711801Y-955658760D01*
X153346456Y-955785000D01*
X153993544Y-955785000D01*
X154628199Y-955658760D01*
X155226031Y-955411129D01*
X155764066Y-955051626D01*
X156221626Y-954594066D01*
X156581129Y-954056031D01*
X156828760Y-953458199D01*
X156955000Y-952823544D01*
X156955000Y-952176456D01*
X156828760Y-951541801D01*
X156581129Y-950943969D01*
X156221626Y-950405934D01*
X155764066Y-949948374D01*
X155226031Y-949588871D01*
X154628199Y-949341240D01*
X153993544Y-949215000D01*
X153346456Y-949215000D01*
X152711801Y-949341240D01*
X152113969Y-949588871D01*
X151575934Y-949948374D01*
X151118374Y-950405934D01*
X150758871Y-950943969D01*
X150511240Y-951541801D01*
X150385000Y-952176456D01*
X97265000Y-952176456D01*
X97138760Y-951541801D01*
X96891129Y-950943969D01*
X96531626Y-950405934D01*
X96074066Y-949948374D01*
X95536031Y-949588871D01*
X94938199Y-949341240D01*
X94303544Y-949215000D01*
X93656456Y-949215000D01*
X93021801Y-949341240D01*
X92423969Y-949588871D01*
X91885934Y-949948374D01*
X91428374Y-950405934D01*
X91068871Y-950943969D01*
X90821240Y-951541801D01*
X90695000Y-952176456D01*
X89027000Y-952176456D01*
X89027000Y-948817000D01*
X157353000Y-948817000D01*
X157353000Y-1038733000D01*
G37*
X157353000Y-1038733000D02*
X89027000Y-1038733000D01*
X89027000Y-1033456456D01*
X90695000Y-1033456456D01*
X90695000Y-1034103544D01*
X90821240Y-1034738199D01*
X91068871Y-1035336031D01*
X91428374Y-1035874066D01*
X91885934Y-1036331626D01*
X92423969Y-1036691129D01*
X93021801Y-1036938760D01*
X93656456Y-1037065000D01*
X94303544Y-1037065000D01*
X94938199Y-1036938760D01*
X95536031Y-1036691129D01*
X96074066Y-1036331626D01*
X96531626Y-1035874066D01*
X96891129Y-1035336031D01*
X97138760Y-1034738199D01*
X97265000Y-1034103544D01*
X97265000Y-1033456456D01*
X150385000Y-1033456456D01*
X150385000Y-1034103544D01*
X150511240Y-1034738199D01*
X150758871Y-1035336031D01*
X151118374Y-1035874066D01*
X151575934Y-1036331626D01*
X152113969Y-1036691129D01*
X152711801Y-1036938760D01*
X153346456Y-1037065000D01*
X153993544Y-1037065000D01*
X154628199Y-1036938760D01*
X155226031Y-1036691129D01*
X155764066Y-1036331626D01*
X156221626Y-1035874066D01*
X156581129Y-1035336031D01*
X156828760Y-1034738199D01*
X156955000Y-1034103544D01*
X156955000Y-1033456456D01*
X156828760Y-1032821801D01*
X156581129Y-1032223969D01*
X156221626Y-1031685934D01*
X155764066Y-1031228374D01*
X155226031Y-1030868871D01*
X154628199Y-1030621240D01*
X153993544Y-1030495000D01*
X153346456Y-1030495000D01*
X152711801Y-1030621240D01*
X152113969Y-1030868871D01*
X151575934Y-1031228374D01*
X151118374Y-1031685934D01*
X150758871Y-1032223969D01*
X150511240Y-1032821801D01*
X150385000Y-1033456456D01*
X97265000Y-1033456456D01*
X97138760Y-1032821801D01*
X96891129Y-1032223969D01*
X96531626Y-1031685934D01*
X96074066Y-1031228374D01*
X95536031Y-1030868871D01*
X94938199Y-1030621240D01*
X94303544Y-1030495000D01*
X93656456Y-1030495000D01*
X93021801Y-1030621240D01*
X92423969Y-1030868871D01*
X91885934Y-1031228374D01*
X91428374Y-1031685934D01*
X91068871Y-1032223969D01*
X90821240Y-1032821801D01*
X90695000Y-1033456456D01*
X89027000Y-1033456456D01*
X89027000Y-975439224D01*
X90270381Y-975439224D01*
X90402317Y-975734312D01*
X90743045Y-975905159D01*
X91110557Y-976006250D01*
X91490729Y-976033701D01*
X91868951Y-975986457D01*
X92230690Y-975866333D01*
X92477683Y-975734312D01*
X92609619Y-975439224D01*
X91440000Y-974269605D01*
X90270381Y-975439224D01*
X89027000Y-975439224D01*
X89027000Y-974140729D01*
X89496299Y-974140729D01*
X89543543Y-974518951D01*
X89663667Y-974880690D01*
X89795688Y-975127683D01*
X90090776Y-975259619D01*
X91260395Y-974090000D01*
X91619605Y-974090000D01*
X92789224Y-975259619D01*
X93084312Y-975127683D01*
X93255159Y-974786955D01*
X93356250Y-974419443D01*
X93383701Y-974039271D01*
X93336457Y-973661049D01*
X93216333Y-973299310D01*
X93084312Y-973052317D01*
X92789224Y-972920381D01*
X91619605Y-974090000D01*
X91260395Y-974090000D01*
X90090776Y-972920381D01*
X89795688Y-973052317D01*
X89624841Y-973393045D01*
X89523750Y-973760557D01*
X89496299Y-974140729D01*
X89027000Y-974140729D01*
X89027000Y-968980000D01*
X89501928Y-968980000D01*
X89501928Y-971580000D01*
X89514188Y-971704482D01*
X89550498Y-971824180D01*
X89609463Y-971934494D01*
X89688815Y-972031185D01*
X89785506Y-972110537D01*
X89895820Y-972169502D01*
X90015518Y-972205812D01*
X90140000Y-972218072D01*
X90937183Y-972218072D01*
X90649310Y-972313667D01*
X90402317Y-972445688D01*
X90270381Y-972740776D01*
X91440000Y-973910395D01*
X92609619Y-972740776D01*
X92477683Y-972445688D01*
X92136955Y-972274841D01*
X91930574Y-972218072D01*
X92740000Y-972218072D01*
X92864482Y-972205812D01*
X92984180Y-972169502D01*
X93094494Y-972110537D01*
X93191185Y-972031185D01*
X93270537Y-971934494D01*
X93329502Y-971824180D01*
X93365812Y-971704482D01*
X93378072Y-971580000D01*
X93378072Y-968980000D01*
X93365812Y-968855518D01*
X93329502Y-968735820D01*
X93270537Y-968625506D01*
X93191185Y-968528815D01*
X93094494Y-968449463D01*
X92984180Y-968390498D01*
X92864482Y-968354188D01*
X92740000Y-968341928D01*
X92575000Y-968341928D01*
X92575000Y-968210131D01*
X102363141Y-958421991D01*
X102406449Y-958386449D01*
X102548284Y-958213623D01*
X102653676Y-958016447D01*
X102718577Y-957802499D01*
X102735000Y-957635752D01*
X102740491Y-957580000D01*
X102735000Y-957524248D01*
X102735000Y-956780131D01*
X104610132Y-954905000D01*
X145579869Y-954905000D01*
X147455001Y-956780133D01*
X147455001Y-957287851D01*
X147429853Y-957161426D01*
X147321680Y-956900273D01*
X147164637Y-956665241D01*
X146964759Y-956465363D01*
X146729727Y-956308320D01*
X146468574Y-956200147D01*
X146191335Y-956145000D01*
X145908665Y-956145000D01*
X145631426Y-956200147D01*
X145370273Y-956308320D01*
X145165716Y-956445000D01*
X140735817Y-956445000D01*
X140678505Y-956387688D01*
X140427095Y-956219701D01*
X140147743Y-956103989D01*
X139851184Y-956045000D01*
X139548816Y-956045000D01*
X139252257Y-956103989D01*
X138972905Y-956219701D01*
X138721495Y-956387688D01*
X138507688Y-956601495D01*
X138339701Y-956852905D01*
X138223989Y-957132257D01*
X138165000Y-957428816D01*
X138165000Y-957731184D01*
X138223989Y-958027743D01*
X138339701Y-958307095D01*
X138507688Y-958558505D01*
X138574127Y-958624944D01*
X138555820Y-958630498D01*
X138445506Y-958689463D01*
X138348815Y-958768815D01*
X138269463Y-958865506D01*
X138210498Y-958975820D01*
X138174188Y-959095518D01*
X138161928Y-959220000D01*
X138161928Y-960052939D01*
X135419869Y-962795000D01*
X104195752Y-962795000D01*
X104140000Y-962789509D01*
X103917501Y-962811423D01*
X103703553Y-962876324D01*
X103506377Y-962981716D01*
X103376856Y-963088011D01*
X103376854Y-963088013D01*
X103333551Y-963123551D01*
X103298013Y-963166854D01*
X99566861Y-966898008D01*
X99566856Y-966898012D01*
X98296860Y-968168009D01*
X98253552Y-968203551D01*
X98111717Y-968376377D01*
X98088546Y-968419727D01*
X98006324Y-968573554D01*
X97941423Y-968787502D01*
X97919509Y-969010000D01*
X97925001Y-969065761D01*
X97925000Y-974889868D01*
X93378072Y-979436797D01*
X93378072Y-978837059D01*
X97283141Y-974931991D01*
X97326449Y-974896449D01*
X97468284Y-974723623D01*
X97573676Y-974526447D01*
X97638577Y-974312499D01*
X97655000Y-974145752D01*
X97655000Y-974145751D01*
X97660491Y-974090000D01*
X97655000Y-974034249D01*
X97655000Y-966940131D01*
X102070132Y-962525000D01*
X110434249Y-962525000D01*
X110490000Y-962530491D01*
X110545751Y-962525000D01*
X110545752Y-962525000D01*
X110712499Y-962508577D01*
X110926447Y-962443676D01*
X111123623Y-962338284D01*
X111296449Y-962196449D01*
X111331996Y-962153135D01*
X111827059Y-961658072D01*
X112660000Y-961658072D01*
X112784482Y-961645812D01*
X112904180Y-961609502D01*
X113014494Y-961550537D01*
X113111185Y-961471185D01*
X113190537Y-961374494D01*
X113249502Y-961264180D01*
X113285812Y-961144482D01*
X113298072Y-961020000D01*
X113298072Y-959220000D01*
X113285812Y-959095518D01*
X113249502Y-958975820D01*
X113190537Y-958865506D01*
X113111185Y-958768815D01*
X113014494Y-958689463D01*
X112904180Y-958630498D01*
X112885873Y-958624944D01*
X112952312Y-958558505D01*
X113120299Y-958307095D01*
X113236011Y-958027743D01*
X113295000Y-957731184D01*
X113295000Y-957428816D01*
X113236011Y-957132257D01*
X113120299Y-956852905D01*
X112952312Y-956601495D01*
X112738505Y-956387688D01*
X112487095Y-956219701D01*
X112207743Y-956103989D01*
X111911184Y-956045000D01*
X111608816Y-956045000D01*
X111312257Y-956103989D01*
X111032905Y-956219701D01*
X110781495Y-956387688D01*
X110724183Y-956445000D01*
X106294284Y-956445000D01*
X106089727Y-956308320D01*
X105828574Y-956200147D01*
X105551335Y-956145000D01*
X105268665Y-956145000D01*
X104991426Y-956200147D01*
X104730273Y-956308320D01*
X104495241Y-956465363D01*
X104295363Y-956665241D01*
X104138320Y-956900273D01*
X104030147Y-957161426D01*
X103975000Y-957438665D01*
X103975000Y-957721335D01*
X104030147Y-957998574D01*
X104138320Y-958259727D01*
X104295363Y-958494759D01*
X104495241Y-958694637D01*
X104730273Y-958851680D01*
X104991426Y-958959853D01*
X105268665Y-959015000D01*
X105551335Y-959015000D01*
X105828574Y-958959853D01*
X106089727Y-958851680D01*
X106294284Y-958715000D01*
X110474389Y-958715000D01*
X110408815Y-958768815D01*
X110329463Y-958865506D01*
X110270498Y-958975820D01*
X110234188Y-959095518D01*
X110221928Y-959220000D01*
X110221928Y-960052941D01*
X110019869Y-960255000D01*
X101655751Y-960255000D01*
X101600000Y-960249509D01*
X101544248Y-960255000D01*
X101377501Y-960271423D01*
X101163553Y-960336324D01*
X100966377Y-960441716D01*
X100793551Y-960583551D01*
X100758011Y-960626857D01*
X95756860Y-965628009D01*
X95713552Y-965663551D01*
X95571717Y-965836377D01*
X95515384Y-965941770D01*
X95466324Y-966033554D01*
X95401423Y-966247502D01*
X95379509Y-966470000D01*
X95385001Y-966525761D01*
X95385000Y-973619868D01*
X91772941Y-977231928D01*
X90140000Y-977231928D01*
X90015518Y-977244188D01*
X89895820Y-977280498D01*
X89785506Y-977339463D01*
X89688815Y-977418815D01*
X89609463Y-977515506D01*
X89550498Y-977625820D01*
X89514188Y-977745518D01*
X89501928Y-977870000D01*
X89501928Y-980470000D01*
X89514188Y-980594482D01*
X89550498Y-980714180D01*
X89609463Y-980824494D01*
X89688815Y-980921185D01*
X89785506Y-981000537D01*
X89895820Y-981059502D01*
X90015518Y-981095812D01*
X90140000Y-981108072D01*
X90932335Y-981108072D01*
X90875581Y-981119361D01*
X90523434Y-981265225D01*
X90206509Y-981476987D01*
X89936987Y-981746509D01*
X89725225Y-982063434D01*
X89579361Y-982415581D01*
X89505000Y-982789419D01*
X89505000Y-983170581D01*
X89579361Y-983544419D01*
X89725225Y-983896566D01*
X89936987Y-984213491D01*
X90206509Y-984483013D01*
X90523434Y-984694775D01*
X90875581Y-984840639D01*
X91098599Y-984885000D01*
X90875581Y-984929361D01*
X90523434Y-985075225D01*
X90206509Y-985286987D01*
X89936987Y-985556509D01*
X89725225Y-985873434D01*
X89579361Y-986225581D01*
X89505000Y-986599419D01*
X89505000Y-986980581D01*
X89579361Y-987354419D01*
X89725225Y-987706566D01*
X89936987Y-988023491D01*
X90206509Y-988293013D01*
X90523434Y-988504775D01*
X90875581Y-988650639D01*
X91098599Y-988695000D01*
X90875581Y-988739361D01*
X90523434Y-988885225D01*
X90206509Y-989096987D01*
X89936987Y-989366509D01*
X89725225Y-989683434D01*
X89579361Y-990035581D01*
X89505000Y-990409419D01*
X89505000Y-990790581D01*
X89579361Y-991164419D01*
X89725225Y-991516566D01*
X89936987Y-991833491D01*
X90206509Y-992103013D01*
X90523434Y-992314775D01*
X90875581Y-992460639D01*
X91098599Y-992505000D01*
X90875581Y-992549361D01*
X90523434Y-992695225D01*
X90206509Y-992906987D01*
X89936987Y-993176509D01*
X89725225Y-993493434D01*
X89579361Y-993845581D01*
X89505000Y-994219419D01*
X89505000Y-994600581D01*
X89579361Y-994974419D01*
X89725225Y-995326566D01*
X89936987Y-995643491D01*
X90206509Y-995913013D01*
X90523434Y-996124775D01*
X90875581Y-996270639D01*
X91249419Y-996345000D01*
X91630581Y-996345000D01*
X92004419Y-996270639D01*
X92356566Y-996124775D01*
X92673491Y-995913013D01*
X92943013Y-995643491D01*
X93008822Y-995545000D01*
X95194249Y-995545000D01*
X95250000Y-995550491D01*
X95305751Y-995545000D01*
X95305752Y-995545000D01*
X95472499Y-995528577D01*
X95686447Y-995463676D01*
X95883623Y-995358284D01*
X96056449Y-995216449D01*
X96091996Y-995173135D01*
X98260132Y-993005000D01*
X110434249Y-993005000D01*
X110490000Y-993010491D01*
X110545751Y-993005000D01*
X110545752Y-993005000D01*
X110712499Y-992988577D01*
X110926447Y-992923676D01*
X111123623Y-992818284D01*
X111296449Y-992676449D01*
X111331996Y-992633135D01*
X111827059Y-992138072D01*
X112660000Y-992138072D01*
X112784482Y-992125812D01*
X112904180Y-992089502D01*
X113014494Y-992030537D01*
X113111185Y-991951185D01*
X113190537Y-991854494D01*
X113249502Y-991744180D01*
X113285812Y-991624482D01*
X113298072Y-991500000D01*
X113298072Y-989700000D01*
X113285812Y-989575518D01*
X113249502Y-989455820D01*
X113190537Y-989345506D01*
X113111185Y-989248815D01*
X113014494Y-989169463D01*
X112904180Y-989110498D01*
X112885873Y-989104944D01*
X112952312Y-989038505D01*
X113120299Y-988787095D01*
X113236011Y-988507743D01*
X113295000Y-988211184D01*
X113295000Y-987908816D01*
X113236011Y-987612257D01*
X113120299Y-987332905D01*
X112952312Y-987081495D01*
X112738505Y-986867688D01*
X112487095Y-986699701D01*
X112207743Y-986583989D01*
X111911184Y-986525000D01*
X111608816Y-986525000D01*
X111312257Y-986583989D01*
X111032905Y-986699701D01*
X110781495Y-986867688D01*
X110724183Y-986925000D01*
X106294284Y-986925000D01*
X106089727Y-986788320D01*
X105828574Y-986680147D01*
X105551335Y-986625000D01*
X105268665Y-986625000D01*
X104991426Y-986680147D01*
X104730273Y-986788320D01*
X104495241Y-986945363D01*
X104295363Y-987145241D01*
X104138320Y-987380273D01*
X104030147Y-987641426D01*
X103975000Y-987918665D01*
X103975000Y-988201335D01*
X104030147Y-988478574D01*
X104138320Y-988739727D01*
X104295363Y-988974759D01*
X104495241Y-989174637D01*
X104730273Y-989331680D01*
X104991426Y-989439853D01*
X105268665Y-989495000D01*
X105551335Y-989495000D01*
X105828574Y-989439853D01*
X106089727Y-989331680D01*
X106294284Y-989195000D01*
X110474389Y-989195000D01*
X110408815Y-989248815D01*
X110329463Y-989345506D01*
X110270498Y-989455820D01*
X110234188Y-989575518D01*
X110221928Y-989700000D01*
X110221928Y-990532941D01*
X110019869Y-990735000D01*
X97845741Y-990735000D01*
X97789999Y-990729510D01*
X97734257Y-990735000D01*
X97734248Y-990735000D01*
X97567501Y-990751423D01*
X97353553Y-990816324D01*
X97156377Y-990921716D01*
X96983551Y-991063551D01*
X96948011Y-991106857D01*
X94779869Y-993275000D01*
X93008822Y-993275000D01*
X92943013Y-993176509D01*
X92673491Y-992906987D01*
X92356566Y-992695225D01*
X92004419Y-992549361D01*
X91781401Y-992505000D01*
X92004419Y-992460639D01*
X92356566Y-992314775D01*
X92673491Y-992103013D01*
X92943013Y-991833491D01*
X93154775Y-991516566D01*
X93300639Y-991164419D01*
X93375000Y-990790581D01*
X93375000Y-990409419D01*
X93351891Y-990293240D01*
X103310122Y-980335010D01*
X104054239Y-980335010D01*
X104109990Y-980340501D01*
X104165741Y-980335010D01*
X104165742Y-980335010D01*
X104332489Y-980318587D01*
X104377279Y-980305000D01*
X135834249Y-980305000D01*
X135890000Y-980310491D01*
X135945751Y-980305000D01*
X135945752Y-980305000D01*
X136112499Y-980288577D01*
X136326447Y-980223676D01*
X136523623Y-980118284D01*
X136696449Y-979976449D01*
X136731996Y-979933135D01*
X139767061Y-976898072D01*
X140600000Y-976898072D01*
X140724482Y-976885812D01*
X140844180Y-976849502D01*
X140954494Y-976790537D01*
X141051185Y-976711185D01*
X141130537Y-976614494D01*
X141189502Y-976504180D01*
X141225812Y-976384482D01*
X141238072Y-976260000D01*
X141238072Y-974460000D01*
X141225812Y-974335518D01*
X141189502Y-974215820D01*
X141130537Y-974105506D01*
X141051185Y-974008815D01*
X140985611Y-973955000D01*
X145165716Y-973955000D01*
X145370273Y-974091680D01*
X145631426Y-974199853D01*
X145908665Y-974255000D01*
X146191335Y-974255000D01*
X146468574Y-974199853D01*
X146729727Y-974091680D01*
X146964759Y-973934637D01*
X147164637Y-973734759D01*
X147321680Y-973499727D01*
X147429853Y-973238574D01*
X147455000Y-973112151D01*
X147455001Y-979969867D01*
X145872718Y-981552150D01*
X145631426Y-981600147D01*
X145370273Y-981708320D01*
X145165716Y-981845000D01*
X106294284Y-981845000D01*
X106089727Y-981708320D01*
X105828574Y-981600147D01*
X105551335Y-981545000D01*
X105268665Y-981545000D01*
X104991426Y-981600147D01*
X104730273Y-981708320D01*
X104495241Y-981865363D01*
X104295363Y-982065241D01*
X104138320Y-982300273D01*
X104030147Y-982561426D01*
X103975000Y-982838665D01*
X103975000Y-983121335D01*
X104030147Y-983398574D01*
X104138320Y-983659727D01*
X104295363Y-983894759D01*
X104495241Y-984094637D01*
X104730273Y-984251680D01*
X104991426Y-984359853D01*
X105268665Y-984415000D01*
X105551335Y-984415000D01*
X105828574Y-984359853D01*
X106089727Y-984251680D01*
X106294284Y-984115000D01*
X145165716Y-984115000D01*
X145370273Y-984251680D01*
X145631426Y-984359853D01*
X145872718Y-984407850D01*
X147455000Y-985990132D01*
X147455000Y-987767848D01*
X147429853Y-987641426D01*
X147321680Y-987380273D01*
X147164637Y-987145241D01*
X146964759Y-986945363D01*
X146729727Y-986788320D01*
X146468574Y-986680147D01*
X146191335Y-986625000D01*
X145908665Y-986625000D01*
X145631426Y-986680147D01*
X145370273Y-986788320D01*
X145165716Y-986925000D01*
X140735817Y-986925000D01*
X140678505Y-986867688D01*
X140427095Y-986699701D01*
X140147743Y-986583989D01*
X139851184Y-986525000D01*
X139548816Y-986525000D01*
X139252257Y-986583989D01*
X138972905Y-986699701D01*
X138721495Y-986867688D01*
X138507688Y-987081495D01*
X138339701Y-987332905D01*
X138223989Y-987612257D01*
X138165000Y-987908816D01*
X138165000Y-988211184D01*
X138223989Y-988507743D01*
X138339701Y-988787095D01*
X138507688Y-989038505D01*
X138574127Y-989104944D01*
X138555820Y-989110498D01*
X138445506Y-989169463D01*
X138348815Y-989248815D01*
X138269463Y-989345506D01*
X138210498Y-989455820D01*
X138174188Y-989575518D01*
X138161928Y-989700000D01*
X138161928Y-990532939D01*
X135419869Y-993275000D01*
X99115751Y-993275000D01*
X99060000Y-993269509D01*
X99004248Y-993275000D01*
X98837501Y-993291423D01*
X98623553Y-993356324D01*
X98426377Y-993461716D01*
X98253551Y-993603551D01*
X98218011Y-993646857D01*
X93509869Y-998355000D01*
X93008822Y-998355000D01*
X92943013Y-998256509D01*
X92673491Y-997986987D01*
X92356566Y-997775225D01*
X92004419Y-997629361D01*
X91630581Y-997555000D01*
X91249419Y-997555000D01*
X90875581Y-997629361D01*
X90523434Y-997775225D01*
X90206509Y-997986987D01*
X89936987Y-998256509D01*
X89725225Y-998573434D01*
X89579361Y-998925581D01*
X89505000Y-999299419D01*
X89505000Y-999680581D01*
X89579361Y-1000054419D01*
X89725225Y-1000406566D01*
X89936987Y-1000723491D01*
X90206509Y-1000993013D01*
X90523434Y-1001204775D01*
X90875581Y-1001350639D01*
X91098599Y-1001395000D01*
X90875581Y-1001439361D01*
X90523434Y-1001585225D01*
X90206509Y-1001796987D01*
X89936987Y-1002066509D01*
X89725225Y-1002383434D01*
X89579361Y-1002735581D01*
X89505000Y-1003109419D01*
X89505000Y-1003490581D01*
X89579361Y-1003864419D01*
X89725225Y-1004216566D01*
X89936987Y-1004533491D01*
X90206509Y-1004803013D01*
X90523434Y-1005014775D01*
X90875581Y-1005160639D01*
X91098599Y-1005205000D01*
X90875581Y-1005249361D01*
X90523434Y-1005395225D01*
X90206509Y-1005606987D01*
X89936987Y-1005876509D01*
X89725225Y-1006193434D01*
X89579361Y-1006545581D01*
X89505000Y-1006919419D01*
X89505000Y-1007300581D01*
X89579361Y-1007674419D01*
X89725225Y-1008026566D01*
X89936987Y-1008343491D01*
X90206509Y-1008613013D01*
X90523434Y-1008824775D01*
X90875581Y-1008970639D01*
X91098599Y-1009015000D01*
X90875581Y-1009059361D01*
X90523434Y-1009205225D01*
X90206509Y-1009416987D01*
X89936987Y-1009686509D01*
X89725225Y-1010003434D01*
X89579361Y-1010355581D01*
X89505000Y-1010729419D01*
X89505000Y-1011110581D01*
X89579361Y-1011484419D01*
X89725225Y-1011836566D01*
X89936987Y-1012153491D01*
X90206509Y-1012423013D01*
X90523434Y-1012634775D01*
X90875581Y-1012780639D01*
X90932335Y-1012791928D01*
X90140000Y-1012791928D01*
X90015518Y-1012804188D01*
X89895820Y-1012840498D01*
X89785506Y-1012899463D01*
X89688815Y-1012978815D01*
X89609463Y-1013075506D01*
X89550498Y-1013185820D01*
X89514188Y-1013305518D01*
X89501928Y-1013430000D01*
X89501928Y-1016030000D01*
X89514188Y-1016154482D01*
X89550498Y-1016274180D01*
X89609463Y-1016384494D01*
X89688815Y-1016481185D01*
X89785506Y-1016560537D01*
X89895820Y-1016619502D01*
X90015518Y-1016655812D01*
X90140000Y-1016668072D01*
X90519989Y-1016668072D01*
X90633552Y-1016806449D01*
X90676860Y-1016841991D01*
X100758009Y-1026923141D01*
X100793551Y-1026966449D01*
X100966376Y-1027108283D01*
X100966377Y-1027108284D01*
X101163553Y-1027213676D01*
X101377501Y-1027278577D01*
X101600000Y-1027300491D01*
X101655752Y-1027295000D01*
X135834249Y-1027295000D01*
X135890000Y-1027300491D01*
X135945751Y-1027295000D01*
X135945752Y-1027295000D01*
X136112499Y-1027278577D01*
X136326447Y-1027213676D01*
X136523623Y-1027108284D01*
X136696449Y-1026966449D01*
X136731996Y-1026923135D01*
X139767061Y-1023888072D01*
X140600000Y-1023888072D01*
X140724482Y-1023875812D01*
X140844180Y-1023839502D01*
X140954494Y-1023780537D01*
X141051185Y-1023701185D01*
X141130537Y-1023604494D01*
X141189502Y-1023494180D01*
X141225812Y-1023374482D01*
X141238072Y-1023250000D01*
X141238072Y-1021450000D01*
X141225812Y-1021325518D01*
X141189502Y-1021205820D01*
X141130537Y-1021095506D01*
X141051185Y-1020998815D01*
X140985611Y-1020945000D01*
X145165716Y-1020945000D01*
X145370273Y-1021081680D01*
X145631426Y-1021189853D01*
X145908665Y-1021245000D01*
X146191335Y-1021245000D01*
X146468574Y-1021189853D01*
X146729727Y-1021081680D01*
X146964759Y-1020924637D01*
X147164637Y-1020724759D01*
X147321680Y-1020489727D01*
X147429853Y-1020228574D01*
X147455000Y-1020102151D01*
X147455001Y-1026959867D01*
X145872718Y-1028542150D01*
X145631426Y-1028590147D01*
X145370273Y-1028698320D01*
X145165716Y-1028835000D01*
X106294284Y-1028835000D01*
X106089727Y-1028698320D01*
X105828574Y-1028590147D01*
X105551335Y-1028535000D01*
X105268665Y-1028535000D01*
X104991426Y-1028590147D01*
X104730273Y-1028698320D01*
X104495241Y-1028855363D01*
X104295363Y-1029055241D01*
X104138320Y-1029290273D01*
X104030147Y-1029551426D01*
X103975000Y-1029828665D01*
X103975000Y-1030111335D01*
X104030147Y-1030388574D01*
X104138320Y-1030649727D01*
X104295363Y-1030884759D01*
X104495241Y-1031084637D01*
X104730273Y-1031241680D01*
X104991426Y-1031349853D01*
X105268665Y-1031405000D01*
X105551335Y-1031405000D01*
X105828574Y-1031349853D01*
X106089727Y-1031241680D01*
X106294284Y-1031105000D01*
X145165716Y-1031105000D01*
X145370273Y-1031241680D01*
X145631426Y-1031349853D01*
X145908665Y-1031405000D01*
X146191335Y-1031405000D01*
X146468574Y-1031349853D01*
X146729727Y-1031241680D01*
X146964759Y-1031084637D01*
X147164637Y-1030884759D01*
X147321680Y-1030649727D01*
X147429853Y-1030388574D01*
X147477850Y-1030147282D01*
X149353141Y-1028271991D01*
X149396449Y-1028236449D01*
X149538284Y-1028063623D01*
X149643676Y-1027866447D01*
X149708577Y-1027652499D01*
X149725000Y-1027485752D01*
X149725000Y-1027485743D01*
X149730490Y-1027430001D01*
X149725000Y-1027374259D01*
X149725000Y-1016055741D01*
X149730490Y-1015999999D01*
X149725000Y-1015944257D01*
X149725000Y-1015944248D01*
X149708577Y-1015777501D01*
X149643676Y-1015563553D01*
X149538284Y-1015366377D01*
X149396449Y-1015193551D01*
X149353141Y-1015158009D01*
X147655131Y-1013460000D01*
X149353141Y-1011761991D01*
X149396449Y-1011726449D01*
X149538284Y-1011553623D01*
X149643676Y-1011356447D01*
X149708577Y-1011142499D01*
X149725000Y-1010975752D01*
X149725000Y-1010975743D01*
X149730490Y-1010920001D01*
X149725000Y-1010864259D01*
X149725000Y-1000815741D01*
X149730490Y-1000759999D01*
X149725000Y-1000704257D01*
X149725000Y-1000704248D01*
X149708577Y-1000537501D01*
X149643676Y-1000323553D01*
X149538284Y-1000126377D01*
X149396449Y-999953551D01*
X149353141Y-999918009D01*
X147655131Y-998220000D01*
X149353141Y-996521991D01*
X149396449Y-996486449D01*
X149538284Y-996313623D01*
X149643676Y-996116447D01*
X149708577Y-995902499D01*
X149725000Y-995735752D01*
X149725000Y-995735743D01*
X149730490Y-995680001D01*
X149725000Y-995624259D01*
X149725000Y-985575741D01*
X149730490Y-985519999D01*
X149725000Y-985464257D01*
X149725000Y-985464248D01*
X149708577Y-985297501D01*
X149643676Y-985083553D01*
X149538284Y-984886377D01*
X149396449Y-984713551D01*
X149353141Y-984678009D01*
X147655131Y-982980000D01*
X149353141Y-981281991D01*
X149396449Y-981246449D01*
X149538284Y-981073623D01*
X149643676Y-980876447D01*
X149708577Y-980662499D01*
X149725000Y-980495752D01*
X149725000Y-980495743D01*
X149730490Y-980440001D01*
X149725000Y-980384259D01*
X149725000Y-969065743D01*
X149730490Y-969009999D01*
X149725000Y-968954255D01*
X149725000Y-968954248D01*
X149708577Y-968787501D01*
X149643676Y-968573553D01*
X149538284Y-968376377D01*
X149396449Y-968203551D01*
X149353140Y-968168008D01*
X148290131Y-967105000D01*
X149353141Y-966041991D01*
X149396449Y-966006449D01*
X149538284Y-965833623D01*
X149643676Y-965636447D01*
X149708577Y-965422499D01*
X149725000Y-965255752D01*
X149725000Y-965255743D01*
X149730490Y-965200001D01*
X149725000Y-965144259D01*
X149725000Y-956365741D01*
X149730490Y-956309999D01*
X149725000Y-956254257D01*
X149725000Y-956254248D01*
X149708577Y-956087501D01*
X149643676Y-955873553D01*
X149538284Y-955676377D01*
X149396449Y-955503551D01*
X149353141Y-955468009D01*
X146891996Y-953006865D01*
X146856449Y-952963551D01*
X146683623Y-952821716D01*
X146486447Y-952716324D01*
X146272499Y-952651423D01*
X146105752Y-952635000D01*
X146105751Y-952635000D01*
X146050000Y-952629509D01*
X145994249Y-952635000D01*
X104195741Y-952635000D01*
X104139999Y-952629510D01*
X104084257Y-952635000D01*
X104084248Y-952635000D01*
X103917501Y-952651423D01*
X103703553Y-952716324D01*
X103506377Y-952821716D01*
X103333551Y-952963551D01*
X103298009Y-953006859D01*
X100836865Y-955468004D01*
X100793551Y-955503551D01*
X100651716Y-955676377D01*
X100593657Y-955785000D01*
X100546324Y-955873554D01*
X100481423Y-956087502D01*
X100459509Y-956310000D01*
X100465000Y-956365751D01*
X100465000Y-957109868D01*
X90676865Y-966898004D01*
X90633551Y-966933551D01*
X90491716Y-967106377D01*
X90400812Y-967276448D01*
X90386324Y-967303554D01*
X90321423Y-967517502D01*
X90299509Y-967740000D01*
X90305000Y-967795752D01*
X90305000Y-968341928D01*
X90140000Y-968341928D01*
X90015518Y-968354188D01*
X89895820Y-968390498D01*
X89785506Y-968449463D01*
X89688815Y-968528815D01*
X89609463Y-968625506D01*
X89550498Y-968735820D01*
X89514188Y-968855518D01*
X89501928Y-968980000D01*
X89027000Y-968980000D01*
X89027000Y-952176456D01*
X90695000Y-952176456D01*
X90695000Y-952823544D01*
X90821240Y-953458199D01*
X91068871Y-954056031D01*
X91428374Y-954594066D01*
X91885934Y-955051626D01*
X92423969Y-955411129D01*
X93021801Y-955658760D01*
X93656456Y-955785000D01*
X94303544Y-955785000D01*
X94938199Y-955658760D01*
X95536031Y-955411129D01*
X96074066Y-955051626D01*
X96531626Y-954594066D01*
X96891129Y-954056031D01*
X97138760Y-953458199D01*
X97265000Y-952823544D01*
X97265000Y-952176456D01*
X150385000Y-952176456D01*
X150385000Y-952823544D01*
X150511240Y-953458199D01*
X150758871Y-954056031D01*
X151118374Y-954594066D01*
X151575934Y-955051626D01*
X152113969Y-955411129D01*
X152711801Y-955658760D01*
X153346456Y-955785000D01*
X153993544Y-955785000D01*
X154628199Y-955658760D01*
X155226031Y-955411129D01*
X155764066Y-955051626D01*
X156221626Y-954594066D01*
X156581129Y-954056031D01*
X156828760Y-953458199D01*
X156955000Y-952823544D01*
X156955000Y-952176456D01*
X156828760Y-951541801D01*
X156581129Y-950943969D01*
X156221626Y-950405934D01*
X155764066Y-949948374D01*
X155226031Y-949588871D01*
X154628199Y-949341240D01*
X153993544Y-949215000D01*
X153346456Y-949215000D01*
X152711801Y-949341240D01*
X152113969Y-949588871D01*
X151575934Y-949948374D01*
X151118374Y-950405934D01*
X150758871Y-950943969D01*
X150511240Y-951541801D01*
X150385000Y-952176456D01*
X97265000Y-952176456D01*
X97138760Y-951541801D01*
X96891129Y-950943969D01*
X96531626Y-950405934D01*
X96074066Y-949948374D01*
X95536031Y-949588871D01*
X94938199Y-949341240D01*
X94303544Y-949215000D01*
X93656456Y-949215000D01*
X93021801Y-949341240D01*
X92423969Y-949588871D01*
X91885934Y-949948374D01*
X91428374Y-950405934D01*
X91068871Y-950943969D01*
X90821240Y-951541801D01*
X90695000Y-952176456D01*
X89027000Y-952176456D01*
X89027000Y-948817000D01*
X157353000Y-948817000D01*
X157353000Y-1038733000D01*
G36*
X147455001Y-1010449867D02*
G01*
X145872718Y-1012032150D01*
X145631426Y-1012080147D01*
X145370273Y-1012188320D01*
X145165716Y-1012325000D01*
X106294284Y-1012325000D01*
X106089727Y-1012188320D01*
X105828574Y-1012080147D01*
X105551335Y-1012025000D01*
X105268665Y-1012025000D01*
X104991426Y-1012080147D01*
X104730273Y-1012188320D01*
X104495241Y-1012345363D01*
X104295363Y-1012545241D01*
X104138320Y-1012780273D01*
X104030147Y-1013041426D01*
X103975000Y-1013318665D01*
X103975000Y-1013601335D01*
X104030147Y-1013878574D01*
X104138320Y-1014139727D01*
X104295363Y-1014374759D01*
X104495241Y-1014574637D01*
X104730273Y-1014731680D01*
X104991426Y-1014839853D01*
X105268665Y-1014895000D01*
X105551335Y-1014895000D01*
X105828574Y-1014839853D01*
X106089727Y-1014731680D01*
X106294284Y-1014595000D01*
X145165716Y-1014595000D01*
X145370273Y-1014731680D01*
X145631426Y-1014839853D01*
X145872718Y-1014887850D01*
X147455000Y-1016470132D01*
X147455000Y-1019517848D01*
X147429853Y-1019391426D01*
X147321680Y-1019130273D01*
X147164637Y-1018895241D01*
X146964759Y-1018695363D01*
X146729727Y-1018538320D01*
X146468574Y-1018430147D01*
X146191335Y-1018375000D01*
X145908665Y-1018375000D01*
X145631426Y-1018430147D01*
X145370273Y-1018538320D01*
X145165716Y-1018675000D01*
X140735817Y-1018675000D01*
X140678505Y-1018617688D01*
X140427095Y-1018449701D01*
X140147743Y-1018333989D01*
X139851184Y-1018275000D01*
X139548816Y-1018275000D01*
X139252257Y-1018333989D01*
X138972905Y-1018449701D01*
X138721495Y-1018617688D01*
X138507688Y-1018831495D01*
X138339701Y-1019082905D01*
X138223989Y-1019362257D01*
X138165000Y-1019658816D01*
X138165000Y-1019961184D01*
X138223989Y-1020257743D01*
X138339701Y-1020537095D01*
X138507688Y-1020788505D01*
X138574127Y-1020854944D01*
X138555820Y-1020860498D01*
X138445506Y-1020919463D01*
X138348815Y-1020998815D01*
X138269463Y-1021095506D01*
X138210498Y-1021205820D01*
X138174188Y-1021325518D01*
X138161928Y-1021450000D01*
X138161928Y-1022282939D01*
X135419869Y-1025025000D01*
X102070132Y-1025025000D01*
X93325952Y-1016280821D01*
X93329502Y-1016274180D01*
X93365812Y-1016154482D01*
X93378072Y-1016030000D01*
X93378072Y-1013430000D01*
X93365812Y-1013305518D01*
X93329502Y-1013185820D01*
X93282207Y-1013097338D01*
X94115000Y-1013930132D01*
X94115000Y-1014674248D01*
X94109509Y-1014730000D01*
X94115000Y-1014785751D01*
X94115000Y-1014785752D01*
X94131423Y-1014952499D01*
X94196324Y-1015166447D01*
X94301717Y-1015363623D01*
X94443552Y-1015536449D01*
X94486860Y-1015571991D01*
X103298013Y-1024383146D01*
X103333551Y-1024426449D01*
X103376854Y-1024461987D01*
X103376856Y-1024461989D01*
X103506377Y-1024568284D01*
X103703553Y-1024673676D01*
X103917501Y-1024738577D01*
X104140000Y-1024760491D01*
X104195752Y-1024755000D01*
X110434249Y-1024755000D01*
X110490000Y-1024760491D01*
X110545751Y-1024755000D01*
X110545752Y-1024755000D01*
X110712499Y-1024738577D01*
X110926447Y-1024673676D01*
X111123623Y-1024568284D01*
X111296449Y-1024426449D01*
X111331996Y-1024383135D01*
X111827059Y-1023888072D01*
X112660000Y-1023888072D01*
X112784482Y-1023875812D01*
X112904180Y-1023839502D01*
X113014494Y-1023780537D01*
X113111185Y-1023701185D01*
X113190537Y-1023604494D01*
X113249502Y-1023494180D01*
X113285812Y-1023374482D01*
X113298072Y-1023250000D01*
X113298072Y-1021450000D01*
X113285812Y-1021325518D01*
X113249502Y-1021205820D01*
X113190537Y-1021095506D01*
X113111185Y-1020998815D01*
X113014494Y-1020919463D01*
X112904180Y-1020860498D01*
X112885873Y-1020854944D01*
X112952312Y-1020788505D01*
X113120299Y-1020537095D01*
X113236011Y-1020257743D01*
X113295000Y-1019961184D01*
X113295000Y-1019658816D01*
X113236011Y-1019362257D01*
X113120299Y-1019082905D01*
X112952312Y-1018831495D01*
X112738505Y-1018617688D01*
X112487095Y-1018449701D01*
X112207743Y-1018333989D01*
X111911184Y-1018275000D01*
X111608816Y-1018275000D01*
X111312257Y-1018333989D01*
X111032905Y-1018449701D01*
X110781495Y-1018617688D01*
X110724183Y-1018675000D01*
X106294284Y-1018675000D01*
X106089727Y-1018538320D01*
X105828574Y-1018430147D01*
X105551335Y-1018375000D01*
X105268665Y-1018375000D01*
X104991426Y-1018430147D01*
X104730273Y-1018538320D01*
X104495241Y-1018695363D01*
X104295363Y-1018895241D01*
X104138320Y-1019130273D01*
X104030147Y-1019391426D01*
X103975000Y-1019668665D01*
X103975000Y-1019951335D01*
X104030147Y-1020228574D01*
X104138320Y-1020489727D01*
X104295363Y-1020724759D01*
X104495241Y-1020924637D01*
X104730273Y-1021081680D01*
X104991426Y-1021189853D01*
X105268665Y-1021245000D01*
X105551335Y-1021245000D01*
X105828574Y-1021189853D01*
X106089727Y-1021081680D01*
X106294284Y-1020945000D01*
X110474389Y-1020945000D01*
X110408815Y-1020998815D01*
X110329463Y-1021095506D01*
X110270498Y-1021205820D01*
X110234188Y-1021325518D01*
X110221928Y-1021450000D01*
X110221928Y-1022282941D01*
X110019869Y-1022485000D01*
X104610133Y-1022485000D01*
X96385000Y-1014259869D01*
X96385000Y-1013515741D01*
X96390490Y-1013459999D01*
X96385000Y-1013404257D01*
X96385000Y-1013404248D01*
X96368577Y-1013237501D01*
X96303676Y-1013023553D01*
X96198284Y-1012826377D01*
X96056449Y-1012653551D01*
X96013141Y-1012618009D01*
X93551996Y-1010156865D01*
X93516449Y-1010113551D01*
X93343623Y-1009971716D01*
X93146447Y-1009866324D01*
X93041988Y-1009834637D01*
X92943013Y-1009686509D01*
X92673491Y-1009416987D01*
X92356566Y-1009205225D01*
X92004419Y-1009059361D01*
X91781401Y-1009015000D01*
X92004419Y-1008970639D01*
X92356566Y-1008824775D01*
X92673491Y-1008613013D01*
X92943013Y-1008343491D01*
X93008822Y-1008245000D01*
X93509869Y-1008245000D01*
X95678009Y-1010413141D01*
X95713551Y-1010456449D01*
X95886377Y-1010598284D01*
X96083553Y-1010703676D01*
X96297501Y-1010768577D01*
X96464248Y-1010785000D01*
X96464257Y-1010785000D01*
X96519999Y-1010790490D01*
X96575741Y-1010785000D01*
X135834249Y-1010785000D01*
X135890000Y-1010790491D01*
X135945751Y-1010785000D01*
X135945752Y-1010785000D01*
X136112499Y-1010768577D01*
X136326447Y-1010703676D01*
X136523623Y-1010598284D01*
X136696449Y-1010456449D01*
X136731996Y-1010413135D01*
X139767061Y-1007378072D01*
X140600000Y-1007378072D01*
X140724482Y-1007365812D01*
X140844180Y-1007329502D01*
X140954494Y-1007270537D01*
X141051185Y-1007191185D01*
X141130537Y-1007094494D01*
X141189502Y-1006984180D01*
X141225812Y-1006864482D01*
X141238072Y-1006740000D01*
X141238072Y-1004940000D01*
X141225812Y-1004815518D01*
X141189502Y-1004695820D01*
X141130537Y-1004585506D01*
X141051185Y-1004488815D01*
X140985611Y-1004435000D01*
X145165716Y-1004435000D01*
X145370273Y-1004571680D01*
X145631426Y-1004679853D01*
X145908665Y-1004735000D01*
X146191335Y-1004735000D01*
X146468574Y-1004679853D01*
X146729727Y-1004571680D01*
X146964759Y-1004414637D01*
X147164637Y-1004214759D01*
X147321680Y-1003979727D01*
X147429853Y-1003718574D01*
X147455000Y-1003592152D01*
X147455001Y-1010449867D01*
G37*
X147455001Y-1010449867D02*
X145872718Y-1012032150D01*
X145631426Y-1012080147D01*
X145370273Y-1012188320D01*
X145165716Y-1012325000D01*
X106294284Y-1012325000D01*
X106089727Y-1012188320D01*
X105828574Y-1012080147D01*
X105551335Y-1012025000D01*
X105268665Y-1012025000D01*
X104991426Y-1012080147D01*
X104730273Y-1012188320D01*
X104495241Y-1012345363D01*
X104295363Y-1012545241D01*
X104138320Y-1012780273D01*
X104030147Y-1013041426D01*
X103975000Y-1013318665D01*
X103975000Y-1013601335D01*
X104030147Y-1013878574D01*
X104138320Y-1014139727D01*
X104295363Y-1014374759D01*
X104495241Y-1014574637D01*
X104730273Y-1014731680D01*
X104991426Y-1014839853D01*
X105268665Y-1014895000D01*
X105551335Y-1014895000D01*
X105828574Y-1014839853D01*
X106089727Y-1014731680D01*
X106294284Y-1014595000D01*
X145165716Y-1014595000D01*
X145370273Y-1014731680D01*
X145631426Y-1014839853D01*
X145872718Y-1014887850D01*
X147455000Y-1016470132D01*
X147455000Y-1019517848D01*
X147429853Y-1019391426D01*
X147321680Y-1019130273D01*
X147164637Y-1018895241D01*
X146964759Y-1018695363D01*
X146729727Y-1018538320D01*
X146468574Y-1018430147D01*
X146191335Y-1018375000D01*
X145908665Y-1018375000D01*
X145631426Y-1018430147D01*
X145370273Y-1018538320D01*
X145165716Y-1018675000D01*
X140735817Y-1018675000D01*
X140678505Y-1018617688D01*
X140427095Y-1018449701D01*
X140147743Y-1018333989D01*
X139851184Y-1018275000D01*
X139548816Y-1018275000D01*
X139252257Y-1018333989D01*
X138972905Y-1018449701D01*
X138721495Y-1018617688D01*
X138507688Y-1018831495D01*
X138339701Y-1019082905D01*
X138223989Y-1019362257D01*
X138165000Y-1019658816D01*
X138165000Y-1019961184D01*
X138223989Y-1020257743D01*
X138339701Y-1020537095D01*
X138507688Y-1020788505D01*
X138574127Y-1020854944D01*
X138555820Y-1020860498D01*
X138445506Y-1020919463D01*
X138348815Y-1020998815D01*
X138269463Y-1021095506D01*
X138210498Y-1021205820D01*
X138174188Y-1021325518D01*
X138161928Y-1021450000D01*
X138161928Y-1022282939D01*
X135419869Y-1025025000D01*
X102070132Y-1025025000D01*
X93325952Y-1016280821D01*
X93329502Y-1016274180D01*
X93365812Y-1016154482D01*
X93378072Y-1016030000D01*
X93378072Y-1013430000D01*
X93365812Y-1013305518D01*
X93329502Y-1013185820D01*
X93282207Y-1013097338D01*
X94115000Y-1013930132D01*
X94115000Y-1014674248D01*
X94109509Y-1014730000D01*
X94115000Y-1014785751D01*
X94115000Y-1014785752D01*
X94131423Y-1014952499D01*
X94196324Y-1015166447D01*
X94301717Y-1015363623D01*
X94443552Y-1015536449D01*
X94486860Y-1015571991D01*
X103298013Y-1024383146D01*
X103333551Y-1024426449D01*
X103376854Y-1024461987D01*
X103376856Y-1024461989D01*
X103506377Y-1024568284D01*
X103703553Y-1024673676D01*
X103917501Y-1024738577D01*
X104140000Y-1024760491D01*
X104195752Y-1024755000D01*
X110434249Y-1024755000D01*
X110490000Y-1024760491D01*
X110545751Y-1024755000D01*
X110545752Y-1024755000D01*
X110712499Y-1024738577D01*
X110926447Y-1024673676D01*
X111123623Y-1024568284D01*
X111296449Y-1024426449D01*
X111331996Y-1024383135D01*
X111827059Y-1023888072D01*
X112660000Y-1023888072D01*
X112784482Y-1023875812D01*
X112904180Y-1023839502D01*
X113014494Y-1023780537D01*
X113111185Y-1023701185D01*
X113190537Y-1023604494D01*
X113249502Y-1023494180D01*
X113285812Y-1023374482D01*
X113298072Y-1023250000D01*
X113298072Y-1021450000D01*
X113285812Y-1021325518D01*
X113249502Y-1021205820D01*
X113190537Y-1021095506D01*
X113111185Y-1020998815D01*
X113014494Y-1020919463D01*
X112904180Y-1020860498D01*
X112885873Y-1020854944D01*
X112952312Y-1020788505D01*
X113120299Y-1020537095D01*
X113236011Y-1020257743D01*
X113295000Y-1019961184D01*
X113295000Y-1019658816D01*
X113236011Y-1019362257D01*
X113120299Y-1019082905D01*
X112952312Y-1018831495D01*
X112738505Y-1018617688D01*
X112487095Y-1018449701D01*
X112207743Y-1018333989D01*
X111911184Y-1018275000D01*
X111608816Y-1018275000D01*
X111312257Y-1018333989D01*
X111032905Y-1018449701D01*
X110781495Y-1018617688D01*
X110724183Y-1018675000D01*
X106294284Y-1018675000D01*
X106089727Y-1018538320D01*
X105828574Y-1018430147D01*
X105551335Y-1018375000D01*
X105268665Y-1018375000D01*
X104991426Y-1018430147D01*
X104730273Y-1018538320D01*
X104495241Y-1018695363D01*
X104295363Y-1018895241D01*
X104138320Y-1019130273D01*
X104030147Y-1019391426D01*
X103975000Y-1019668665D01*
X103975000Y-1019951335D01*
X104030147Y-1020228574D01*
X104138320Y-1020489727D01*
X104295363Y-1020724759D01*
X104495241Y-1020924637D01*
X104730273Y-1021081680D01*
X104991426Y-1021189853D01*
X105268665Y-1021245000D01*
X105551335Y-1021245000D01*
X105828574Y-1021189853D01*
X106089727Y-1021081680D01*
X106294284Y-1020945000D01*
X110474389Y-1020945000D01*
X110408815Y-1020998815D01*
X110329463Y-1021095506D01*
X110270498Y-1021205820D01*
X110234188Y-1021325518D01*
X110221928Y-1021450000D01*
X110221928Y-1022282941D01*
X110019869Y-1022485000D01*
X104610133Y-1022485000D01*
X96385000Y-1014259869D01*
X96385000Y-1013515741D01*
X96390490Y-1013459999D01*
X96385000Y-1013404257D01*
X96385000Y-1013404248D01*
X96368577Y-1013237501D01*
X96303676Y-1013023553D01*
X96198284Y-1012826377D01*
X96056449Y-1012653551D01*
X96013141Y-1012618009D01*
X93551996Y-1010156865D01*
X93516449Y-1010113551D01*
X93343623Y-1009971716D01*
X93146447Y-1009866324D01*
X93041988Y-1009834637D01*
X92943013Y-1009686509D01*
X92673491Y-1009416987D01*
X92356566Y-1009205225D01*
X92004419Y-1009059361D01*
X91781401Y-1009015000D01*
X92004419Y-1008970639D01*
X92356566Y-1008824775D01*
X92673491Y-1008613013D01*
X92943013Y-1008343491D01*
X93008822Y-1008245000D01*
X93509869Y-1008245000D01*
X95678009Y-1010413141D01*
X95713551Y-1010456449D01*
X95886377Y-1010598284D01*
X96083553Y-1010703676D01*
X96297501Y-1010768577D01*
X96464248Y-1010785000D01*
X96464257Y-1010785000D01*
X96519999Y-1010790490D01*
X96575741Y-1010785000D01*
X135834249Y-1010785000D01*
X135890000Y-1010790491D01*
X135945751Y-1010785000D01*
X135945752Y-1010785000D01*
X136112499Y-1010768577D01*
X136326447Y-1010703676D01*
X136523623Y-1010598284D01*
X136696449Y-1010456449D01*
X136731996Y-1010413135D01*
X139767061Y-1007378072D01*
X140600000Y-1007378072D01*
X140724482Y-1007365812D01*
X140844180Y-1007329502D01*
X140954494Y-1007270537D01*
X141051185Y-1007191185D01*
X141130537Y-1007094494D01*
X141189502Y-1006984180D01*
X141225812Y-1006864482D01*
X141238072Y-1006740000D01*
X141238072Y-1004940000D01*
X141225812Y-1004815518D01*
X141189502Y-1004695820D01*
X141130537Y-1004585506D01*
X141051185Y-1004488815D01*
X140985611Y-1004435000D01*
X145165716Y-1004435000D01*
X145370273Y-1004571680D01*
X145631426Y-1004679853D01*
X145908665Y-1004735000D01*
X146191335Y-1004735000D01*
X146468574Y-1004679853D01*
X146729727Y-1004571680D01*
X146964759Y-1004414637D01*
X147164637Y-1004214759D01*
X147321680Y-1003979727D01*
X147429853Y-1003718574D01*
X147455000Y-1003592152D01*
X147455001Y-1010449867D01*
G36*
X147455001Y-995209867D02*
G01*
X145872718Y-996792150D01*
X145631426Y-996840147D01*
X145370273Y-996948320D01*
X145165716Y-997085000D01*
X106294284Y-997085000D01*
X106089727Y-996948320D01*
X105828574Y-996840147D01*
X105551335Y-996785000D01*
X105268665Y-996785000D01*
X104991426Y-996840147D01*
X104730273Y-996948320D01*
X104495241Y-997105363D01*
X104295363Y-997305241D01*
X104138320Y-997540273D01*
X104030147Y-997801426D01*
X103975000Y-998078665D01*
X103975000Y-998361335D01*
X104030147Y-998638574D01*
X104138320Y-998899727D01*
X104295363Y-999134759D01*
X104495241Y-999334637D01*
X104730273Y-999491680D01*
X104991426Y-999599853D01*
X105268665Y-999655000D01*
X105551335Y-999655000D01*
X105828574Y-999599853D01*
X106089727Y-999491680D01*
X106294284Y-999355000D01*
X145165716Y-999355000D01*
X145370273Y-999491680D01*
X145631426Y-999599853D01*
X145872718Y-999647850D01*
X147455000Y-1001230132D01*
X147455000Y-1003007848D01*
X147429853Y-1002881426D01*
X147321680Y-1002620273D01*
X147164637Y-1002385241D01*
X146964759Y-1002185363D01*
X146729727Y-1002028320D01*
X146468574Y-1001920147D01*
X146191335Y-1001865000D01*
X145908665Y-1001865000D01*
X145631426Y-1001920147D01*
X145370273Y-1002028320D01*
X145165716Y-1002165000D01*
X140735817Y-1002165000D01*
X140678505Y-1002107688D01*
X140427095Y-1001939701D01*
X140147743Y-1001823989D01*
X139851184Y-1001765000D01*
X139548816Y-1001765000D01*
X139252257Y-1001823989D01*
X138972905Y-1001939701D01*
X138721495Y-1002107688D01*
X138507688Y-1002321495D01*
X138339701Y-1002572905D01*
X138223989Y-1002852257D01*
X138165000Y-1003148816D01*
X138165000Y-1003451184D01*
X138223989Y-1003747743D01*
X138339701Y-1004027095D01*
X138507688Y-1004278505D01*
X138574127Y-1004344944D01*
X138555820Y-1004350498D01*
X138445506Y-1004409463D01*
X138348815Y-1004488815D01*
X138269463Y-1004585506D01*
X138210498Y-1004695820D01*
X138174188Y-1004815518D01*
X138161928Y-1004940000D01*
X138161928Y-1005772939D01*
X135419869Y-1008515000D01*
X96990132Y-1008515000D01*
X94821996Y-1006346865D01*
X94786449Y-1006303551D01*
X94613623Y-1006161716D01*
X94416447Y-1006056324D01*
X94202499Y-1005991423D01*
X94035752Y-1005975000D01*
X94035751Y-1005975000D01*
X93980000Y-1005969509D01*
X93924249Y-1005975000D01*
X93008822Y-1005975000D01*
X92943013Y-1005876509D01*
X92673491Y-1005606987D01*
X92356566Y-1005395225D01*
X92004419Y-1005249361D01*
X91781401Y-1005205000D01*
X92004419Y-1005160639D01*
X92356566Y-1005014775D01*
X92673491Y-1004803013D01*
X92943013Y-1004533491D01*
X93008822Y-1004435000D01*
X94779869Y-1004435000D01*
X98218013Y-1007873146D01*
X98253551Y-1007916449D01*
X98296854Y-1007951987D01*
X98296856Y-1007951989D01*
X98426377Y-1008058284D01*
X98623553Y-1008163676D01*
X98837501Y-1008228577D01*
X99060000Y-1008250491D01*
X99115752Y-1008245000D01*
X110434249Y-1008245000D01*
X110490000Y-1008250491D01*
X110545751Y-1008245000D01*
X110545752Y-1008245000D01*
X110712499Y-1008228577D01*
X110926447Y-1008163676D01*
X111123623Y-1008058284D01*
X111296449Y-1007916449D01*
X111331996Y-1007873135D01*
X111827059Y-1007378072D01*
X112660000Y-1007378072D01*
X112784482Y-1007365812D01*
X112904180Y-1007329502D01*
X113014494Y-1007270537D01*
X113111185Y-1007191185D01*
X113190537Y-1007094494D01*
X113249502Y-1006984180D01*
X113285812Y-1006864482D01*
X113298072Y-1006740000D01*
X113298072Y-1004940000D01*
X113285812Y-1004815518D01*
X113249502Y-1004695820D01*
X113190537Y-1004585506D01*
X113111185Y-1004488815D01*
X113014494Y-1004409463D01*
X112904180Y-1004350498D01*
X112885873Y-1004344944D01*
X112952312Y-1004278505D01*
X113120299Y-1004027095D01*
X113236011Y-1003747743D01*
X113295000Y-1003451184D01*
X113295000Y-1003148816D01*
X113236011Y-1002852257D01*
X113120299Y-1002572905D01*
X112952312Y-1002321495D01*
X112738505Y-1002107688D01*
X112487095Y-1001939701D01*
X112207743Y-1001823989D01*
X111911184Y-1001765000D01*
X111608816Y-1001765000D01*
X111312257Y-1001823989D01*
X111032905Y-1001939701D01*
X110781495Y-1002107688D01*
X110724183Y-1002165000D01*
X106294284Y-1002165000D01*
X106089727Y-1002028320D01*
X105828574Y-1001920147D01*
X105551335Y-1001865000D01*
X105268665Y-1001865000D01*
X104991426Y-1001920147D01*
X104730273Y-1002028320D01*
X104495241Y-1002185363D01*
X104295363Y-1002385241D01*
X104138320Y-1002620273D01*
X104030147Y-1002881426D01*
X103975000Y-1003158665D01*
X103975000Y-1003441335D01*
X104030147Y-1003718574D01*
X104138320Y-1003979727D01*
X104295363Y-1004214759D01*
X104495241Y-1004414637D01*
X104730273Y-1004571680D01*
X104991426Y-1004679853D01*
X105268665Y-1004735000D01*
X105551335Y-1004735000D01*
X105828574Y-1004679853D01*
X106089727Y-1004571680D01*
X106294284Y-1004435000D01*
X110474389Y-1004435000D01*
X110408815Y-1004488815D01*
X110329463Y-1004585506D01*
X110270498Y-1004695820D01*
X110234188Y-1004815518D01*
X110221928Y-1004940000D01*
X110221928Y-1005772941D01*
X110019869Y-1005975000D01*
X99530133Y-1005975000D01*
X96091996Y-1002536865D01*
X96056449Y-1002493551D01*
X95883623Y-1002351716D01*
X95686447Y-1002246324D01*
X95472499Y-1002181423D01*
X95305752Y-1002165000D01*
X95305751Y-1002165000D01*
X95250000Y-1002159509D01*
X95194249Y-1002165000D01*
X93008822Y-1002165000D01*
X92943013Y-1002066509D01*
X92673491Y-1001796987D01*
X92356566Y-1001585225D01*
X92004419Y-1001439361D01*
X91781401Y-1001395000D01*
X92004419Y-1001350639D01*
X92356566Y-1001204775D01*
X92673491Y-1000993013D01*
X92943013Y-1000723491D01*
X93008822Y-1000625000D01*
X93924249Y-1000625000D01*
X93980000Y-1000630491D01*
X94035751Y-1000625000D01*
X94035752Y-1000625000D01*
X94202499Y-1000608577D01*
X94416447Y-1000543676D01*
X94613623Y-1000438284D01*
X94786449Y-1000296449D01*
X94821996Y-1000253135D01*
X99530132Y-995545000D01*
X135834249Y-995545000D01*
X135890000Y-995550491D01*
X135945751Y-995545000D01*
X135945752Y-995545000D01*
X136112499Y-995528577D01*
X136326447Y-995463676D01*
X136523623Y-995358284D01*
X136696449Y-995216449D01*
X136731996Y-995173135D01*
X139767061Y-992138072D01*
X140600000Y-992138072D01*
X140724482Y-992125812D01*
X140844180Y-992089502D01*
X140954494Y-992030537D01*
X141051185Y-991951185D01*
X141130537Y-991854494D01*
X141189502Y-991744180D01*
X141225812Y-991624482D01*
X141238072Y-991500000D01*
X141238072Y-989700000D01*
X141225812Y-989575518D01*
X141189502Y-989455820D01*
X141130537Y-989345506D01*
X141051185Y-989248815D01*
X140985611Y-989195000D01*
X145165716Y-989195000D01*
X145370273Y-989331680D01*
X145631426Y-989439853D01*
X145908665Y-989495000D01*
X146191335Y-989495000D01*
X146468574Y-989439853D01*
X146729727Y-989331680D01*
X146964759Y-989174637D01*
X147164637Y-988974759D01*
X147321680Y-988739727D01*
X147429853Y-988478574D01*
X147455000Y-988352152D01*
X147455001Y-995209867D01*
G37*
X147455001Y-995209867D02*
X145872718Y-996792150D01*
X145631426Y-996840147D01*
X145370273Y-996948320D01*
X145165716Y-997085000D01*
X106294284Y-997085000D01*
X106089727Y-996948320D01*
X105828574Y-996840147D01*
X105551335Y-996785000D01*
X105268665Y-996785000D01*
X104991426Y-996840147D01*
X104730273Y-996948320D01*
X104495241Y-997105363D01*
X104295363Y-997305241D01*
X104138320Y-997540273D01*
X104030147Y-997801426D01*
X103975000Y-998078665D01*
X103975000Y-998361335D01*
X104030147Y-998638574D01*
X104138320Y-998899727D01*
X104295363Y-999134759D01*
X104495241Y-999334637D01*
X104730273Y-999491680D01*
X104991426Y-999599853D01*
X105268665Y-999655000D01*
X105551335Y-999655000D01*
X105828574Y-999599853D01*
X106089727Y-999491680D01*
X106294284Y-999355000D01*
X145165716Y-999355000D01*
X145370273Y-999491680D01*
X145631426Y-999599853D01*
X145872718Y-999647850D01*
X147455000Y-1001230132D01*
X147455000Y-1003007848D01*
X147429853Y-1002881426D01*
X147321680Y-1002620273D01*
X147164637Y-1002385241D01*
X146964759Y-1002185363D01*
X146729727Y-1002028320D01*
X146468574Y-1001920147D01*
X146191335Y-1001865000D01*
X145908665Y-1001865000D01*
X145631426Y-1001920147D01*
X145370273Y-1002028320D01*
X145165716Y-1002165000D01*
X140735817Y-1002165000D01*
X140678505Y-1002107688D01*
X140427095Y-1001939701D01*
X140147743Y-1001823989D01*
X139851184Y-1001765000D01*
X139548816Y-1001765000D01*
X139252257Y-1001823989D01*
X138972905Y-1001939701D01*
X138721495Y-1002107688D01*
X138507688Y-1002321495D01*
X138339701Y-1002572905D01*
X138223989Y-1002852257D01*
X138165000Y-1003148816D01*
X138165000Y-1003451184D01*
X138223989Y-1003747743D01*
X138339701Y-1004027095D01*
X138507688Y-1004278505D01*
X138574127Y-1004344944D01*
X138555820Y-1004350498D01*
X138445506Y-1004409463D01*
X138348815Y-1004488815D01*
X138269463Y-1004585506D01*
X138210498Y-1004695820D01*
X138174188Y-1004815518D01*
X138161928Y-1004940000D01*
X138161928Y-1005772939D01*
X135419869Y-1008515000D01*
X96990132Y-1008515000D01*
X94821996Y-1006346865D01*
X94786449Y-1006303551D01*
X94613623Y-1006161716D01*
X94416447Y-1006056324D01*
X94202499Y-1005991423D01*
X94035752Y-1005975000D01*
X94035751Y-1005975000D01*
X93980000Y-1005969509D01*
X93924249Y-1005975000D01*
X93008822Y-1005975000D01*
X92943013Y-1005876509D01*
X92673491Y-1005606987D01*
X92356566Y-1005395225D01*
X92004419Y-1005249361D01*
X91781401Y-1005205000D01*
X92004419Y-1005160639D01*
X92356566Y-1005014775D01*
X92673491Y-1004803013D01*
X92943013Y-1004533491D01*
X93008822Y-1004435000D01*
X94779869Y-1004435000D01*
X98218013Y-1007873146D01*
X98253551Y-1007916449D01*
X98296854Y-1007951987D01*
X98296856Y-1007951989D01*
X98426377Y-1008058284D01*
X98623553Y-1008163676D01*
X98837501Y-1008228577D01*
X99060000Y-1008250491D01*
X99115752Y-1008245000D01*
X110434249Y-1008245000D01*
X110490000Y-1008250491D01*
X110545751Y-1008245000D01*
X110545752Y-1008245000D01*
X110712499Y-1008228577D01*
X110926447Y-1008163676D01*
X111123623Y-1008058284D01*
X111296449Y-1007916449D01*
X111331996Y-1007873135D01*
X111827059Y-1007378072D01*
X112660000Y-1007378072D01*
X112784482Y-1007365812D01*
X112904180Y-1007329502D01*
X113014494Y-1007270537D01*
X113111185Y-1007191185D01*
X113190537Y-1007094494D01*
X113249502Y-1006984180D01*
X113285812Y-1006864482D01*
X113298072Y-1006740000D01*
X113298072Y-1004940000D01*
X113285812Y-1004815518D01*
X113249502Y-1004695820D01*
X113190537Y-1004585506D01*
X113111185Y-1004488815D01*
X113014494Y-1004409463D01*
X112904180Y-1004350498D01*
X112885873Y-1004344944D01*
X112952312Y-1004278505D01*
X113120299Y-1004027095D01*
X113236011Y-1003747743D01*
X113295000Y-1003451184D01*
X113295000Y-1003148816D01*
X113236011Y-1002852257D01*
X113120299Y-1002572905D01*
X112952312Y-1002321495D01*
X112738505Y-1002107688D01*
X112487095Y-1001939701D01*
X112207743Y-1001823989D01*
X111911184Y-1001765000D01*
X111608816Y-1001765000D01*
X111312257Y-1001823989D01*
X111032905Y-1001939701D01*
X110781495Y-1002107688D01*
X110724183Y-1002165000D01*
X106294284Y-1002165000D01*
X106089727Y-1002028320D01*
X105828574Y-1001920147D01*
X105551335Y-1001865000D01*
X105268665Y-1001865000D01*
X104991426Y-1001920147D01*
X104730273Y-1002028320D01*
X104495241Y-1002185363D01*
X104295363Y-1002385241D01*
X104138320Y-1002620273D01*
X104030147Y-1002881426D01*
X103975000Y-1003158665D01*
X103975000Y-1003441335D01*
X104030147Y-1003718574D01*
X104138320Y-1003979727D01*
X104295363Y-1004214759D01*
X104495241Y-1004414637D01*
X104730273Y-1004571680D01*
X104991426Y-1004679853D01*
X105268665Y-1004735000D01*
X105551335Y-1004735000D01*
X105828574Y-1004679853D01*
X106089727Y-1004571680D01*
X106294284Y-1004435000D01*
X110474389Y-1004435000D01*
X110408815Y-1004488815D01*
X110329463Y-1004585506D01*
X110270498Y-1004695820D01*
X110234188Y-1004815518D01*
X110221928Y-1004940000D01*
X110221928Y-1005772941D01*
X110019869Y-1005975000D01*
X99530133Y-1005975000D01*
X96091996Y-1002536865D01*
X96056449Y-1002493551D01*
X95883623Y-1002351716D01*
X95686447Y-1002246324D01*
X95472499Y-1002181423D01*
X95305752Y-1002165000D01*
X95305751Y-1002165000D01*
X95250000Y-1002159509D01*
X95194249Y-1002165000D01*
X93008822Y-1002165000D01*
X92943013Y-1002066509D01*
X92673491Y-1001796987D01*
X92356566Y-1001585225D01*
X92004419Y-1001439361D01*
X91781401Y-1001395000D01*
X92004419Y-1001350639D01*
X92356566Y-1001204775D01*
X92673491Y-1000993013D01*
X92943013Y-1000723491D01*
X93008822Y-1000625000D01*
X93924249Y-1000625000D01*
X93980000Y-1000630491D01*
X94035751Y-1000625000D01*
X94035752Y-1000625000D01*
X94202499Y-1000608577D01*
X94416447Y-1000543676D01*
X94613623Y-1000438284D01*
X94786449Y-1000296449D01*
X94821996Y-1000253135D01*
X99530132Y-995545000D01*
X135834249Y-995545000D01*
X135890000Y-995550491D01*
X135945751Y-995545000D01*
X135945752Y-995545000D01*
X136112499Y-995528577D01*
X136326447Y-995463676D01*
X136523623Y-995358284D01*
X136696449Y-995216449D01*
X136731996Y-995173135D01*
X139767061Y-992138072D01*
X140600000Y-992138072D01*
X140724482Y-992125812D01*
X140844180Y-992089502D01*
X140954494Y-992030537D01*
X141051185Y-991951185D01*
X141130537Y-991854494D01*
X141189502Y-991744180D01*
X141225812Y-991624482D01*
X141238072Y-991500000D01*
X141238072Y-989700000D01*
X141225812Y-989575518D01*
X141189502Y-989455820D01*
X141130537Y-989345506D01*
X141051185Y-989248815D01*
X140985611Y-989195000D01*
X145165716Y-989195000D01*
X145370273Y-989331680D01*
X145631426Y-989439853D01*
X145908665Y-989495000D01*
X146191335Y-989495000D01*
X146468574Y-989439853D01*
X146729727Y-989331680D01*
X146964759Y-989174637D01*
X147164637Y-988974759D01*
X147321680Y-988739727D01*
X147429853Y-988478574D01*
X147455000Y-988352152D01*
X147455001Y-995209867D01*
G36*
X147455000Y-964729868D02*
G01*
X145872718Y-966312150D01*
X145631426Y-966360147D01*
X145370273Y-966468320D01*
X145165716Y-966605000D01*
X106294284Y-966605000D01*
X106089727Y-966468320D01*
X105828574Y-966360147D01*
X105551335Y-966305000D01*
X105268665Y-966305000D01*
X104991426Y-966360147D01*
X104730273Y-966468320D01*
X104495241Y-966625363D01*
X104295363Y-966825241D01*
X104138320Y-967060273D01*
X104030147Y-967321426D01*
X103975000Y-967598665D01*
X103975000Y-967881335D01*
X104030147Y-968158574D01*
X104138320Y-968419727D01*
X104295363Y-968654759D01*
X104495241Y-968854637D01*
X104730273Y-969011680D01*
X104991426Y-969119853D01*
X105268665Y-969175000D01*
X105551335Y-969175000D01*
X105828574Y-969119853D01*
X106089727Y-969011680D01*
X106294284Y-968875000D01*
X145165716Y-968875000D01*
X145370273Y-969011680D01*
X145631426Y-969119853D01*
X145908665Y-969175000D01*
X146191335Y-969175000D01*
X146468574Y-969119853D01*
X146729727Y-969011680D01*
X146883680Y-968908812D01*
X147455000Y-969480132D01*
X147455000Y-972527848D01*
X147429853Y-972401426D01*
X147321680Y-972140273D01*
X147164637Y-971905241D01*
X146964759Y-971705363D01*
X146729727Y-971548320D01*
X146468574Y-971440147D01*
X146191335Y-971385000D01*
X145908665Y-971385000D01*
X145631426Y-971440147D01*
X145370273Y-971548320D01*
X145165716Y-971685000D01*
X140735817Y-971685000D01*
X140678505Y-971627688D01*
X140427095Y-971459701D01*
X140147743Y-971343989D01*
X139851184Y-971285000D01*
X139548816Y-971285000D01*
X139252257Y-971343989D01*
X138972905Y-971459701D01*
X138721495Y-971627688D01*
X138507688Y-971841495D01*
X138339701Y-972092905D01*
X138223989Y-972372257D01*
X138165000Y-972668816D01*
X138165000Y-972971184D01*
X138223989Y-973267743D01*
X138339701Y-973547095D01*
X138507688Y-973798505D01*
X138574127Y-973864944D01*
X138555820Y-973870498D01*
X138445506Y-973929463D01*
X138348815Y-974008815D01*
X138269463Y-974105506D01*
X138210498Y-974215820D01*
X138174188Y-974335518D01*
X138161928Y-974460000D01*
X138161928Y-975292939D01*
X135419869Y-978035000D01*
X104195752Y-978035000D01*
X104140000Y-978029509D01*
X104084249Y-978035000D01*
X104084248Y-978035000D01*
X103917501Y-978051423D01*
X103872711Y-978065010D01*
X102895731Y-978065010D01*
X102839989Y-978059520D01*
X102784247Y-978065010D01*
X102784238Y-978065010D01*
X102617491Y-978081433D01*
X102403543Y-978146334D01*
X102206367Y-978251726D01*
X102033541Y-978393561D01*
X101998001Y-978436867D01*
X93355313Y-987079556D01*
X93375000Y-986980581D01*
X93375000Y-986599419D01*
X93351891Y-986483240D01*
X102070132Y-977765000D01*
X110434249Y-977765000D01*
X110490000Y-977770491D01*
X110545751Y-977765000D01*
X110545752Y-977765000D01*
X110712499Y-977748577D01*
X110926447Y-977683676D01*
X111123623Y-977578284D01*
X111296449Y-977436449D01*
X111331996Y-977393135D01*
X111827059Y-976898072D01*
X112660000Y-976898072D01*
X112784482Y-976885812D01*
X112904180Y-976849502D01*
X113014494Y-976790537D01*
X113111185Y-976711185D01*
X113190537Y-976614494D01*
X113249502Y-976504180D01*
X113285812Y-976384482D01*
X113298072Y-976260000D01*
X113298072Y-974460000D01*
X113285812Y-974335518D01*
X113249502Y-974215820D01*
X113190537Y-974105506D01*
X113111185Y-974008815D01*
X113014494Y-973929463D01*
X112904180Y-973870498D01*
X112885873Y-973864944D01*
X112952312Y-973798505D01*
X113120299Y-973547095D01*
X113236011Y-973267743D01*
X113295000Y-972971184D01*
X113295000Y-972668816D01*
X113236011Y-972372257D01*
X113120299Y-972092905D01*
X112952312Y-971841495D01*
X112738505Y-971627688D01*
X112487095Y-971459701D01*
X112207743Y-971343989D01*
X111911184Y-971285000D01*
X111608816Y-971285000D01*
X111312257Y-971343989D01*
X111032905Y-971459701D01*
X110781495Y-971627688D01*
X110724183Y-971685000D01*
X106294284Y-971685000D01*
X106089727Y-971548320D01*
X105828574Y-971440147D01*
X105551335Y-971385000D01*
X105268665Y-971385000D01*
X104991426Y-971440147D01*
X104730273Y-971548320D01*
X104495241Y-971705363D01*
X104295363Y-971905241D01*
X104138320Y-972140273D01*
X104030147Y-972401426D01*
X103975000Y-972678665D01*
X103975000Y-972961335D01*
X104030147Y-973238574D01*
X104138320Y-973499727D01*
X104295363Y-973734759D01*
X104495241Y-973934637D01*
X104730273Y-974091680D01*
X104991426Y-974199853D01*
X105268665Y-974255000D01*
X105551335Y-974255000D01*
X105828574Y-974199853D01*
X106089727Y-974091680D01*
X106294284Y-973955000D01*
X110474389Y-973955000D01*
X110408815Y-974008815D01*
X110329463Y-974105506D01*
X110270498Y-974215820D01*
X110234188Y-974335518D01*
X110221928Y-974460000D01*
X110221928Y-975292941D01*
X110019869Y-975495000D01*
X101655752Y-975495000D01*
X101600000Y-975489509D01*
X101544248Y-975495000D01*
X101377501Y-975511423D01*
X101163553Y-975576324D01*
X100966377Y-975681716D01*
X100793551Y-975823551D01*
X100758011Y-975866857D01*
X93355313Y-983269556D01*
X93375000Y-983170581D01*
X93375000Y-982789419D01*
X93351891Y-982673240D01*
X99823141Y-976201991D01*
X99866449Y-976166449D01*
X100008284Y-975993623D01*
X100113676Y-975796447D01*
X100178577Y-975582499D01*
X100195000Y-975415752D01*
X100195000Y-975415743D01*
X100200490Y-975360001D01*
X100195000Y-975304259D01*
X100195000Y-969480131D01*
X101171988Y-968503144D01*
X101171992Y-968503139D01*
X104610133Y-965065000D01*
X135834249Y-965065000D01*
X135890000Y-965070491D01*
X135945751Y-965065000D01*
X135945752Y-965065000D01*
X136112499Y-965048577D01*
X136326447Y-964983676D01*
X136523623Y-964878284D01*
X136696449Y-964736449D01*
X136731996Y-964693135D01*
X139767061Y-961658072D01*
X140600000Y-961658072D01*
X140724482Y-961645812D01*
X140844180Y-961609502D01*
X140954494Y-961550537D01*
X141051185Y-961471185D01*
X141130537Y-961374494D01*
X141189502Y-961264180D01*
X141225812Y-961144482D01*
X141238072Y-961020000D01*
X141238072Y-959220000D01*
X141225812Y-959095518D01*
X141189502Y-958975820D01*
X141130537Y-958865506D01*
X141051185Y-958768815D01*
X140985611Y-958715000D01*
X145165716Y-958715000D01*
X145370273Y-958851680D01*
X145631426Y-958959853D01*
X145908665Y-959015000D01*
X146191335Y-959015000D01*
X146468574Y-958959853D01*
X146729727Y-958851680D01*
X146964759Y-958694637D01*
X147164637Y-958494759D01*
X147321680Y-958259727D01*
X147429853Y-957998574D01*
X147455001Y-957872149D01*
X147455000Y-964729868D01*
G37*
X147455000Y-964729868D02*
X145872718Y-966312150D01*
X145631426Y-966360147D01*
X145370273Y-966468320D01*
X145165716Y-966605000D01*
X106294284Y-966605000D01*
X106089727Y-966468320D01*
X105828574Y-966360147D01*
X105551335Y-966305000D01*
X105268665Y-966305000D01*
X104991426Y-966360147D01*
X104730273Y-966468320D01*
X104495241Y-966625363D01*
X104295363Y-966825241D01*
X104138320Y-967060273D01*
X104030147Y-967321426D01*
X103975000Y-967598665D01*
X103975000Y-967881335D01*
X104030147Y-968158574D01*
X104138320Y-968419727D01*
X104295363Y-968654759D01*
X104495241Y-968854637D01*
X104730273Y-969011680D01*
X104991426Y-969119853D01*
X105268665Y-969175000D01*
X105551335Y-969175000D01*
X105828574Y-969119853D01*
X106089727Y-969011680D01*
X106294284Y-968875000D01*
X145165716Y-968875000D01*
X145370273Y-969011680D01*
X145631426Y-969119853D01*
X145908665Y-969175000D01*
X146191335Y-969175000D01*
X146468574Y-969119853D01*
X146729727Y-969011680D01*
X146883680Y-968908812D01*
X147455000Y-969480132D01*
X147455000Y-972527848D01*
X147429853Y-972401426D01*
X147321680Y-972140273D01*
X147164637Y-971905241D01*
X146964759Y-971705363D01*
X146729727Y-971548320D01*
X146468574Y-971440147D01*
X146191335Y-971385000D01*
X145908665Y-971385000D01*
X145631426Y-971440147D01*
X145370273Y-971548320D01*
X145165716Y-971685000D01*
X140735817Y-971685000D01*
X140678505Y-971627688D01*
X140427095Y-971459701D01*
X140147743Y-971343989D01*
X139851184Y-971285000D01*
X139548816Y-971285000D01*
X139252257Y-971343989D01*
X138972905Y-971459701D01*
X138721495Y-971627688D01*
X138507688Y-971841495D01*
X138339701Y-972092905D01*
X138223989Y-972372257D01*
X138165000Y-972668816D01*
X138165000Y-972971184D01*
X138223989Y-973267743D01*
X138339701Y-973547095D01*
X138507688Y-973798505D01*
X138574127Y-973864944D01*
X138555820Y-973870498D01*
X138445506Y-973929463D01*
X138348815Y-974008815D01*
X138269463Y-974105506D01*
X138210498Y-974215820D01*
X138174188Y-974335518D01*
X138161928Y-974460000D01*
X138161928Y-975292939D01*
X135419869Y-978035000D01*
X104195752Y-978035000D01*
X104140000Y-978029509D01*
X104084249Y-978035000D01*
X104084248Y-978035000D01*
X103917501Y-978051423D01*
X103872711Y-978065010D01*
X102895731Y-978065010D01*
X102839989Y-978059520D01*
X102784247Y-978065010D01*
X102784238Y-978065010D01*
X102617491Y-978081433D01*
X102403543Y-978146334D01*
X102206367Y-978251726D01*
X102033541Y-978393561D01*
X101998001Y-978436867D01*
X93355313Y-987079556D01*
X93375000Y-986980581D01*
X93375000Y-986599419D01*
X93351891Y-986483240D01*
X102070132Y-977765000D01*
X110434249Y-977765000D01*
X110490000Y-977770491D01*
X110545751Y-977765000D01*
X110545752Y-977765000D01*
X110712499Y-977748577D01*
X110926447Y-977683676D01*
X111123623Y-977578284D01*
X111296449Y-977436449D01*
X111331996Y-977393135D01*
X111827059Y-976898072D01*
X112660000Y-976898072D01*
X112784482Y-976885812D01*
X112904180Y-976849502D01*
X113014494Y-976790537D01*
X113111185Y-976711185D01*
X113190537Y-976614494D01*
X113249502Y-976504180D01*
X113285812Y-976384482D01*
X113298072Y-976260000D01*
X113298072Y-974460000D01*
X113285812Y-974335518D01*
X113249502Y-974215820D01*
X113190537Y-974105506D01*
X113111185Y-974008815D01*
X113014494Y-973929463D01*
X112904180Y-973870498D01*
X112885873Y-973864944D01*
X112952312Y-973798505D01*
X113120299Y-973547095D01*
X113236011Y-973267743D01*
X113295000Y-972971184D01*
X113295000Y-972668816D01*
X113236011Y-972372257D01*
X113120299Y-972092905D01*
X112952312Y-971841495D01*
X112738505Y-971627688D01*
X112487095Y-971459701D01*
X112207743Y-971343989D01*
X111911184Y-971285000D01*
X111608816Y-971285000D01*
X111312257Y-971343989D01*
X111032905Y-971459701D01*
X110781495Y-971627688D01*
X110724183Y-971685000D01*
X106294284Y-971685000D01*
X106089727Y-971548320D01*
X105828574Y-971440147D01*
X105551335Y-971385000D01*
X105268665Y-971385000D01*
X104991426Y-971440147D01*
X104730273Y-971548320D01*
X104495241Y-971705363D01*
X104295363Y-971905241D01*
X104138320Y-972140273D01*
X104030147Y-972401426D01*
X103975000Y-972678665D01*
X103975000Y-972961335D01*
X104030147Y-973238574D01*
X104138320Y-973499727D01*
X104295363Y-973734759D01*
X104495241Y-973934637D01*
X104730273Y-974091680D01*
X104991426Y-974199853D01*
X105268665Y-974255000D01*
X105551335Y-974255000D01*
X105828574Y-974199853D01*
X106089727Y-974091680D01*
X106294284Y-973955000D01*
X110474389Y-973955000D01*
X110408815Y-974008815D01*
X110329463Y-974105506D01*
X110270498Y-974215820D01*
X110234188Y-974335518D01*
X110221928Y-974460000D01*
X110221928Y-975292941D01*
X110019869Y-975495000D01*
X101655752Y-975495000D01*
X101600000Y-975489509D01*
X101544248Y-975495000D01*
X101377501Y-975511423D01*
X101163553Y-975576324D01*
X100966377Y-975681716D01*
X100793551Y-975823551D01*
X100758011Y-975866857D01*
X93355313Y-983269556D01*
X93375000Y-983170581D01*
X93375000Y-982789419D01*
X93351891Y-982673240D01*
X99823141Y-976201991D01*
X99866449Y-976166449D01*
X100008284Y-975993623D01*
X100113676Y-975796447D01*
X100178577Y-975582499D01*
X100195000Y-975415752D01*
X100195000Y-975415743D01*
X100200490Y-975360001D01*
X100195000Y-975304259D01*
X100195000Y-969480131D01*
X101171988Y-968503144D01*
X101171992Y-968503139D01*
X104610133Y-965065000D01*
X135834249Y-965065000D01*
X135890000Y-965070491D01*
X135945751Y-965065000D01*
X135945752Y-965065000D01*
X136112499Y-965048577D01*
X136326447Y-964983676D01*
X136523623Y-964878284D01*
X136696449Y-964736449D01*
X136731996Y-964693135D01*
X139767061Y-961658072D01*
X140600000Y-961658072D01*
X140724482Y-961645812D01*
X140844180Y-961609502D01*
X140954494Y-961550537D01*
X141051185Y-961471185D01*
X141130537Y-961374494D01*
X141189502Y-961264180D01*
X141225812Y-961144482D01*
X141238072Y-961020000D01*
X141238072Y-959220000D01*
X141225812Y-959095518D01*
X141189502Y-958975820D01*
X141130537Y-958865506D01*
X141051185Y-958768815D01*
X140985611Y-958715000D01*
X145165716Y-958715000D01*
X145370273Y-958851680D01*
X145631426Y-958959853D01*
X145908665Y-959015000D01*
X146191335Y-959015000D01*
X146468574Y-958959853D01*
X146729727Y-958851680D01*
X146964759Y-958694637D01*
X147164637Y-958494759D01*
X147321680Y-958259727D01*
X147429853Y-957998574D01*
X147455001Y-957872149D01*
X147455000Y-964729868D01*
%TD*%
M02*
